<?xml version="1.0" encoding="utf-8"?>
<!-- Generator: Adobe Illustrator 25.2.1, SVG Export Plug-In . SVG Version: 6.00 Build 0)  -->
<svg version="1.1" id="Layer_1" xmlns="http://www.w3.org/2000/svg" xmlns:xlink="http://www.w3.org/1999/xlink" x="0px" y="0px"
	 viewBox="0 0 800 800" style="enable-background:new 0 0 800 800;" xml:space="preserve">
<style type="text/css">
	.st0{fill:#FFFFFF;}
</style>
<g>
	<g>
		<path class="st0" d="M208,282.9c0-25,0-49.9,0-74.9c128,0,256,0,384,0c0,128,0,255.9,0,384c-128,0-256,0-384,0
			c0-32.8,0-65.8,0-98.7c2.5,4,6.2,5.2,10.8,5c4.3-0.3,8.6-0.1,12.7-0.1c0.3,0.9,0.4,1.2,0.4,1.4c0,6.9,0,13.7,0.1,20.6
			c0,8.2,2.3,10.4,10.5,10.4c37.6,0,75.1,0,112.7,0c1.5,0,2.9,0,4.8,0c0,1.8,0,3.1,0,4.5c0,14.4,0,28.7,0,43.1c0,4.8,2.9,7.9,7.1,8
			c4.3,0.2,7.5-3,7.8-7.8c0.1-1.1,0-2.2,0-3.4c0-24.1,0-48.2,0-72.3c0-1.4,0-2.9,0-4.3c16.5,0,32.5,0,48.8,0c0,1.6,0,2.9,0,4.3
			c0,24.5,0,48.9,0,73.4c0,1.2-0.1,2.5,0.1,3.7c0.5,3.3,3.2,5.9,6.5,6.3c3.4,0.4,6.6-1.4,7.7-4.7c0.5-1.5,0.7-3.2,0.7-4.8
			c0-14,0-28,0-41.9c0-1.3,0-2.6,0-4.2c2,0,3.5,0,5,0c37.2,0,74.4,0,111.5,0c1.1,0,2.2,0,3.4,0c5.1-0.3,8-3.2,8.1-8.4
			c0.1-6.4,0-12.7,0-19.1c0-1.6,0-3.1,0-4.9c5.6,0,10.6,0,15.5,0c6.6-0.1,9.2-2.7,9.2-9.4c0-16.8,0-33.7,0-50.5
			c0-5.9,0.1-11.7,0-17.6c-0.2-6.1-6-9.6-11-6.8c-3.1,1.7-3.9,4.5-3.9,7.9c0,19.1,0,38.2,0,57.3c0,1.3-0.1,2.6-0.2,4
			c-117.9,0-235.3,0-352.9,0c0-63.5,0-126.8,0-190.1c117.8,0,235.4,0,353.1,0c0,1.6,0,3,0,4.4c0,18.6,0,37.2,0,55.8
			c0,4.8,1.9,7.7,5.6,8.6c5.2,1.3,9.3-2.3,9.3-8.2c0-22.1,0-44.2,0-66.3c0-6.9-2.6-9.5-9.5-9.5c-19.8,0-39.7,0-59.5,0
			c-1.3,0-2.7,0-4.1,0c0-5.2,0-10,0-15.2c1.6,0,2.9,0,4.2,0c5.6,0,11.2,0.1,16.8,0c5.2-0.1,8.2-2.7,8.3-7.7
			c0.2-10.9,0.2-21.7,0-32.6c-0.1-4.6-3.2-7.4-7.7-7.4c-19.5-0.1-38.9-0.1-58.4,0c-4.9,0-7.8,2.8-7.8,7.6c-0.1,10.7-0.1,21.5,0,32.2
			c0,5,2.9,7.7,8.1,7.8c5.7,0.1,11.5,0,17.2,0c1.3,0,2.6,0.1,3.8,0.2c0,5.3,0,10.1,0,14.8c-31.9,0-63.6,0-95.4,0c0-5,0-9.8,0-15
			c1.5,0,2.9,0,4.2,0c5.7,0,11.5,0.1,17.2,0c4.8-0.1,7.8-2.7,7.9-7.2c0.2-11.1,0.2-22.2,0-33.3c-0.1-4.4-3.2-7.1-7.6-7.1
			c-19.6-0.1-39.2-0.1-58.8,0c-4.4,0-7.4,2.8-7.5,7.2c-0.2,11-0.2,22,0,32.9c0.1,4.7,3,7.4,8,7.5c5.7,0.1,11.5,0,17.2,0
			c1.3,0,2.6,0.1,3.9,0.2c0,5.2,0,10,0,14.8c-32,0-63.7,0-95.3,0c0-5.1,0-9.9,0-14.9c6.9,0,13.5,0,20.1,0c6.4,0,9.2-2.7,9.2-9
			c0.1-9.9,0.1-19.7,0-29.6c0-6.4-2.7-9.1-9.2-9.1c-18.6,0-37.2,0-55.8,0c-6.5,0-9.1,2.5-9.1,9c-0.1,9.5,0,19,0,28.5
			c0,7.9,2.3,10.2,10.3,10.2c6.3,0,12.6,0,19,0c0,5.3,0,10.1,0,15.2c-1.6,0-2.9,0-4.2,0c-19.6,0-39.2,0.1-58.8-0.1
			C213.6,277.5,210.2,278.8,208,282.9z M310.7,441.4c10,0,19.9,0,29.9,0c6.2,0,8.2-1.4,10.1-7.3c6.2-19.1,12.4-38.1,18.5-57.2
			c1.9-5.8,1.2-8-3.7-11.5c-16.3-11.9-32.7-23.7-49-35.6c-4.5-3.3-7-3.3-11.5,0c-16.2,11.8-32.5,23.6-48.7,35.4
			c-5.4,3.9-6.1,6-4,12.4c6.1,18.7,12.2,37.4,18.3,56.1c2.1,6.6,3.8,7.8,10.8,7.8C291.2,441.4,300.9,441.4,310.7,441.4z
			 M471.2,354.9c18,0,35.9,0,53.9,0c1.4,0,2.8,0,4.1-0.1c3.4-0.5,5.9-3.1,6.2-6.5c0.4-3.6-1.6-6.8-5-7.8c-1.5-0.4-3.2-0.5-4.8-0.5
			c-36.2,0-72.3,0-108.5,0c-1.6,0-3.3,0.1-4.8,0.5c-3.4,0.9-5.5,4.1-5.2,7.7c0.3,3.5,2.9,6.2,6.5,6.6c1.4,0.2,2.7,0.1,4.1,0.1
			C435.5,354.9,453.4,354.9,471.2,354.9z M455.9,378.6c-13.6,0-27.2,0-40.7,0c-5.4,0-8.9,4-8,8.9c0.7,3.9,4,6.1,9,6.1
			c23.9,0,47.8,0,71.8,0c3,0,6,0.1,9,0c4.9-0.3,8.2-4.2,7.5-8.7c-0.6-3.8-3.6-6.2-8.1-6.2C482.8,378.6,469.4,378.6,455.9,378.6z
			 M441.7,432.1c8.8,0,17.7,0,26.5,0c3.3,0,5.9-1,7.5-3.9c2.9-5.3-1-11-7.6-11c-17.4-0.1-34.9-0.1-52.3,0c-5.4,0-8.8,3-8.7,7.6
			c0,4.6,3.3,7.3,8.9,7.3C424.6,432.1,433.2,432.1,441.7,432.1z M591.3,387.2c-0.1-4.1-3.4-7.2-7.5-7.2c-4.3,0-7.5,3.5-7.3,7.7
			c0.2,4.1,3.6,7.1,7.7,7C588.2,394.6,591.4,391.2,591.3,387.2z"/>
		<path d="M208,287.7c0-5.6,4.5-10.2,10-10.1c0,0,0.1,0,0.1,0c19.6,0.2,39.2,0.1,58.8,0.1c1.3,0,2.7,0,4.2,0v-15.2
			c-6.4,0-12.7,0-19,0c-8,0-10.3-2.3-10.3-10.2c0-9.5,0-19,0-28.5c0-7.8,3.8-9.9,13.6-8.7c15.6,1.8,31.3,2,46.9,0
			c9.6-1.2,13.5,1,13.6,8.8c0.1,9.9,0.1,19.7,0,29.6c0,6.3-2.8,9-9.2,9c-6.6,0-13.2,0-20.1,0v14.9H392v-14.8
			c-1.3-0.1-2.6-0.2-3.9-0.2c-5.7,0-11.5,0.1-17.2,0c-5-0.1-8-2.8-8-7.5c-0.1-11-0.1-22,0-32.9c0.1-4.4,3-7.2,7.5-7.2
			c19.6-0.1,39.2-0.1,58.8,0c4.4,0,7.5,2.7,7.6,7.1c0.2,11.1,0.2,22.2,0,33.3c-0.1,4.6-3.2,7.1-7.9,7.2c-5.7,0.1-11.5,0-17.2,0
			c-1.3,0-2.7,0-4.2,0v15h95.4v-14.8c-1.2-0.1-2.5-0.2-3.8-0.2c-5.7,0-11.5,0.1-17.2,0c-5.2-0.1-8.1-2.8-8.1-7.8
			c-0.1-10.7-0.1-21.5,0-32.2c0.1-4.8,2.9-7.6,7.8-7.6c19.5-0.1,38.9-0.1,58.4,0c4.6,0,7.7,2.8,7.7,7.4c0.2,10.9,0.2,21.7,0,32.6
			c-0.1,4.9-3.1,7.6-8.3,7.7c-5.6,0.1-11.2,0-16.8,0c-1.3,0-2.7,0-4.2,0v15.2c1.4,0,2.8,0,4.1,0c19.8,0,39.7,0,59.5,0
			c6.9,0,9.5,2.6,9.5,9.5c0,22.1,0,44.2,0,66.3c0,5.9-4.2,9.5-9.3,8.2c-3.7-0.9-5.6-3.8-5.6-8.6c0-18.6,0-37.2,0-55.8
			c0-1.4,0-2.7,0-4.4H223.2V483h352.9c0.1-1.4,0.2-2.7,0.2-4c0-19.1,0-38.2,0-57.3c0-3.4,0.8-6.2,3.9-7.9c5.1-2.8,10.9,0.7,11,6.8
			c0.2,5.9,0,11.7,0,17.6c0,16.8,0,33.7,0,50.5c0,6.7-2.6,9.4-9.2,9.4c-5,0.1-10,0-15.5,0c0,1.8,0,3.3,0,4.9c0,6.4,0.1,12.7,0,19.1
			c-0.1,5.2-2.9,8.1-8.1,8.4c-1.1,0.1-2.2,0-3.4,0c-37.2,0-74.4,0-111.5,0c-1.5,0-3,0-5,0c0,1.5,0,2.8,0,4.2c0,14,0,28,0,41.9
			c0,1.6-0.1,3.3-0.7,4.8c-1.1,3.3-4.3,5.1-7.7,4.7c-3.3-0.4-6-3-6.5-6.3c-0.2-1.2-0.1-2.5-0.1-3.7c0-24.5,0-48.9,0-73.4
			c0-1.3,0-2.7,0-4.3h-48.8c0,1.4,0,2.9,0,4.3c0,24.1,0,48.2,0,72.3c0,1.1,0,2.3,0,3.4c-0.3,4.8-3.5,7.9-7.8,7.8
			c-4.2-0.2-7.1-3.3-7.1-8c-0.1-14.4,0-28.7,0-43.1c0-1.3,0-2.7,0-4.5c-1.9,0-3.3,0-4.8,0c-37.6,0-75.1,0-112.7,0
			c-8.2,0-10.5-2.2-10.5-10.4c0-6.9,0-13.7-0.1-20.6c0-0.2-0.1-0.5-0.4-1.4c-4.1,0-8.4-0.2-12.7,0.1c0,0-0.1,0-0.1,0
			c-5.8,0.3-10.6-4.5-10.6-10.3V287.7z M310.9,515.4h48.7v-16.9h-48.7V515.4z M551.4,498.2c-15.8,0-31.3,0-46.9,0.1
			c-0.7,0-1.9,1-1.9,1.6c-0.2,5.2-0.1,10.4-0.1,15.5h48.9V498.2z M247,515.3h48.4v-16.9H247V515.3z M438.7,515.4h48.5v-16.9h-48.5
			V515.4z M310.8,229.9h-43.7v17.3h43.7V229.9z M421.9,229.9h-44c0,5.8,0,11.4,0,16.9c0.3,0.2,0.4,0.3,0.5,0.3
			c13.8,0.1,27.7,0.2,41.5,0.2c0.7,0,1.9-1.3,1.9-2C421.9,240.3,421.9,235.2,421.9,229.9z M488.7,247.2h43.7V230h-43.7V247.2z"/>
		<path d="M310.7,441.4c-9.7,0-19.5,0-29.2,0c-7.1,0-8.7-1.2-10.8-7.8c-6.1-18.7-12.2-37.4-18.3-56.1c-2.1-6.4-1.4-8.5,4-12.4
			c16.2-11.8,32.5-23.6,48.7-35.4c4.5-3.3,7-3.2,11.5,0c16.3,11.8,32.7,23.7,49,35.6c4.9,3.5,5.6,5.8,3.7,11.5
			c-6.2,19.1-12.3,38.1-18.5,57.2c-1.9,5.9-3.9,7.3-10.1,7.3C330.6,441.4,320.6,441.4,310.7,441.4z M354,375.5
			c-14.5-10.5-28.8-21-43.2-31.4c-14,10.1-27.6,20-41.1,30c-0.9,0.7-1.6,2.8-1.2,3.9c4.8,15.3,9.8,30.6,14.9,45.8
			c0.4,1.1,2.1,2.5,3.3,2.5c16.2,0.2,32.4,0.1,48.6,0c1,0,2.6-1.1,2.9-2C343.4,408.1,348.6,391.9,354,375.5z"/>
		<path d="M471.2,354.9c-17.8,0-35.7,0-53.5,0c-1.4,0-2.8,0-4.1-0.1c-3.6-0.4-6.2-3.1-6.5-6.6c-0.3-3.6,1.8-6.7,5.2-7.7
			c1.5-0.4,3.2-0.5,4.8-0.5c36.2,0,72.3,0,108.5,0c1.6,0,3.3,0.1,4.8,0.5c3.4,1,5.3,4.2,5,7.8c-0.3,3.4-2.8,6-6.2,6.5
			c-1.4,0.2-2.7,0.1-4.1,0.1C507.1,354.9,489.1,354.9,471.2,354.9z"/>
		<path d="M455.9,378.6c13.5,0,26.9,0,40.4,0c4.5,0,7.5,2.4,8.1,6.2c0.8,4.6-2.5,8.5-7.5,8.7c-3,0.2-6,0-9,0c-23.9,0-47.8,0-71.8,0
			c-5.1,0-8.3-2.2-9-6.1c-0.9-4.9,2.5-8.8,8-8.9C428.8,378.6,442.3,378.6,455.9,378.6z"/>
		<path d="M441.7,432.1c-8.6,0-17.2,0-25.8,0c-5.6,0-8.8-2.7-8.9-7.3c0-4.6,3.3-7.6,8.7-7.6c17.4-0.1,34.9-0.1,52.3,0
			c6.7,0,10.5,5.7,7.6,11c-1.6,2.9-4.2,4-7.5,3.9C459.4,432,450.6,432.1,441.7,432.1z"/>
		<path d="M591.3,387.2c0.1,4.1-3.1,7.4-7.2,7.5c-4.1,0.1-7.5-2.9-7.7-7c-0.2-4.2,3.1-7.7,7.3-7.7
			C587.9,380,591.2,383.1,591.3,387.2z"/>
		<path class="st0" d="M310.9,515.4c0-5.7,0-11.1,0-16.9c16.2,0,32.3,0,48.7,0c0,5.6,0,11.1,0,16.9
			C343.4,515.4,327.4,515.4,310.9,515.4z"/>
		<path class="st0" d="M551.4,498.2c0,6.1,0,11.5,0,17.2c-16.2,0-32.2,0-48.9,0c0-5.2-0.1-10.4,0.1-15.5c0-0.6,1.2-1.6,1.9-1.6
			C520.1,498.2,535.6,498.2,551.4,498.2z"/>
		<path class="st0" d="M247,515.3c0-5.7,0-11.2,0-16.9c16.2,0,32.2,0,48.4,0c0,5.5,0,11.1,0,16.9C279.4,515.3,263.4,515.3,247,515.3
			z"/>
		<path class="st0" d="M438.7,515.4c0-5.8,0-11.2,0-16.9c16.2,0,32.2,0,48.5,0c0,5.6,0,11.2,0,16.9
			C471.1,515.4,455.1,515.4,438.7,515.4z"/>
		<path class="st0" d="M310.8,229.9c0,5.9,0,11.5,0,17.3c-14.6,0-29,0-43.7,0c0-5.8,0-11.4,0-17.3
			C281.7,229.9,296.1,229.9,310.8,229.9z"/>
		<path class="st0" d="M421.9,229.9c0,5.2,0.1,10.3-0.1,15.4c0,0.7-1.2,2-1.9,2c-13.8,0-27.7-0.1-41.5-0.2c-0.1,0-0.2-0.1-0.5-0.3
			c0-5.5,0-11,0-16.9C392.5,229.9,407,229.9,421.9,229.9z"/>
		<path class="st0" d="M488.7,247.2c0-5.8,0-11.4,0-17.2c14.5,0,29,0,43.7,0c0,5.6,0,11.3,0,17.2
			C517.8,247.2,503.4,247.2,488.7,247.2z"/>
		<path class="st0" d="M354,375.5c-5.3,16.4-10.5,32.6-15.9,48.8c-0.3,0.9-1.9,2-2.9,2c-16.2,0.1-32.4,0.1-48.6,0
			c-1.1,0-2.9-1.4-3.3-2.5c-5.1-15.2-10.1-30.5-14.9-45.8c-0.3-1.1,0.3-3.2,1.2-3.9c13.5-10,27.2-19.9,41.1-30
			C325.1,354.5,339.5,364.9,354,375.5z"/>
	</g>
</g>
<path d="M320.8,231.2h-62.2V220c0-2.9,2.4-5.3,5.3-5.3h51.6c2.9,0,5.3,2.4,5.3,5.3V231.2z"/>
</svg>
