<?xml version="1.0" encoding="utf-8"?>
<!-- Generator: Adobe Illustrator 25.2.1, SVG Export Plug-In . SVG Version: 6.00 Build 0)  -->
<svg width="100" height="100" version="1.1" id="Layer_1" xmlns="http://www.w3.org/2000/svg" xmlns:xlink="http://www.w3.org/1999/xlink" x="0px" y="0px"
	 viewBox="0 0 800 800" style="enable-background:new 0 0 800 800;" xml:space="preserve">
<style type="text/css">
	.st0{fill:#FFFFFF;}
</style>
<g>
	<g>
		<path d="M584,225v48.4c-1.7,4.9-5.3,6.6-10.3,6.5c-7.1-0.2-14.2,0-21.5,0v143.7c7.2,0,14.2,0.1,21.3,0c0,0,0.1,0,0.1,0
			c5.7-0.1,10.4,4.7,10.4,10.4v42.9c0,5.8-4.6,10.6-10.5,10.7c0,0-0.1,0-0.1,0c-42.7-0.1-85.4-0.1-128-0.1c-1.5,0-3.1,0-4.7,0v79.9
			c1.6,0,2.9,0,4.2,0c21.4,0,42.8,0,64.2,0c1.4,0,2.9,0,4.3,0.2c3.7,0.6,6.5,3.7,6.7,7.4c0.2,3.4-2.2,6.8-5.7,7.8
			c-1.5,0.4-3.1,0.5-4.6,0.5c-72.9,0-145.8,0-218.8,0c-1.3,0-2.6,0-3.9-0.3c-3.9-0.8-6.6-4.2-6.5-7.9c0.1-3.9,3.1-7.1,7.3-7.6
			c1.3-0.1,2.6-0.1,3.9-0.1c21.4,0,42.8,0,64.2,0c1.4,0,2.7,0,4,0v-79.9c-1.8,0-3.4,0-4.9,0c-42.7,0-85.4,0-128,0
			c-7.7,0-10.4-2.8-10.4-10.4c0-14.6,0-29.2,0-43.8c0-6.6,3-9.6,9.6-9.7c4.3-0.1,8.6,0,12.9,0c3,0,6.1,0,9.1,0V279.9h-21.4
			c-5.6,0-10.2-4.6-10.2-10.2c0-14.5,0.1-28.9,0-43.4c0-3.6,0.8-6.5,3.1-8.5c1.5-1.3,3.4-1.8,5.4-1.8l352.3,0c0.1,0,0.1,0,0.2,0l0,0
			C581.5,217.4,584,221,584,225z M535.9,280.1h-271v143.2h271V280.1z M567.9,232.1h-335v31.6h335V232.1z M567.9,439.8H232.8v31.4
			h335.1V439.8z M424,567.2v-79.5h-47.3v79.5H424z"/>
		<path class="st0" d="M223.2,216c-4.9,1.7-6.5,5.3-6.5,10.3c0.1,14.5,0,28.9,0,43.4c0,7.3,2.9,10.1,10.2,10.2c7,0,14.1,0,21.4,0
			c0,47.8,0,95.4,0,143.7c-3,0-6.1,0-9.1,0c-4.3,0-8.6-0.1-12.9,0c-6.6,0.1-9.6,3.1-9.6,9.7c0,14.6,0,29.2,0,43.8
			c0,7.6,2.7,10.4,10.4,10.4c42.7,0,85.4,0,128,0c1.5,0,3.1,0,4.9,0c0,26.6,0,53,0,79.9c-1.3,0-2.7,0-4,0c-21.4,0-42.8,0-64.2,0
			c-1.3,0-2.6,0-3.9,0.1c-4.1,0.5-7.1,3.6-7.3,7.6c-0.1,3.7,2.6,7.1,6.5,7.9c1.3,0.3,2.6,0.3,3.9,0.3c72.9,0,145.8,0,218.8,0
			c1.5,0,3.1-0.1,4.6-0.5c3.5-1,5.9-4.3,5.7-7.8c-0.2-3.7-3-6.8-6.7-7.4c-1.4-0.2-2.9-0.2-4.3-0.2c-21.4,0-42.8,0-64.2,0
			c-1.3,0-2.6,0-4.2,0c0-26.7,0-53.1,0-79.9c1.6,0,3.1,0,4.7,0c42.7,0,85.4,0,128,0.1c4.9,0,8.6-1.4,10.6-6.1c0,34.2,0,68.4,0,102.6
			c-122.7,0-245.3,0-368,0c0-122.7,0-245.3,0-368C218.4,216,220.8,216,223.2,216z"/>
		<path class="st0" d="M584,429.8c-2-4.7-5.6-6.4-10.5-6.3c-7,0.2-14,0-21.3,0c0-48,0-95.6,0-143.7c7.3,0,14.4-0.1,21.5,0
			c5,0.1,8.5-1.6,10.3-6.5C584,325.5,584,377.6,584,429.8z"/>
		<path class="st0" d="M584,222.5c-1.1-3.2-3.3-5.3-6.5-6.5h6.5V222.5z"/>
		<path class="st0" d="M535.9,280.1c0,47.8,0,95.3,0,143.2c-90.3,0-180.6,0-271,0c0-47.7,0-95.3,0-143.2
			C355.2,280.1,445.3,280.1,535.9,280.1z"/>
		<path class="st0" d="M567.9,232.1c0,10.6,0,20.9,0,31.6c-111.6,0-223.2,0-335,0c0-10.5,0-20.9,0-31.6
			C344.5,232.1,456,232.1,567.9,232.1z"/>
		<path class="st0" d="M567.9,439.8c0,10.5,0,20.9,0,31.4c-111.8,0-223.3,0-335.1,0c0-10.5,0-20.9,0-31.4
			C344.6,439.8,456.1,439.8,567.9,439.8z"/>
		<path class="st0" d="M424,567.2c-15.8,0-31.4,0-47.3,0c0-26.5,0-52.9,0-79.5c15.8,0,31.4,0,47.3,0C424,514.2,424,540.6,424,567.2z
			"/>
	</g>
</g>
</svg>
