<?xml version="1.0" encoding="utf-8"?>
<!-- Generator: Adobe Illustrator 25.2.1, SVG Export Plug-In . SVG Version: 6.00 Build 0)  -->
<svg version="1.1" id="Layer_1" xmlns="http://www.w3.org/2000/svg" xmlns:xlink="http://www.w3.org/1999/xlink" x="0px" y="0px"
	 viewBox="0 0 800 800" style="enable-background:new 0 0 800 800;" xml:space="preserve">
<style type="text/css">
	.st0{fill:#FFFFFF;}
		path{
		fill:#5bdb90
	}
</style>
<g>
	<g>
		<path d="M600.6,355.6c0,25.3,0,50.6,0,75.9c-2.2,4.5-5.9,6-10.9,5.8c-7-0.2-14-0.1-21.3-0.1c0,1.9,0,3.4,0,4.8c0,23.5,0,47,0,70.5
			c0,7.3,0.1,14.6,0,21.9c-0.1,6.2-3,9.1-9.1,9.3c-1.5,0.1-3.1,0-5,0c0,7.5,0,14.5,0,21.5c-0.1,6.7-1.5,12.9-5.7,18.3
			c-7.2,9.1-16.8,11.1-27.7,10.1c-9.6-0.8-16.6-5.5-21.4-13.8c-2.8-4.8-3.3-10.1-3.3-15.5c0-6.7,0-13.5,0-20.4
			c-64.1,0-127.7,0-191.8,0c0,7.1,0,14,0,20.9c0,6.8-1.4,13.2-5.7,18.7c-6.7,8.5-15.8,10.8-26.1,10.2c-8.6-0.5-15.6-3.9-20.8-10.7
			c-4.1-5.3-5.4-11.5-5.5-18c0-7,0-14,0-21.1c-1.1-0.1-1.7-0.3-2.4-0.3c-9.9-0.4-11.8-2.4-11.8-12.2c0-29.7,0-59.5,0-89.2
			c0-1.5,0-3.1,0-5.1c-7.5,0-14.7,0-21.8,0c-7.6,0-10.4-2.8-10.4-10.4c0-22.3,0-44.6,0-66.9c0-8.1,2.6-10.7,10.9-10.7
			c7,0,14,0,21.3,0c0-2,0-3.6,0-5.1c0-31.7,0-63.4,0.1-95.1c0-3.9,0.3-7.9,1.2-11.6c4-17.6,20.3-31.1,41.2-31
			c83.9,0.3,167.8,0.1,251.7,0.2c3.2,0,6.6,0.1,9.7,0.7c19.3,3.7,32.5,20.1,32.6,40.3c0.1,32.4,0,64.7,0,97.1c0,1.5,0,3,0,4.7
			c7.7,0,14.7,0.2,21.8-0.1C595.2,349,598.7,350.8,600.6,355.6z M462.5,421.5c0-0.3,0-0.6,0-0.8c-17.1-5.5-34.2-11-51.3-16.5
			c-5.7-1.9-8.3-5.9-6.8-10.4c1.5-4.7,5.8-6.4,11.5-4.7c0.5,0.1,1,0.3,1.5,0.4c30.1,9.7,60.3,19.2,90.4,29.1
			c6.5,2.1,13,3.4,19.9,3.1c8-0.3,16.1-0.1,24.3-0.1c0-39.9,0-79.3,0-118.8c-101.4,0-202.4,0-303.6,0c0,39.7,0,79.1,0,118.5
			c27.2,0,54.1,0,81,0c-1-0.9-2-1.2-3.1-1.6c-15.4-4.9-30.7-9.9-46.1-14.8c-1.6-0.5-3.2-1-4.7-1.8c-3.5-1.8-5.2-5.6-4.2-9.2
			c1.1-3.7,4.4-5.9,8.4-5.5c1.8,0.2,3.6,0.7,5.3,1.3c31.9,10.3,63.7,20.6,95.6,30.7c2.3,0.7,4.8,1.1,7.3,1.1c23.6,0.1,47.2,0,70.8,0
			C459.9,421.5,461.2,421.5,462.5,421.5z M552.1,437.8c-101.3,0-202.5,0-303.8,0c0,30,0,59.8,0,89.8c101.3,0,202.5,0,303.8,0
			C552.1,497.6,552.1,467.8,552.1,437.8z M248.1,286.4c101.6,0,202.7,0,304,0c0.1-0.8,0.3-1.5,0.3-2.1c0-12.5,0-25,0-37.6
			c0-2.1-0.2-4.2-0.8-6.2c-3.1-11.6-12.1-18.1-25.1-18.1c-84.1,0-168.3,0-252.4,0c-1.3,0-2.6,0-3.9,0.1c-12,1.1-21.2,10.2-21.8,22.2
			c-0.4,9.6-0.2,19.3-0.2,28.9C248,277.9,248.1,282,248.1,286.4z M216,365.3c0,18.7,0,37.3,0,55.7c5.5,0,10.6,0,15.6,0
			c0-18.8,0-37.2,0-55.7C226.3,365.3,221.2,365.3,216,365.3z M568.8,365.3c0,18.7,0,37.3,0,55.9c5.3,0,10.4,0,15.6,0
			c0-18.7,0-37.3,0-55.9C579,365.3,574,365.3,568.8,365.3z M262.2,543.8c0,8.2-0.1,15.8,0,23.3c0.1,5.7,3.7,9.8,9,10.7
			c8.4,1.4,14.3-1.1,16.4-7.1c0.3-0.7,0.5-1.5,0.5-2.3c0-8.1,0-16.1,0-24.4c-1.1-0.1-2-0.3-2.9-0.3
			C277.8,543.7,270.3,543.8,262.2,543.8z M512.1,543.9c0,7.9-0.1,15.5,0,23c0.1,5.7,3.7,9.9,8.9,10.8c8.4,1.5,14.4-1,16.5-6.9
			c0.1-0.4,0.4-0.7,0.4-1.1c0-8.5,0-17.1,0-25.8C529.3,543.9,521,543.9,512.1,543.9z"/>
		<path class="st0" d="M600.6,355.6c-1.8-4.8-5.4-6.5-10.4-6.4c-7,0.2-14.1,0.1-21.8,0.1c0-1.7,0-3.2,0-4.7c0-32.4,0.1-64.7,0-97.1
			c-0.1-20.2-13.3-36.5-32.6-40.3c-3.2-0.6-6.5-0.7-9.7-0.7c-83.9,0-167.8,0.2-251.7-0.2c-20.9-0.1-37.2,13.4-41.2,31
			c-0.9,3.8-1.1,7.7-1.2,11.6c-0.1,31.7-0.1,63.4-0.1,95.1c0,1.5,0,3.1,0,5.1c-7.3,0-14.3,0-21.3,0c-8.2,0-10.9,2.6-10.9,10.7
			c0,22.3,0,44.6,0,66.9c0,7.6,2.7,10.4,10.4,10.4c7.1,0,14.3,0,21.8,0c0,2,0,3.5,0,5.1c0,29.7,0,59.5,0,89.2
			c0,9.8,1.9,11.7,11.8,12.2c0.6,0,1.3,0.2,2.4,0.3c0,7.1,0,14.1,0,21.1c0,6.5,1.3,12.7,5.5,18c5.3,6.8,12.2,10.2,20.8,10.7
			c10.3,0.5,19.4-1.7,26.1-10.2c4.4-5.5,5.8-11.8,5.7-18.7c0-6.9,0-13.8,0-20.9c64.1,0,127.7,0,191.8,0c0,6.9,0,13.7,0,20.4
			c0,5.4,0.6,10.6,3.3,15.5c4.8,8.3,11.8,12.9,21.4,13.8c10.8,1,20.5-1.1,27.7-10.1c4.3-5.4,5.7-11.6,5.7-18.3c0.1-7,0-14,0-21.5
			c2,0,3.5,0.1,5,0c6.1-0.2,9-3.1,9.1-9.3c0.1-7.3,0-14.6,0-21.9c0-23.5,0-47,0-70.5c0-1.4,0-2.8,0-4.8c7.3,0,14.3-0.2,21.3,0.1
			c4.9,0.2,8.6-1.3,10.9-5.8c0,56.4,0,112.7,0,169.1c-133.9,0-267.7,0-401.6,0c0-133.9,0-267.7,0-401.6c133.9,0,267.7,0,401.6,0
			C600.6,251.2,600.6,303.4,600.6,355.6z"/>
		<path class="st0" d="M462.5,421.5c-1.3,0-2.6,0-3.9,0c-23.6,0-47.2,0-70.8,0c-2.4,0-5-0.3-7.3-1.1c-31.9-10.2-63.7-20.5-95.6-30.7
			c-1.7-0.6-3.5-1.1-5.3-1.3c-4-0.4-7.3,1.9-8.4,5.5c-1,3.5,0.6,7.4,4.2,9.2c1.5,0.8,3.1,1.3,4.7,1.8c15.4,5,30.7,9.9,46.1,14.8
			c1.1,0.3,2.1,0.7,3.1,1.6c-26.9,0-53.8,0-81,0c0-39.4,0-78.9,0-118.5c101.2,0,202.2,0,303.6,0c0,39.5,0,78.9,0,118.8
			c-8.2,0-16.2-0.2-24.3,0.1c-6.9,0.3-13.3-1-19.9-3.1c-30.1-9.8-60.2-19.4-90.4-29.1c-0.5-0.2-1-0.3-1.5-0.4
			c-5.7-1.7-10,0.1-11.5,4.7c-1.5,4.5,1.1,8.6,6.8,10.4c17.1,5.5,34.2,11,51.3,16.5C462.5,420.9,462.5,421.2,462.5,421.5z
			 M329,316.3c-18.2,0-36.5,0-54.7,0c-7,0-10.9,2.7-10.9,7.8c-0.1,5.2,3.8,8,11.1,8c36.2,0,72.5,0,108.7,0c1.6,0,3.2,0,4.7-0.3
			c3.8-0.8,6.3-4.1,6.2-7.9c-0.1-3.7-2.7-6.7-6.3-7.4c-1.5-0.3-3.1-0.2-4.7-0.2C365,316.3,347,316.3,329,316.3z M425.9,316.4
			C425.9,316.4,425.9,316.4,425.9,316.4c-2.6,0-5.2-0.2-7.8,0.1c-4.3,0.4-7.3,3.6-7.3,7.7c0,4.1,2.9,7.6,7.2,7.8
			c5.2,0.3,10.4,0.3,15.6,0c4.2-0.2,7.3-3.7,7.3-7.7c0-4.2-3.1-7.6-7.6-7.9C430.9,316.2,428.4,316.4,425.9,316.4z"/>
		<path class="st0" d="M552.1,437.8c0,30,0,59.8,0,89.8c-101.3,0-202.5,0-303.8,0c0-30,0-59.8,0-89.8
			C349.6,437.8,450.8,437.8,552.1,437.8z M319,484.4c0.8-13.7-10.3-25.4-24.5-26.1c-13.2-0.6-24.9,10.3-25.8,24.1
			c-0.9,13.6,10.1,25.4,24.4,26.2C306.6,509.4,318.3,498.4,319,484.4z M531.6,483.9c0.4-13.5-10.7-25.1-24.7-25.7
			c-13.6-0.6-25.4,10.9-25.7,25c-0.2,13.7,10.8,25,24.8,25.4C519.6,509,531.2,497.7,531.6,483.9z"/>
		<path class="st0" d="M248.1,286.4c0-4.3,0-8.5,0-12.6c0-9.7-0.2-19.3,0.2-28.9c0.5-12,9.8-21.2,21.8-22.2c1.3-0.1,2.6-0.1,3.9-0.1
			c84.1,0,168.3,0,252.4,0c13,0,22,6.5,25.1,18.1c0.5,2,0.8,4.1,0.8,6.2c0.1,12.5,0,25,0,37.6c0,0.6-0.2,1.3-0.3,2.1
			C450.8,286.4,349.6,286.4,248.1,286.4z M400.6,276.6c30,0,60,0,90,0c6.9,0,9.8-2.9,9.8-9.8c0-7.8,0-15.6,0-23.5
			c0-8.9-2.5-11.4-11.4-11.4c-42,0-84,0-126,0c-17.2,0-34.4,0-51.6,0c-8,0-10.7,2.7-10.7,10.8c0,7.6,0,15.1,0,22.7
			c0,8.8,2.4,11.1,11.1,11.1C341.4,276.6,371,276.6,400.6,276.6z"/>
		<path class="st0" d="M216,365.3c5.2,0,10.2,0,15.6,0c0,18.5,0,36.9,0,55.7c-5,0-10.1,0-15.6,0C216,402.6,216,384,216,365.3z"/>
		<path class="st0" d="M568.8,365.3c5.2,0,10.2,0,15.6,0c0,18.6,0,37.1,0,55.9c-5.2,0-10.2,0-15.6,0
			C568.8,402.6,568.8,384.1,568.8,365.3z"/>
		<path class="st0" d="M262.2,543.8c8,0,15.6,0,23.1,0c0.9,0,1.8,0.2,2.9,0.3c0,8.2,0,16.3,0,24.4c0,0.8-0.3,1.5-0.5,2.3
			c-2.1,5.9-8,8.4-16.4,7.1c-5.3-0.9-8.9-5-9-10.7C262.2,559.5,262.2,552,262.2,543.8z"/>
		<path class="st0" d="M512.1,543.9c8.9,0,17.2,0,25.8,0c0,8.7,0,17.3,0,25.8c0,0.4-0.2,0.7-0.4,1.1c-2.2,5.9-8.2,8.4-16.5,6.9
			c-5.2-0.9-8.8-5.2-8.9-10.8C512,559.4,512.1,551.8,512.1,543.9z"/>
		<path d="M329,316.3c18,0,36,0,54,0c1.6,0,3.2,0,4.7,0.2c3.7,0.7,6.2,3.7,6.3,7.4c0.1,3.8-2.4,7.2-6.2,7.9
			c-1.5,0.3-3.1,0.3-4.7,0.3c-36.2,0-72.5,0-108.7,0c-7.3,0-11.2-2.9-11.1-8c0.1-5.1,3.9-7.8,10.9-7.8
			C292.5,316.3,310.7,316.3,329,316.3z"/>
		<path d="M425.9,316.4c2.5,0,5-0.1,7.4,0c4.5,0.3,7.6,3.7,7.6,7.9c0,4-3.1,7.5-7.3,7.7c-5.2,0.3-10.4,0.3-15.6,0
			c-4.3-0.2-7.2-3.7-7.2-7.8c0-4.1,3-7.4,7.3-7.7C420.7,316.2,423.3,316.4,425.9,316.4C425.9,316.4,425.9,316.4,425.9,316.4z"/>
		<path d="M319,484.4c-0.8,14.1-12.5,25-25.9,24.2c-14.3-0.9-25.2-12.7-24.4-26.2c0.9-13.8,12.6-24.7,25.8-24.1
			C308.8,458.9,319.8,470.7,319,484.4z M284.8,483.4c0,5,4.2,9.2,9.2,9.2c4.8,0,9-4.1,9.1-8.9c0.1-5-4-9.3-9-9.3
			C289,474.3,284.9,478.3,284.8,483.4z"/>
		<path d="M531.6,483.9c-0.4,13.8-12,25.1-25.6,24.7c-14-0.4-25-11.8-24.8-25.4c0.3-14,12.1-25.5,25.7-25
			C520.9,458.8,532,470.4,531.6,483.9z M506.3,474.3c-5,0.1-9.2,4.4-9,9.3c0.1,4.8,4.3,8.9,9.1,8.9c5,0,9.2-4.2,9.2-9.2
			C515.5,478.3,511.4,474.3,506.3,474.3z"/>
		<path d="M400.6,276.6c-29.6,0-59.2,0-88.8,0c-8.7,0-11.1-2.4-11.1-11.1c0-7.6,0-15.1,0-22.7c0-8.1,2.7-10.8,10.7-10.8
			c17.2,0,34.4,0,51.6,0c42,0,84,0,126,0c8.8,0,11.4,2.5,11.4,11.4c0,7.8,0,15.6,0,23.5c0,6.8-2.9,9.7-9.8,9.8
			C460.6,276.6,430.6,276.6,400.6,276.6z M316.7,260.5c56,0,111.6,0,167.4,0c0-4.2,0-8.2,0-12.2c-55.9,0-111.6,0-167.4,0
			C316.7,252.4,316.7,256.2,316.7,260.5z"/>
		<path class="st0" d="M284.8,483.4c0-5.1,4.2-9.1,9.2-9.1c5,0.1,9.2,4.4,9,9.3c-0.1,4.8-4.3,8.9-9.1,8.9
			C289,492.6,284.8,488.4,284.8,483.4z"/>
		<path class="st0" d="M506.3,474.3c5.1-0.1,9.2,4,9.3,9.1c0,5-4.2,9.2-9.2,9.2c-4.8,0-9-4.1-9.1-8.9
			C497.1,478.7,501.3,474.4,506.3,474.3z"/>
		<path class="st0" d="M316.7,260.5c0-4.3,0-8.1,0-12.2c55.8,0,111.4,0,167.4,0c0,4,0,8,0,12.2C428.4,260.5,372.7,260.5,316.7,260.5
			z"/>
	</g>
</g>
</svg>
