<?xml version="1.0" encoding="utf-8"?>
<!-- Generator: Adobe Illustrator 25.2.1, SVG Export Plug-In . SVG Version: 6.00 Build 0)  -->
<svg version="1.1" id="Layer_1" xmlns="http://www.w3.org/2000/svg" xmlns:xlink="http://www.w3.org/1999/xlink" x="0px" y="0px"
	 viewBox="0 0 800 800" style="enable-background:new 0 0 800 800;" xml:space="preserve">
<style type="text/css">
	.st0{fill:#FFFFFF;}
</style>
<g>
	<g>
		<path class="st0" d="M600.7,780.9c99.3-0.3,180.3-81.5,180.2-180.6c-0.1-99.2-81.2-180.3-180.4-180.4
			c-99.4-0.1-181,81.8-180.6,180.9C420.4,700.3,501.7,781.2,600.7,780.9z M233.4,330.1c-0.2-16.4-13.9-29.7-30.3-29.5
			c-16.1,0.3-29.2,13.6-29.3,29.7c0,16.4,13.5,29.9,29.9,29.8C220.2,360.1,233.6,346.5,233.4,330.1z M333.8,300.7
			c-16.4-0.2-30.1,13.2-30.2,29.6c-0.1,16.1,12.9,29.6,29,30c16.4,0.4,30.2-12.8,30.6-29.2C363.5,314.6,350.2,300.9,333.8,300.7z
			 M463.4,300.7c-16.4-0.1-30,13.3-30,29.7c0,16.1,13.1,29.5,29.2,29.8c16.4,0.3,30.2-13,30.4-29.3
			C493.2,314.5,479.8,300.8,463.4,300.7z M592.9,360.2c16.4,0,29.9-13.5,29.8-29.9c-0.1-16.1-13.3-29.4-29.4-29.6
			c-16.4-0.2-30.1,13.1-30.2,29.5C563.1,346.6,576.5,360.2,592.9,360.2z M233.4,460.2c0-16.4-13.6-29.9-30-29.8
			c-16.1,0.1-29.4,13.3-29.6,29.4c-0.2,16.4,13.2,30,29.6,30.1C219.9,490.1,233.4,476.6,233.4,460.2z M333.2,490
			c16.4,0.1,30-13.4,30-29.8c0-16.1-13.1-29.5-29.2-29.8c-16.4-0.3-30.1,13-30.3,29.4C303.4,476.2,316.8,489.9,333.2,490z
			 M233.4,590c0-16.4-13.6-29.9-30-29.7c-16.1,0.1-29.4,13.3-29.6,29.4c-0.2,16.4,13.2,30,29.6,30.1
			C219.9,619.9,233.4,606.4,233.4,590z M363.2,590.2c0.1-16.4-13.3-30-29.7-30c-16.1,0-29.5,13.1-29.8,29.2
			c-0.3,16.4,12.9,30.2,29.3,30.4C349.4,620,363.1,606.6,363.2,590.2z"/>
		<path d="M593.8,17.2c3.9,0,7.8,0.8,11.3,2.6c13.3,6.8,18.8,18.5,17.7,34.6c-0.5,7.1-0.1,14.3-0.1,22.4c12.6,0,24.7,0,36.7,0
			c36.8,0.1,67.8,13.7,92.1,41.4c18.4,20.9,28.6,45.5,29,73.3c0.6,58.2,0.4,116.3,0.2,174.5c-0.1,17.2-13.3,30-29.8,30
			c-16.8,0-29.7-13-29.7-30.8c-0.2-55.2,0-110.4-0.1-165.5c0-25.6-10.6-45.4-33.9-56.9c-6.8-3.4-14.3-5.3-21.9-5.8
			c-13.8-0.9-27.7-0.3-42.6-0.3c0,9,0,17.8,0,26.7c-0.1,19.4-12.6,32.8-30.1,32.7c-17.3-0.2-29.4-13.5-29.5-32.5
			c-0.1-8.7,0-17.3,0-26.5H427.4c0,8.9,0.1,17.8,0,26.6c-0.1,19-12.3,32.3-29.6,32.5c-17.6,0.2-30-13.3-30.1-32.7
			c-0.1-8.7,0-17.3,0-26.4H233.5c0,9.1,0.1,18,0,26.8c-0.2,18.9-12.4,32.3-29.7,32.3c-17.3,0.1-29.7-13.3-29.9-32.1
			c-0.1-8.9,0-17.8,0-28.2c-17.5,0.8-34.6-0.2-50.9,2.8c-27.4,5.1-45.4,29.4-46,58.4c-0.3,13.4-0.1,26.8-0.1,40.3
			c0,139.9,0,279.9,0,419.8c0,25.8,9.8,46.3,33.6,57.5c9.3,4.4,20.5,6.4,30.9,6.4c73.3,0.5,146.7,0.3,220,0.2
			c9.9,0,18.8,2.3,25.5,10c7.8,9,10,19.4,5.7,30.6c-4.4,11.3-13.1,17.5-25.1,19c-1.1,0.1-2.1,0.2-3.2,0.2
			c-75.6,0-151.3,0.2-226.9-0.1c-52.4-0.2-96.5-31.7-113.7-80.8c-0.7-2-1.3-4.1-1.9-6.2c-3.1-11.3-4.6-23-4.6-34.8
			c0-155.6,0-311.2,0-466.8c0-4.6,0.6-9.1,1.4-13.6l0,0c5.9-36.4,24.6-64.4,55.7-84.1C96.5,80.5,121,76,146.9,76.8
			c8.8,0.3,17.7,0,26.9,0c0-8.2,0.4-15.4-0.1-22.5c-0.8-12.5,2.3-22.3,9.9-29.2c11.2-10.3,28.8-10.3,40.1,0
			c7.6,6.9,10.7,16.8,9.9,29.3c-0.5,7.3-0.1,14.7-0.1,22h134.3c0-7.7,0.4-14.9-0.1-22c-0.8-12.5,2.3-22.3,9.9-29.2
			c11.2-10.3,28.8-10.3,40.1,0c7.6,6.9,10.7,16.8,9.9,29.3c-0.5,7.3-0.1,14.7-0.1,22H563c0-7.7,0.4-14.9-0.1-22
			c-0.9-13.3,2.7-23.6,11.4-30.6c5.5-4.4,12.4-6.6,19.4-6.5C593.8,17.2,593.8,17.2,593.8,17.2z"/>
		<path class="st0" d="M197.7,17.2c-17.8,6.1-25.2,18.7-23.9,37.2c0.5,7.1,0.1,14.3,0.1,22.5c-9.3,0-18.1,0.2-26.9,0
			c-26-0.9-50.5,3.6-72.7,17.7c-31.1,19.7-49.8,47.6-55.7,84.1c-0.2,1.4-0.9,2.7-1.4,4.1c0-55.2,0-110.4,0-165.6
			C77.3,17.2,137.5,17.2,197.7,17.2z"/>
		<path class="st0" d="M587,17.2c-17.8,6.1-25.2,18.7-23.9,37.2c0.5,7.1,0.1,14.3,0.1,22c-45.2,0-90,0-135.7,0
			c0-7.3-0.4-14.7,0.1-22c1.2-18.5-6.2-31.1-23.9-37.2C464.7,17.2,525.9,17.2,587,17.2z"/>
		<path class="st0" d="M391.6,17.2c-17.8,6.1-25.2,18.7-23.9,37.2c0.5,7.1,0.1,14.3,0.1,22c-44.7,0-89,0-134.3,0
			c0-7.3-0.4-14.7,0.1-22c1.2-18.5-6.2-31.1-23.9-37.2C270.3,17.2,330.9,17.2,391.6,17.2z"/>
		<path d="M600.7,780.9c-99,0.3-180.3-80.7-180.8-180c-0.5-99.2,81.2-181,180.6-180.9c99.2,0.1,180.3,81.2,180.4,180.4
			C781,699.4,700,780.6,600.7,780.9z M600.9,479.6c-66.4-0.3-121.1,54-121.3,120.5c-0.2,66.2,53.6,120.6,119.9,121.1
			c66.4,0.6,121.2-53.6,121.7-120.1C721.7,534.7,667.5,480,600.9,479.6z"/>
		<path d="M233.4,330.1c0.2,16.4-13.3,30-29.7,30.1s-29.9-13.4-29.9-29.8c0-16.1,13.2-29.5,29.3-29.7
			C219.5,300.4,233.2,313.7,233.4,330.1z"/>
		<path d="M333.8,300.7c16.4,0.2,29.7,14,29.4,30.4c-0.3,16.4-14.2,29.6-30.6,29.2c-16.1-0.4-29.1-13.9-29-30
			C303.8,313.8,317.4,300.4,333.8,300.7z"/>
		<path d="M463.4,300.7c16.4,0.1,29.8,13.8,29.5,30.2c-0.2,16.4-14,29.7-30.4,29.3c-16.1-0.3-29.2-13.7-29.2-29.8
			C433.5,314,447,300.5,463.4,300.7z"/>
		<path d="M592.9,360.2c-16.4,0-29.9-13.6-29.7-30c0.1-16.4,13.8-29.8,30.2-29.5c16.1,0.2,29.3,13.5,29.4,29.6
			C622.8,346.7,609.3,360.2,592.9,360.2z"/>
		<path d="M233.4,460.2c0,16.4-13.6,29.9-30,29.8s-29.8-13.7-29.6-30.1c0.2-16.1,13.5-29.3,29.6-29.4
			C219.8,430.3,233.4,443.8,233.4,460.2z"/>
		<path d="M333.2,490c-16.4-0.1-29.8-13.8-29.6-30.2c0.2-16.4,14-29.7,30.3-29.4c16.1,0.3,29.2,13.7,29.2,29.8
			C363.2,476.6,349.6,490.1,333.2,490z"/>
		<path d="M233.4,590c0,16.4-13.5,29.9-29.9,29.8c-16.4-0.1-29.8-13.7-29.6-30.1c0.2-16.1,13.4-29.3,29.6-29.4
			C219.8,560.1,233.4,573.6,233.4,590z"/>
		<path d="M363.2,590.2c-0.1,16.4-13.8,29.8-30.2,29.5c-16.4-0.2-29.7-14-29.3-30.4c0.3-16.1,13.7-29.2,29.8-29.2
			C349.9,560.3,363.3,573.8,363.2,590.2z"/>
		<path class="st0" d="M600.9,479.6c66.5,0.3,120.8,55.1,120.3,121.5c-0.4,66.6-55.3,120.7-121.7,120.1
			c-66.3-0.6-120.1-54.9-119.9-121.1C479.8,533.6,534.5,479.3,600.9,479.6z M630.2,570.7c0-11.6,0.3-22-0.1-32.4
			c-0.7-16.2-13.5-28.6-29.4-28.7c-16.1-0.2-29.6,12.3-29.9,28.9c-0.5,20.8-0.4,41.7,0,62.5c0.3,16.4,12.5,28.7,28.9,29.2
			c14.9,0.4,29.8,0.4,44.7,0c16.6-0.4,29.2-13.5,29.2-29.7c0-16.1-12.5-29-29.2-29.8C639.9,570.5,635.5,570.7,630.2,570.7z"/>
		<path d="M630.2,570.7c5.3,0,9.7-0.2,14.1,0c16.6,0.7,29.2,13.6,29.2,29.8c0,16.1-12.6,29.2-29.2,29.7c-14.9,0.4-29.8,0.4-44.7,0
			c-16.3-0.5-28.6-12.8-28.9-29.2c-0.4-20.8-0.4-41.7,0-62.5c0.4-16.6,13.8-29.1,29.9-28.9c15.9,0.2,28.7,12.5,29.4,28.7
			C630.5,548.6,630.2,559,630.2,570.7z"/>
	</g>
</g>
</svg>
