<?xml version="1.0" encoding="utf-8"?>
<!-- Generator: Adobe Illustrator 25.2.1, SVG Export Plug-In . SVG Version: 6.00 Build 0)  -->
<svg version="1.1" id="Layer_1" xmlns="http://www.w3.org/2000/svg" xmlns:xlink="http://www.w3.org/1999/xlink" x="0px" y="0px"
	 viewBox="0 0 800 800" style="enable-background:new 0 0 800 800;" xml:space="preserve">
<style type="text/css">
	.st0{fill:#FEFEFE;}
	.st1{fill:#030303;}
	.st2{fill:#050505;}
	.st3{fill:#020202;}
	.st4{fill:#FDFDFD;}
	.st5{fill:#FCFCFC;}
	.st6{fill:#FAFAFA;}
	.st7{fill:#F9F9F9;}
</style>
<g>
	<g>
		<path class="st0" d="M208,592V208h384v384H208z M442.1,254.6c-0.5-0.2-0.8-0.3-1-0.4c-9.1-7.8-18.2-15.6-27.3-23.3
			c-10.1-8.6-18.2-8.6-28.2,0c-52.6,45.3-105.3,90.7-157.9,136c-5.3,4.5-7.8,9.9-7.8,16.9c0.1,58.8,0.1,117.5,0.1,176.3
			c0,11,8.9,19.9,19.9,19.9h319.7c12.6,0,19.9-7.3,19.9-20c0-58.6,0-117.3,0.1-175.9c0-7.1-2.4-12.7-7.9-17.3
			c-9.7-8.1-19.2-16.4-28.6-24.7c-1.4-1.2-2.6-3.1-3.1-4.8c-5.9-21.7-11.7-43.5-17.5-65.2c-3.5-13-6.9-26-10.5-38.9
			c-2.1-7.9-8.1-11.3-15.9-9.3c-3.4,0.9-6.7,2-10.1,2.7c-5.1,1-9.5,3.4-13.7,6.4C462.3,240.3,452.2,247.4,442.1,254.6z M572,333
			c4.3,0.2,6.5-1.4,7.3-4.6c0.7-3-0.4-5.8-3.4-6.7c-8.2-2.5-16.5-4.7-24.8-6.7c-3.2-0.8-5.5,1.2-6.4,4.4c-0.9,3.1,0.3,5.8,3.2,6.7
			C556.1,328.8,564.5,330.9,572,333z M545.7,291.2c7.7-2.1,16.3-4.3,24.8-7.1c3-0.9,3.7-4,2.8-6.9c-0.9-3-3.3-4.8-6.3-4.1
			c-8.3,2-16.6,4.2-24.8,6.7c-3,0.9-4.1,3.5-3.5,6.6C539.4,289.6,541.5,291,545.7,291.2z M528.6,256.2c1.7,1.2,4,1.5,5.8,0.5
			c0.3-0.1,0.5-0.3,0.7-0.5c6.2-6,12.3-12,18.2-18.2c2.3-2.4,1.9-5.4-0.5-7.7c-2.3-2.3-5.4-2.7-7.8-0.5c-6.2,5.8-12.2,11.8-17.9,18
			c-1.2,1.3-1.4,4.4-0.7,6.1C526.8,254.8,527.7,255.6,528.6,256.2z"/>
		<path class="st1" d="M442.1,254.6c10.2-7.3,20.3-14.3,30.2-21.6c4.2-3.1,8.6-5.4,13.7-6.4c3.4-0.7,6.7-1.9,10.1-2.7
			c7.9-2,13.8,1.5,15.9,9.3c3.5,13,7,25.9,10.5,38.9c5.8,21.8,11.6,43.5,17.5,65.2c0.5,1.8,1.7,3.6,3.1,4.8
			c9.5,8.3,19,16.6,28.6,24.7c5.5,4.6,7.9,10.2,7.9,17.3c-0.1,58.6-0.1,117.3-0.1,175.9c0,12.8-7.2,20-19.9,20
			c-106.6,0-213.1,0-319.7,0c-12.7,0-19.9-7.2-19.9-19.9c0-58.8,0-117.5-0.1-176.3c0-7,2.5-12.4,7.8-16.9
			c52.7-45.3,105.3-90.7,157.9-136c10-8.6,18.1-8.6,28.2,0c9.1,7.8,18.2,15.6,27.3,23.3C441.3,254.4,441.6,254.4,442.1,254.6z
			 M350.9,467.4c0.7-0.5,1.3-0.8,1.7-1.2c11.5-9.2,23-18.4,34.5-27.6c8.2-6.6,16.6-6.7,24.8-0.2c11.1,8.9,22.2,17.8,33.3,26.6
			c1,0.8,2.1,1.6,3.2,2.4c38.4-30.8,76.6-61.3,114.8-91.9c-7.5-6.4-14.5-12.5-21.7-18.7c-2.4,3.7-5.9,5.4-9.9,6.3
			c-4.1,0.9-8.1,2.3-12.3,3.3c-1.9,0.5-4,0.9-5.9,0.7c-26.4-2.5-52.9-5.2-79.3-7.7c-6.3-0.6-12.5-1.1-19.1-1.7
			c3.5,13.2,6.9,26,10.3,38.7c1.4,5.2,1.3,10.1-1.4,14.8c-3.8,6.4-9.5,9.5-16.9,9c-7.9-0.6-13.3-4.9-15.7-12.4
			c-2.6-8.2-4.6-16.5-6.8-24.8c-1.5-5.5-3-10.9-4.5-16.4c-10.5,2.7-16.3,3.2-21.9,2c-16.4-3.5-28.3-17-29-32.8
			c-0.8-16.9,10-32.2,26.3-37.1c3.9-1.2,7.9-2.2,11.9-3.2c26.5-6.6,26.5-6.5,48.8-22.5c5-3.6,10.1-7.2,15.4-11
			c-9-7.7-17.7-15.2-26.4-22.6c-4.7-4-6.6-4-11.3,0.1c-50,43.1-100,86.2-150,129.2c-2.6,2.2-5.2,4.5-7.9,6.9
			C274.6,406.4,312.7,436.9,350.9,467.4z M244.9,567.7c103.4,0,206.2,0,309.4,0c-1.5-1.2-2.6-2.1-3.6-2.9
			c-48.2-38.6-96.4-77.1-144.6-115.7c-5.7-4.6-7.2-4.6-12.9,0c-23.3,18.6-46.5,37.2-69.8,55.9C297.4,525.7,271.4,546.5,244.9,567.7z
			 M232.2,387.9c0,58.5,0,116.4,0,174.7c36.6-29.3,72.8-58.2,109.2-87.3C304.9,446,268.8,417.1,232.2,387.9z M567.3,387.8
			c-36.7,29.4-72.9,58.3-109.3,87.4c36.6,29.2,72.7,58.2,109.3,87.4C567.3,504.1,567.3,446.3,567.3,387.8z M477.7,244.3
			c-0.7,0.3-1,0.3-1.2,0.4c-23.3,16.7-46.6,33.3-69.9,49.9c-1.7,1.2-1.6,2.3-1.2,4c3.9,14.1,7.8,28.3,11.3,42.5c1,4,2.8,4.9,6.5,5.3
			c20,1.8,39.9,3.8,59.9,5.7c7.9,0.8,15.8,1.5,24.1,2.3C497.4,317.5,487.6,281,477.7,244.3z M393.7,300.9
			c-12.2,3.3-23.9,6.2-35.5,9.6c-11.2,3.3-18,13.9-16.8,25.6c1.1,11,10.1,20.4,21.5,20.8c5.8,0.2,11.7-1.5,17.5-2.9
			c8.6-2,17-4.5,25.8-6.8C401.9,331.6,397.8,316.4,393.7,300.9z M488.5,238.3c10.4,38.7,20.7,77.2,31,115.7
			c4.1-1.1,7.7-2.2,11.5-3.2c-10.4-38.8-20.7-77.1-31-115.6C496,236.3,492.4,237.2,488.5,238.3z M391.9,363.4
			c1.1,4.3,2.2,8.3,3.3,12.4c2.5,9.2,5,18.5,7.4,27.7c0.8,2.9,2.7,4.9,5.5,4.7c1.9-0.1,4.2-1.5,5.4-3.1c0.9-1.2,0.8-3.6,0.4-5.3
			c-2.6-10.1-5.3-20.2-8-30.2c-0.8-3.1-1.7-6.1-2.5-9.3C399.3,361.4,395.8,362.4,391.9,363.4z"/>
		<path class="st2" d="M572,333c-7.5-2.1-15.9-4.2-24.2-6.8c-2.9-0.9-4.1-3.7-3.2-6.7c0.9-3.1,3.3-5.1,6.4-4.4
			c8.3,2,16.6,4.2,24.8,6.7c3,0.9,4.1,3.7,3.4,6.7C578.5,331.6,576.3,333.2,572,333z"/>
		<path class="st2" d="M547.5,290.7c-1.6,0.4-3.3,0.5-4.8,0c-2.1-0.7-3.4-2-3.9-4.3c-0.6-3.1,0.5-5.7,3.5-6.6
			c8.2-2.5,16.5-4.7,24.8-6.7c3-0.7,5.4,1.1,6.3,4.1c0.9,2.9,0.1,6-2.8,6.9C562.7,286.7,554.7,288.8,547.5,290.7z"/>
		<path class="st3" d="M534.2,256.9c-1.9,0.8-4,0.5-5.7-0.7c-0.9-0.7-1.7-1.4-2-2.2c-0.7-1.7-0.5-4.8,0.7-6.1
			c5.7-6.2,11.7-12.2,17.9-18c2.4-2.2,5.4-1.9,7.8,0.5c2.3,2.3,2.7,5.3,0.5,7.7c-5.9,6.2-12.1,12.2-18.2,18.2
			C534.9,256.5,534.6,256.7,534.2,256.9z"/>
		<path class="st4" d="M350.9,467.4c-38.2-30.5-76.3-61.1-114.9-91.8c2.8-2.4,5.3-4.7,7.9-6.9c50-43.1,100-86.2,150-129.2
			c4.7-4,6.6-4.1,11.3-0.1c8.7,7.5,17.4,14.9,26.4,22.6c-5.3,3.8-10.4,7.5-15.4,11c-22.3,15.9-22.3,15.9-48.8,22.5
			c-4,1-8,2-11.9,3.2c-16.3,4.9-27,20.2-26.3,37.1c0.7,15.8,12.6,29.3,29,32.8c5.5,1.2,11.4,0.7,21.9-2c1.5,5.4,3,10.9,4.5,16.4
			c2.3,8.3,4.2,16.6,6.8,24.8c2.4,7.5,7.8,11.8,15.7,12.4c7.3,0.5,13.1-2.6,16.9-9c2.8-4.7,2.8-9.7,1.4-14.8
			c-3.4-12.7-6.8-25.5-10.3-38.7c6.6,0.6,12.8,1.1,19.1,1.7c26.4,2.6,52.9,5.2,79.3,7.7c1.9,0.2,4-0.2,5.9-0.7
			c4.1-1,8.1-2.4,12.3-3.3c4.1-0.9,7.5-2.6,9.9-6.3c7.2,6.2,14.3,12.3,21.7,18.7c-38.3,30.6-76.4,61.2-114.8,91.9
			c-1.1-0.8-2.2-1.6-3.2-2.4c-11.1-8.9-22.2-17.8-33.3-26.6c-8.2-6.5-16.6-6.4-24.8,0.2c-11.5,9.2-23,18.4-34.5,27.6
			C352.2,466.6,351.7,466.9,350.9,467.4z"/>
		<path class="st4" d="M244.9,567.7c26.5-21.2,52.5-42,78.5-62.8c23.3-18.6,46.5-37.2,69.8-55.9c5.7-4.6,7.2-4.6,12.9,0
			c48.2,38.6,96.4,77.1,144.6,115.7c1.1,0.9,2.1,1.7,3.6,2.9C451.1,567.7,348.4,567.7,244.9,567.7z"/>
		<path class="st4" d="M232.2,387.9c36.5,29.2,72.7,58.2,109.2,87.3c-36.4,29.2-72.6,58.1-109.2,87.3
			C232.2,504.2,232.2,446.3,232.2,387.9z"/>
		<path class="st4" d="M567.3,387.8c0,58.5,0,116.4,0,174.9c-36.6-29.3-72.7-58.2-109.3-87.4C494.4,446.1,530.6,417.1,567.3,387.8z"
			/>
		<path class="st4" d="M477.7,244.3c9.9,36.8,19.6,73.2,29.5,110.2c-8.3-0.8-16.2-1.5-24.1-2.3c-20-1.9-39.9-4-59.9-5.7
			c-3.7-0.3-5.5-1.3-6.5-5.3c-3.4-14.3-7.4-28.4-11.3-42.5c-0.5-1.8-0.5-2.8,1.2-4c23.3-16.6,46.6-33.3,69.9-49.9
			C476.8,244.6,477,244.5,477.7,244.3z"/>
		<path class="st5" d="M393.7,300.9c4.1,15.4,8.2,30.7,12.4,46.3c-8.8,2.3-17.2,4.8-25.8,6.8c-5.8,1.4-11.7,3.1-17.5,2.9
			c-11.3-0.4-20.4-9.8-21.5-20.8c-1.2-11.7,5.6-22.3,16.8-25.6C369.7,307.1,381.4,304.2,393.7,300.9z"/>
		<path class="st6" d="M488.5,238.3c3.9-1,7.5-2,11.6-3.1c10.3,38.5,20.6,76.8,31,115.6c-3.8,1.1-7.5,2.1-11.5,3.2
			C509.2,315.5,498.9,277,488.5,238.3z"/>
		<path class="st7" d="M391.9,363.4c3.9-1.1,7.4-2,11.5-3.1c0.9,3.2,1.7,6.3,2.5,9.3c2.7,10.1,5.5,20.1,8,30.2
			c0.4,1.7,0.5,4.1-0.4,5.3c-1.2,1.5-3.5,2.9-5.4,3.1c-2.8,0.2-4.7-1.8-5.5-4.7c-2.5-9.2-5-18.5-7.4-27.7
			C394.1,371.8,393,367.7,391.9,363.4z"/>
	</g>
</g>
</svg>
