<?xml version="1.0" encoding="utf-8"?>
<!-- Generator: Adobe Illustrator 25.2.1, SVG Export Plug-In . SVG Version: 6.00 Build 0)  -->
<svg version="1.1" id="Layer_1" xmlns="http://www.w3.org/2000/svg" xmlns:xlink="http://www.w3.org/1999/xlink" x="0px" y="0px"
	 viewBox="0 0 800 800" style="enable-background:new 0 0 800 800;" xml:space="preserve">
<style type="text/css">
	.st0{fill:#FFFFFF;}
</style>
<g>
	<g>
		<path d="M561.1,592H359.4c-3.9,0-7.8-0.6-11.4-2c-0.7-0.2-1.3-0.5-1.9-0.8c-10.9-5.3-16.9-14-17.5-26.2c-0.2-5.3,0-10.6,0-16.1
			c-2.2,0-3.7,0-5.1,0c-26.8,0-53.6,0-80.4,0c-19.5,0-28.4-6-34.4-24.2c-0.1-0.5-0.2-1.2-0.3-1.7c0-94.8-0.2-189.3-0.2-284
			c0-1.5,0.3-3,0.7-4.5l0,0c3.5-14.5,15-23.7,30-23.8c74.5,0,149,0,223.5,0c6,0,8.7,2.6,8.7,8.6c0.1,13.2,0,26.4,0.1,39.7
			c0,1.3,0,2.6,0,4.2c2.1,0,3.5,0,5,0c27.5,0,54.9,0,82.4,0c20.5,0,33,12.4,33,32.8c0,47.2,0,94.3,0,141.5c0,41.8,0,83.6,0,125.4
			c0,13.3-6.1,22.8-18.1,28.6c-0.3,0.2-0.7,0.3-1,0.4C568.8,591.3,564.9,592,561.1,592z M343.4,276.2c0,1.8,0,3.3,0,4.7v278.4
			c0,9.7,7.9,17.6,17.6,17.6h197.6c12.2,0,17.9-5.8,17.8-18.2c0-88.1,0-176.2,0-264.4c0.1-12.4-5.6-18.2-17.8-18.2
			c-70.2,0-140.5,0-210.7,0C346.6,276.2,345.3,276.2,343.4,276.2z M424.2,224.3c0-0.2-0.1-0.4-0.1-0.6c-0.8,0-1.7,0-2.5,0
			c-60.8,0-121.5,0-182.3,0c-10.2,0-16.2,6.3-16.2,16.8v274.3c0,9.4,7.7,17.1,17.1,17.1h83.9c1.3,0,2.6,0,4.4,0c0-2.1,0-3.7,0-5.3
			c0-85,0-169.9,0-254.9c0-7.3,0.7-8.3,7.5-11.1c20.5-8.4,41-16.8,61.5-25.3C406.4,231.7,415.3,228,424.2,224.3z M456,227.5
			c-27.1,11.2-53.6,22.1-80.1,33c0.1,0.3,0,0.2,0.1,0.5h80V227.5z"/>
		<path class="st0" d="M565.9,592c2.5-0.8,5-1.4,7.3-2.5c12-5.7,18.1-15.3,18.1-28.6c0.1-41.8,0-83.6,0-125.4c0-47.2,0-94.3,0-141.5
			c0-20.4-12.5-32.8-33-32.8c-27.5,0-54.9,0-82.4,0c-1.5,0-3,0-5,0c0-1.6,0-2.9,0-4.2c0-13.2,0-26.4-0.1-39.7c0-6-2.7-8.6-8.7-8.6
			c-74.5,0-149,0-223.5,0c-15,0-26.5,9.3-30,23.8c-0.1,0.6-0.5,1.1-0.7,1.7c0-8.7,0-17.5,0-26.2h384v384H565.9z"/>
		<path class="st0" d="M343.3,276.2c1.8,0,3.2,0,4.5,0h210.6c9.9,0,17.9,8,17.9,17.9V559c0,12.2-5.7,17.9-17.8,17.9H360.9
			c-9.7,0-17.6-7.9-17.6-17.6V280.9C343.3,279.5,343.3,278.1,343.3,276.2z M459.9,404.1c27.9,0,55.9,0,83.8,0
			c9.1,0,10.9-3.8,9.6-15.6c0-24.7,0-49.2,0-73.9c1.4-11.6-0.5-15.6-9.3-15.6c-56.1,0-112.3,0-168.4,0c-8,0-10.1,2.9-9.7,12
			c0,26.9,0,53.8,0,80.7c-0.5,9.5,1.5,12.5,9.7,12.5C403.8,404.1,431.9,404.1,459.9,404.1z M459.9,539.5c-27.8,0-55.6,0-83.5,0
			c-1.2,0-2.5,0-3.7,0.1c-3.6,0.3-6.3,3-6.7,6.5c-0.4,3.5,1.5,6.8,5,7.8c1.8,0.5,3.7,0.6,5.5,0.6c55.5,0,111,0,166.6,0
			c1.2,0,2.5,0.1,3.7-0.1c3.1-0.4,5.4-1.9,6.5-4.9c1.9-5.2-1.8-9.9-8-9.9C516.8,539.5,488.3,539.5,459.9,539.5z M460,441.6
			c27.7,0,55.4,0,83.1,0c1.4,0,2.8,0.1,4.1-0.1c3.5-0.4,6.2-3.2,6.6-6.6c0.4-3.3-1.8-6.7-5.2-7.7c-1.5-0.4-3.2-0.5-4.8-0.5
			c-55.9,0-111.8,0-167.7,0c-1.7,0-3.5,0.1-5.2,0.6c-3.4,1.1-5.3,4.3-4.9,7.9c0.4,3.3,3,5.9,6.4,6.4c1.4,0.2,2.7,0.1,4.1,0.1
			C404.3,441.6,432.1,441.6,460,441.6z M459.9,479.2c27.6,0,55.1,0,82.7,0c1.5,0,3,0,4.5-0.1c3.7-0.4,6.4-3.3,6.6-7
			c0.2-3.5-2.3-6.8-5.9-7.6c-1.3-0.3-2.7-0.3-4.1-0.3c-55.9,0-111.8,0-167.7,0c-1.6,0-3.3,0.1-4.8,0.5c-3.4,0.9-5.5,4.1-5.3,7.6
			c0.2,3.4,2.7,6.1,6,6.7c1.6,0.2,3.2,0.2,4.9,0.2C404.5,479.2,432.2,479.2,459.9,479.2z M459.8,501.9c-27.7,0-55.4,0-83.1,0
			c-1.5,0-3,0-4.5,0.2c-3.6,0.5-6.1,3.3-6.3,6.8c-0.2,3.6,1.9,6.7,5.4,7.6c1.8,0.4,3.7,0.5,5.6,0.5c55.3,0,110.5,0,165.8,0
			c1.4,0,2.8,0,4.1-0.1c4.2-0.5,7-3.6,7-7.5c0-4-3.1-7-7.5-7.3c-1.2-0.1-2.5,0-3.7,0C515,501.9,487.4,501.9,459.8,501.9z"/>
		<path class="st0" d="M424.1,224.3c-8.9,3.7-17.8,7.4-26.7,11.1c-20.5,8.4-41,16.9-61.5,25.3c-6.8,2.8-7.5,3.8-7.5,11.1
			c0,85,0,169.9,0,254.9c0,1.6,0,3.2,0,5.3c-1.7,0-3.1,0-4.4,0h-83.9c-9.4,0-17.1-7.7-17.1-17.1V240.6c0-10.6,6-16.8,16.2-16.8
			c60.8,0,121.5,0,182.3,0c0.8,0,1.7,0,2.5,0C424,223.9,424.1,224.1,424.1,224.3z"/>
		<path class="st0" d="M455.9,227.5V261c-26.7,0-53.3,0-79.9,0c-0.1-0.2-0.2-0.3-0.2-0.5C402.3,249.6,428.8,238.6,455.9,227.5z"/>
		<path d="M459.9,404.1c-28.1,0-56.1,0-84.2,0c-8.2,0-10.3-2.9-9.7-12.5c0-26.9,0-53.8,0-80.7c-0.4-9.1,1.6-12,9.7-12
			c56.1,0,112.3,0,168.4,0c8.6,0,10.6,3.9,9.4,14.5c0,25.4,0,50.6,0,76.1c1.1,11-0.9,14.6-9.7,14.6
			C515.8,404.1,487.9,404.1,459.9,404.1z M381.2,314.1v74.8h157.5v-74.8C486.1,314.1,433.6,314.1,381.2,314.1z"/>
		<path d="M459.9,539.5c28.4,0,56.9,0,85.3,0c6.3,0,10,4.7,8,9.9c-1.1,3-3.4,4.5-6.5,4.9c-1.2,0.2-2.5,0.1-3.7,0.1
			c-55.5,0-111,0-166.6,0c-1.8,0-3.8-0.1-5.5-0.6c-3.4-1-5.4-4.3-5-7.8s3.1-6.1,6.7-6.5c1.2-0.1,2.5-0.1,3.7-0.1
			C404.2,539.5,432,539.5,459.9,539.5z"/>
		<path d="M460,441.6c-27.8,0-55.6,0-83.5,0c-1.4,0-2.8,0.1-4.1-0.1c-3.4-0.4-6-3-6.4-6.4c-0.4-3.5,1.5-6.8,4.9-7.9
			c1.6-0.5,3.4-0.6,5.2-0.6c55.9,0,111.8,0,167.7,0c1.6,0,3.3,0.1,4.8,0.5c3.4,1,5.6,4.4,5.2,7.7c-0.4,3.5-3.1,6.2-6.6,6.6
			c-1.4,0.2-2.7,0.1-4.1,0.1C515.3,441.6,487.7,441.6,460,441.6z"/>
		<path d="M459.9,479.2c-27.7,0-55.4,0-83.1,0c-1.6,0-3.3,0-4.9-0.2c-3.4-0.5-5.8-3.3-6-6.7c-0.2-3.6,1.9-6.8,5.3-7.6
			c1.5-0.4,3.2-0.5,4.8-0.5c55.9,0,111.8,0,167.7,0c1.4,0,2.8,0,4.1,0.3c3.6,0.8,6.1,4,5.9,7.6c-0.2,3.7-2.9,6.5-6.6,7
			c-1.5,0.2-3,0.1-4.5,0.1C515.1,479.2,487.5,479.2,459.9,479.2z"/>
		<path d="M459.8,501.9c27.6,0,55.1,0,82.7,0c1.2,0,2.5,0,3.7,0c4.4,0.3,7.4,3.3,7.5,7.3c0,3.8-2.8,6.9-7,7.5
			c-1.4,0.2-2.7,0.1-4.1,0.1c-55.3,0-110.5,0-165.8,0c-1.9,0-3.8,0-5.6-0.5c-3.5-0.8-5.6-4-5.4-7.6c0.2-3.5,2.8-6.3,6.3-6.8
			c1.5-0.2,3-0.2,4.5-0.2C404.5,501.9,432.2,501.9,459.8,501.9z"/>
		<path class="st0" d="M381.2,314.1h157.5v74.8H381.2V314.1z"/>
	</g>
</g>
</svg>
