<?xml version="1.0" encoding="utf-8"?>
<!-- Generator: Adobe Illustrator 25.2.1, SVG Export Plug-In . SVG Version: 6.00 Build 0)  -->
<svg version="1.1" id="Layer_1" xmlns="http://www.w3.org/2000/svg" xmlns:xlink="http://www.w3.org/1999/xlink" x="0px" y="0px"
	 viewBox="0 0 678.9 800" style="enable-background:new 0 0 678.9 800;" xml:space="preserve">
<style type="text/css">
	.st0{fill:#FFFFFF;}
</style>
<g>
	<g>
		<path class="st0" d="M200.5,236.9c-1.6,2-2.8,3.6-4,5.1c-30.6,36.6-58,75.4-81.8,116.7c-37.6,65.6-65.6,134.5-71.3,210.9
			c-3.6,48.5,3.9,94.7,31.7,135.4c34.4,50.4,81,79.1,144.1,78.6c85.8-0.8,171.6-0.1,257.3-0.3c9.6,0,19.4-0.8,28.8-2.8
			c72.8-15.8,130-83,137.7-160.4c4.8-47.9-2.3-94.4-16.4-139.9c-25.2-81.4-68.8-152.8-120.7-219.6c-6.2-8-12.6-15.8-19.1-23.8
			c17.8-7.5,25.9-17.8,23.3-31.1c-1.1-5.6-3.9-11.4-7.4-15.9c-8-10.1-20.1-8.7-32.4-8.6c1.7-3.7,2.9-6.5,4.3-9.3
			c18.9-38,38-75.9,56.7-113.9c6.5-13.1,3.6-26.5-6.6-34.8c-10.5-8.5-23.7-8.7-35.2,0.8c-33.5,27.7-95.5,27.4-128.2-0.4
			c-11-9.4-23.8-8.9-35.3-0.2c-3.6,2.7-7.3,5.4-11.2,7.8c-29.9,19-85.8,19-117.6-7.4c-16.6-13.8-40.2-6.1-44.1,14.3
			c-1.3,6.6,0.5,14.9,3.6,21.2c18.1,37.7,37.1,75,55.7,112.5c1.4,2.7,2.6,5.5,3.6,7.7c-8.8,1.8-17.7,2.5-25.6,5.6
			c-8.7,3.5-12.8,11.8-13.9,21.2C175.2,219.6,183,229.8,200.5,236.9z"/>
		<path d="M200.5,236.9c-17.5-7.1-25.3-17.3-23.8-30.4c1-9.4,5.2-17.6,13.9-21.2c7.8-3.2,16.7-3.8,25.6-5.6c-1-2.2-2.2-5-3.6-7.7
			c-18.6-37.5-37.6-74.8-55.7-112.5c-3-6.3-4.8-14.5-3.6-21.2c3.9-20.4,27.5-28.1,44.1-14.3c31.8,26.4,87.8,26.4,117.6,7.4
			c3.8-2.4,7.5-5.1,11.2-7.8c11.5-8.6,24.3-9.1,35.3,0.2c32.7,27.8,94.7,28.1,128.2,0.4c11.5-9.5,24.7-9.3,35.2-0.8
			c10.2,8.2,13.1,21.6,6.6,34.8c-18.8,38-37.8,75.9-56.7,113.9c-1.4,2.7-2.6,5.5-4.3,9.3c12.2-0.1,24.3-1.5,32.4,8.6
			c3.6,4.5,6.4,10.3,7.4,15.9c2.5,13.3-5.5,23.6-23.3,31.1c6.4,8.1,12.9,15.9,19.1,23.8c51.9,66.8,95.5,138.2,120.7,219.6
			c14.1,45.5,21.2,92,16.4,139.9c-7.7,77.4-64.9,144.6-137.7,160.4c-9.4,2-19.2,2.8-28.8,2.8c-85.8,0.2-171.6-0.4-257.3,0.3
			c-63.1,0.6-109.7-28.2-144.1-78.6c-27.8-40.8-35.3-87-31.7-135.4c5.7-76.4,33.7-145.3,71.3-210.9c23.7-41.4,51.2-80.1,81.8-116.7
			C197.7,240.5,198.9,238.9,200.5,236.9z M343.2,728.8c42.5,0,84.9-0.6,127.4,0.2c31.8,0.6,57.7-11.6,79.6-33.2
			c27-26.6,38.5-60.1,39.6-97.2c1.4-44.5-8.5-87.1-24.5-128.4c-33.5-86.8-86.2-161.4-148-230.1c-2.2-2.5-6.9-3.8-10.4-3.8
			c-42.2-0.3-84.4-0.3-126.5,0.1c-4.1,0-9.3,2.5-12.1,5.6c-36.3,39.6-68.6,82.2-96.5,128.2c-37.9,62.4-67.5,127.9-73.7,201.9
			c-2.9,34.8,0.7,68.6,19.6,98.8c23.3,37.2,55.6,59.1,101.4,58.2C260.5,728.2,301.8,728.8,343.2,728.8z M237.6,101.1
			c13,25.6,26.1,51.4,39.6,77.1c1,1.9,5.1,3.1,7.8,3.1c39,0.2,78.1,0,117.1,0.2c4.9,0,7.6-1.4,9.8-6c10.9-22.5,22.3-44.9,33.4-67.3
			c1.6-3.2,3.1-6.4,4.9-10.2c-2.4,0-3.6-0.1-4.7,0c-34,4-66.3-1.4-96.9-17.1c-2.7-1.4-7-1-10.1,0c-13.2,4.5-25.8,11.4-39.2,13.9
			C279.4,98.5,258.8,99.1,237.6,101.1z"/>
		<path class="st0" d="M343.2,728.8c-41.3,0-82.7-0.6-124,0.2c-45.8,0.9-78.2-21-101.4-58.2c-18.9-30.2-22.5-64-19.6-98.8
			c6.2-74,35.8-139.5,73.7-201.9c27.9-45.9,60.2-88.5,96.5-128.2c2.8-3.1,8-5.5,12.1-5.6c42.2-0.4,84.3-0.3,126.5-0.1
			c3.5,0,8.2,1.4,10.4,3.8c61.8,68.6,114.4,143.3,148,230.1c15.9,41.2,25.8,83.9,24.5,128.4c-1.1,37.2-12.7,70.6-39.6,97.2
			c-21.9,21.6-47.8,33.8-79.6,33.2C428.1,728.2,385.6,728.8,343.2,728.8z M371,619.9c6-0.8,11.1-1.4,16.1-2.3
			c38-6.9,66.3-41.9,66-81.3c-0.3-38.9-29.2-74.5-67-79.3c-22.5-2.8-45.5-1.5-68.2-1.9c-16.7-0.3-28.9-11.8-28.9-27.3
			c0-15.6,12.1-27.3,28.8-27.4c16-0.1,31.9,0.4,47.9-0.1c13.9-0.4,23.9,4.4,31.1,16.7c7.8,13.3,24.4,16.9,37.3,9.1
			c12.5-7.6,16.9-23.5,9.6-36.6c-11.3-20.3-27.8-34.4-50.5-40.6c-7-1.9-14.3-2.8-22-4.3c0-8.3,0.1-16.5,0-24.8
			c-0.2-16.7-11.7-28.9-27.3-29c-15.6,0-27.2,12.1-27.4,28.7c-0.1,8.5,0,16.9,0,25.6c-2.3,0.2-3.7,0.4-5,0.5
			c-42.3,3.4-75.2,36.7-76.9,77.7c-1.8,42.5,26.9,79,69.4,84.8c21.6,2.9,43.8,1.2,65.7,1.6c16.7,0.3,28.9,11.7,29,27.3
			c0.1,15.5-12.1,27.3-28.8,27.4c-15.4,0.1-30.8-0.4-46.2,0.2c-14.8,0.6-25.6-4.1-33.3-17.5c-7.3-12.8-24.2-16-36.8-8.4
			c-12.5,7.6-16.9,23.5-9.6,36.6c11.6,20.9,28.8,35,52.2,41.1c6.5,1.7,13.2,2.4,20.4,3.7c0,8.7-0.1,17.2,0,25.7
			c0.3,16,12,28.1,27.2,28.1c15.2,0,27.1-11.9,27.4-27.9C371.2,637.6,371,629,371,619.9z"/>
		<path class="st0" d="M237.6,101.1c21.2-2,41.8-2.6,61.8-6.2c13.5-2.5,26.1-9.4,39.2-13.9c3.1-1,7.4-1.4,10.1,0
			c30.6,15.7,62.9,21,96.9,17.1c1.1-0.1,2.2,0,4.7,0c-1.9,3.9-3.4,7.1-4.9,10.2c-11.2,22.4-22.5,44.7-33.4,67.3
			c-2.2,4.5-4.9,6-9.8,6c-39-0.2-78.1,0-117.1-0.2c-2.7,0-6.8-1.2-7.8-3.1C263.7,152.5,250.7,126.6,237.6,101.1z"/>
		<path d="M371,619.9c0,9.1,0.1,17.7,0,26.2c-0.3,16-12.2,28-27.4,27.9c-15.2,0-27-12.1-27.2-28.1c-0.2-8.5,0-17,0-25.7
			c-7.1-1.3-13.9-2-20.4-3.7c-23.3-6-40.5-20.2-52.2-41.1c-7.3-13-2.9-29,9.6-36.6c12.6-7.6,29.4-4.4,36.8,8.4
			c7.7,13.4,18.5,18.1,33.3,17.5c15.4-0.6,30.8,0,46.2-0.2c16.6-0.2,28.8-11.9,28.8-27.4c-0.1-15.5-12.3-27-29-27.3
			c-21.9-0.4-44.1,1.3-65.7-1.6c-42.5-5.8-71.2-42.3-69.4-84.8c1.7-41,34.7-74.3,76.9-77.7c1.4-0.1,2.8-0.3,5-0.5
			c0-8.7-0.1-17.1,0-25.6c0.2-16.7,11.8-28.8,27.4-28.7c15.5,0,27.1,12.3,27.3,29c0.1,8.2,0,16.5,0,24.8c7.7,1.5,15,2.3,22,4.3
			c22.7,6.2,39.2,20.3,50.5,40.6c7.3,13.1,2.9,29-9.6,36.6c-12.9,7.8-29.5,4.2-37.3-9.1c-7.2-12.3-17.2-17.2-31.1-16.7
			c-15.9,0.5-31.9,0-47.9,0.1c-16.7,0.1-28.8,11.8-28.8,27.4c0,15.5,12.3,27,28.9,27.3c22.8,0.5,45.8-0.9,68.2,1.9
			c37.8,4.8,66.6,40.4,67,79.3c0.3,39.4-28.1,74.4-66,81.3C382.1,618.5,377,619.1,371,619.9z"/>
	</g>
</g>
</svg>
