<?xml version="1.0" encoding="utf-8"?>
<!-- Generator: Adobe Illustrator 25.2.1, SVG Export Plug-In . SVG Version: 6.00 Build 0)  -->
<svg version="1.1" id="Layer_1" xmlns="http://www.w3.org/2000/svg" xmlns:xlink="http://www.w3.org/1999/xlink" x="0px" y="0px"
	 viewBox="0 0 800 800" style="enable-background:new 0 0 800 800;" xml:space="preserve">
<style type="text/css">
	.st0{fill:#FEFEFE;}
	.st1{fill:#030303;}
	.st2{fill:#010101;}
	.st3{fill:#070707;}
	.st4{fill:#FAFAFA;}
</style>
<g>
	<g>
		<path class="st0" d="M307.6,592c-33.2,0-66.4,0-99.6,0c0-128,0-256,0-384c128,0,255.9,0,384,0c0,128,0,256,0,384
			c-33.3,0-66.8,0-100.2,0c4.6-3.1,6.1-6.1,4.9-9.7c-1.2-3.8-4-5.3-9.6-5.3c-6.6,0-13.1,0-19.8,0c0-18.1,0-35.9,0-53.6
			c0.3-0.2,0.4-0.3,0.5-0.3c12,0,24,0,35.9-0.1c13.6-0.1,23.3-9.7,23.3-23.4c0-89.2,0-178.4,0-267.6c0-13.9-9.6-23.4-23.6-23.4
			c-69.1,0-138.3,0-207.4,0c-14,0-23.6,9.6-23.6,23.4c0,89.2,0,178.4,0,267.6c0,13.7,9.7,23.3,23.3,23.3c11.1,0,22.2,0,33.3,0
			c1.1,0,2.1,0.1,3,0.2c0,18.1,0,35.9,0,53.7c-7.5,0-14.7-0.1-22,0c-5.4,0.1-9.2,5-7.3,9.6C303.7,588.7,305.9,590.2,307.6,592z"/>
		<path d="M312.1,592c-3.3,0-6.4-1.4-8.4-3.9c-0.4-0.5-0.7-1-0.9-1.5c-2-4.6,1.9-9.5,7.3-9.6c7.2-0.1,14.5,0,22,0v-53.7
			c-0.9,0-1.9-0.2-3-0.2c-11.1,0-22.2,0-33.3,0c-13.6-0.1-23.3-9.7-23.3-23.3c0-89.2,0-178.4,0-267.6c0-14,9.7-23.5,23.8-23.4
			c69,0,138,0,207,0c14.1-0.1,23.8,9.4,23.8,23.4c0,89.2,0,178.4,0,267.6c0,13.7-9.7,23.3-23.3,23.4c-12,0.1-24,0-35.9,0.1
			c-0.1,0-0.2,0.1-0.5,0.3c0,17.7,0,35.4,0,53.6c6.6,0,13.2,0,19.8,0c5.7,0,8.4,1.5,9.6,5.3c0.8,2.2,0.4,4.3-1,6.2
			c-1.7,2.3-4.5,3.5-7.3,3.5C429.6,592,370.9,592,312.1,592z M287.4,365.9c0,43.9,0,87.8,0,131.7c0,8.3,2.2,10.5,10.3,10.5
			c67.9,0,135.7,0,203.6,0c8.5,0,10.7-2.1,10.7-10.5c0-87.8,0-175.6,0-263.5c0-8.3-2.2-10.5-10.3-10.5c-68,0-136,0-204,0
			c-8,0-10.3,2.3-10.3,10.2C287.4,277.8,287.4,321.9,287.4,365.9z M347.5,523.2v53.6H452v-53.6H347.5z"/>
		<path class="st0" d="M287.4,365.9c0-44,0-88.1,0-132.1c0-7.9,2.3-10.2,10.3-10.2c68,0,136,0,204,0c8.2,0,10.3,2.2,10.3,10.5
			c0,87.8,0,175.6,0,263.5c0,8.4-2.1,10.5-10.7,10.5c-67.9,0-135.7,0-203.6,0c-8.1,0-10.3-2.2-10.3-10.5
			C287.4,453.7,287.4,409.8,287.4,365.9z M497,365.9c0-39,0-78.1,0-117.1c0-7.7-2.3-10.1-10-10.1c-58.1,0-116.3,0-174.4,0
			c-8,0-10.3,2.3-10.3,10.2c0,78,0,155.9,0,233.9c0,8.3,2.2,10.5,10.3,10.5c58,0,116,0,174.1,0c8,0,10.3-2.3,10.3-10.2
			C497,444,497,404.9,497,365.9z"/>
		<path class="st0" d="M347.5,523.2c34.9,0,69.6,0,104.5,0c0,17.9,0,35.6,0,53.6c-34.8,0-69.5,0-104.5,0
			C347.5,559,347.5,541.3,347.5,523.2z"/>
		<path d="M497,365.9c0,39,0,78.1,0,117.1c0,7.9-2.3,10.2-10.3,10.2c-58,0-116,0-174.1,0c-8.2,0-10.3-2.2-10.3-10.5
			c0-78,0-155.9,0-233.9c0-7.9,2.3-10.2,10.3-10.2c58.1,0,116.3,0,174.4,0c7.7,0,10,2.4,10,10.1C497,287.8,497,326.8,497,365.9z
			 M481.8,478.1c0-75,0-149.7,0-224.3c-54.9,0-109.6,0-164.3,0c0,74.9,0,149.6,0,224.3C372.4,478.1,427,478.1,481.8,478.1z"/>
		<path class="st0" d="M481.8,478.1c-54.8,0-109.5,0-164.3,0c0-74.8,0-149.4,0-224.3c54.7,0,109.4,0,164.3,0
			C481.8,328.4,481.8,403.1,481.8,478.1z M365.9,356.8c-0.3,7.2,5.4,10.9,11.2,8c6.8-3.4,13.5-6.9,20.1-10.6
			c1.9-1.1,3.3-0.9,5.1,0.1c6.1,3.3,12.3,6.5,18.5,9.8c3.3,1.8,6.5,2.7,9.8,0.3c3.3-2.5,3.2-5.9,2.6-9.5c-1.2-6.5-2.2-13-3.5-19.5
			c-0.5-2.7-0.1-4.6,2.1-6.5c5.3-4.8,10.2-9.9,15.3-14.8c2.3-2.3,3.5-4.9,2.5-8.1c-1.1-3.3-3.5-4.9-6.9-5.4
			c-6.9-0.9-13.8-2.1-20.7-2.9c-2.8-0.3-4.6-1.4-5.8-4.1c-2.7-6.1-5.9-12-8.8-18.1c-1.5-3.3-3.6-5.7-7.5-5.8c-3.9,0-6,2.3-7.6,5.6
			c-2.9,6.2-6.2,12.2-8.9,18.4c-1.2,2.7-3,3.5-5.6,3.9c-6.8,0.9-13.5,2.1-20.3,2.9c-3.6,0.4-6.2,1.8-7.4,5.3
			c-1.2,3.5,0.3,6.2,2.8,8.7c4.8,4.6,9.3,9.4,14.3,13.7c2.7,2.4,3.3,4.7,2.6,8.1C368.1,343.4,367,350.6,365.9,356.8z M414.7,418.3
			c9.5,0,18.9,0,28.4,0c5.5,0,8.9-2.8,9-7.3c0.1-4.6-3.4-7.7-9-7.7c-18.9,0-37.9,0-56.8,0c-5.5,0-8.9,2.8-9,7.3
			c-0.1,4.7,3.4,7.7,9,7.7C395.7,418.3,405.2,418.3,414.7,418.3z M414.7,433.3c-9.5,0-18.9,0-28.4,0c-5.6,0-9.1,3-9,7.6
			c0.1,4.5,3.5,7.3,9,7.3c18.9,0,37.9,0,56.8,0c5.6,0,9.1-3,9-7.6c-0.1-4.5-3.5-7.3-9-7.3C433.6,433.3,424.2,433.3,414.7,433.3z
			 M354.9,403.3c-4-0.1-7.4,3.2-7.6,7.2c-0.2,4.1,3.2,7.7,7.4,7.8c4.2,0.1,7.6-3.4,7.6-7.5C362.2,406.7,358.9,403.4,354.9,403.3z
			 M354.6,433.3c-4,0.1-7.3,3.5-7.3,7.5c0,4.2,3.5,7.6,7.7,7.5c4-0.1,7.3-3.5,7.3-7.5C362.2,436.6,358.7,433.2,354.6,433.3z"/>
		<path class="st1" d="M365.9,356.8c1.1-6.3,2.2-13.4,3.6-20.5c0.7-3.4,0.1-5.7-2.6-8.1c-5-4.3-9.5-9.2-14.3-13.7
			c-2.5-2.4-4-5.1-2.8-8.7c1.2-3.5,3.9-4.8,7.4-5.3c6.8-0.8,13.6-2,20.3-2.9c2.6-0.4,4.4-1.2,5.6-3.9c2.7-6.3,6-12.3,8.9-18.4
			c1.6-3.3,3.7-5.7,7.6-5.6c3.9,0,5.9,2.5,7.5,5.8c2.9,6.1,6.1,12,8.8,18.1c1.2,2.8,3,3.8,5.8,4.1c6.9,0.8,13.8,2,20.7,2.9
			c3.4,0.5,5.9,2.1,6.9,5.4c1,3.2-0.1,5.8-2.5,8.1c-5.1,4.9-10.1,10-15.3,14.8c-2.1,1.9-2.6,3.8-2.1,6.5c1.3,6.5,2.3,13,3.5,19.5
			c0.6,3.6,0.7,7-2.6,9.5c-3.3,2.4-6.5,1.5-9.8-0.3c-6.1-3.3-12.3-6.4-18.5-9.8c-1.8-1-3.2-1.1-5.1-0.1c-6.6,3.7-13.3,7.2-20.1,10.6
			C371.3,367.8,365.6,364.1,365.9,356.8z M399.7,294.2c-2.2,4.3-4.1,8-5.9,11.8c-1.5,3.2-3.7,5.1-7.4,5.5c-4.3,0.5-8.5,1.3-12.8,2
			c2.7,2.9,5.1,5.9,7.9,8.2c3.9,3.2,4.7,7.1,3.6,11.7c-0.8,3.6-1.3,7.2-2,11.3c4.2-2.2,7.9-3.9,11.5-6c3.4-2,6.5-1.9,9.9-0.1
			c3.6,2,7.4,3.9,11.5,6c-0.8-4.7-1.4-8.9-2.2-13.1c-0.7-3.6,0.3-6.5,3.1-9c3-2.8,5.9-5.8,9.1-9.1c-4.9-0.7-9.2-1.5-13.5-2
			c-3.3-0.4-5.5-2.2-6.9-5.1C403.8,302.5,401.9,298.6,399.7,294.2z"/>
		<path class="st2" d="M414.7,418.3c-9.5,0-18.9,0-28.4,0c-5.6,0-9.1-3-9-7.7c0.1-4.5,3.5-7.3,9-7.3c18.9,0,37.9,0,56.8,0
			c5.6,0,9.1,3,9,7.7c-0.1,4.5-3.5,7.3-9,7.3C433.6,418.3,424.1,418.3,414.7,418.3z"/>
		<path class="st2" d="M414.7,433.3c9.5,0,18.9,0,28.4,0c5.5,0,8.9,2.8,9,7.3c0.1,4.6-3.4,7.6-9,7.6c-18.9,0-37.9,0-56.8,0
			c-5.5,0-8.9-2.8-9-7.3c-0.1-4.7,3.4-7.6,9-7.6C395.7,433.3,405.2,433.3,414.7,433.3z"/>
		<path class="st3" d="M354.9,403.3c4,0.1,7.3,3.4,7.4,7.4c0,4.2-3.4,7.6-7.6,7.5c-4.1-0.1-7.5-3.6-7.4-7.8
			C347.4,406.5,350.9,403.3,354.9,403.3z"/>
		<path class="st3" d="M354.6,433.3c4.2-0.1,7.7,3.3,7.7,7.5c0,4-3.3,7.4-7.3,7.5c-4.1,0.1-7.7-3.3-7.7-7.5
			C347.3,436.8,350.6,433.4,354.6,433.3z"/>
		<path class="st4" d="M399.7,294.2c2.2,4.5,4.1,8.3,6,12.2c1.4,2.9,3.6,4.6,6.9,5.1c4.3,0.5,8.6,1.3,13.5,2
			c-3.3,3.3-6.1,6.3-9.1,9.1c-2.7,2.5-3.8,5.4-3.1,9c0.8,4.1,1.4,8.3,2.2,13.1c-4.1-2.1-7.9-4-11.5-6c-3.4-1.9-6.5-1.9-9.9,0.1
			c-3.5,2-7.2,3.8-11.5,6c0.7-4.1,1.2-7.8,2-11.3c1-4.7,0.2-8.5-3.6-11.7c-2.8-2.4-5.2-5.3-7.9-8.2c4.3-0.7,8.5-1.5,12.8-2
			c3.6-0.4,5.9-2.3,7.4-5.5C395.6,302.2,397.5,298.5,399.7,294.2z"/>
	</g>
</g>
</svg>
