<?xml version="1.0" encoding="utf-8"?>
<!-- Generator: Adobe Illustrator 25.2.1, SVG Export Plug-In . SVG Version: 6.00 Build 0)  -->
<svg version="1.1" id="Layer_1" xmlns="http://www.w3.org/2000/svg" xmlns:xlink="http://www.w3.org/1999/xlink" x="0px" y="0px"
	 viewBox="0 0 800 800" style="enable-background:new 0 0 800 800;" xml:space="preserve">
<style type="text/css">
	.st0{fill:#FFFFFF;}
		path{
		fill:#5bdb90
	}
</style>
<g>
	<g>
		<path class="st0" d="M208,565.2c0-119,0-238.1,0-357.2c128,0,255.9,0,384,0c0,127.9,0,255.9,0,384c-127.9,0-256,0-384,0
			c0-7.1,0-14.3,0-21.6c3.7,7.5,6.6,9.1,15.1,8.7c10.6-0.4,20.6-3.3,30.1-7.9c5-2.4,10.2-4.8,15.6-5.9c13.2-2.7,25.5,0,37.6,6
			c22,11.1,44.4,10.7,66.6,0c3.4-1.6,6.7-3.5,10.2-4.6c13.1-4,26.1-3.8,38.6,2.4c9.8,4.8,19.7,8.9,30.8,9.7
			c14.5,1.1,28.3-1,41.3-7.8c7.1-3.8,14.5-6.3,22.7-6.8c10.9-0.6,21,2,30.5,7.2c10.1,5.5,21,7.7,32.4,7.7c6.6,0,11.7-4.8,11.8-11
			c0.1-6-4.4-11.4-10.6-11.3c-13,0.3-23.8-5.4-35.1-11.1c3.6-9.5,7.2-19.1,10.8-28.6c8.9-23.3,17.8-46.5,26.6-69.9
			c6.7-17.9-2-35-20.4-40.1c-6.8-1.9-13.7-3.8-20.6-5.3c-3.5-0.8-4.7-2-4.7-5.8c0.2-24,0.1-47.9,0.1-71.9
			c0-19.1-12.6-31.7-31.6-31.7c-15.2,0-30.4,0-45.7,0c-1.3,0-2.6-0.1-4.2-0.2c0-10.3,0.2-20.1,0-30c-0.4-19-13.3-36.1-31.9-39.1
			c-13.9-2.2-28.4-2.1-42.5-1.2c-22.2,1.5-37.7,19.3-38,41.6c-0.1,8.2,0,16.5,0,24.7c0,1.3,0,2.6,0,4.1c-16.8,0-33,0-49.2,0
			c-19.8,0-32.2,12.4-32.2,32.2c0,24.1-0.1,48.2,0.1,72.3c0,3-1,4.1-3.7,4.7c-6.8,1.6-13.5,3.4-20.3,5.2
			c-19.8,5.2-28.6,22.1-21.4,41.3c9.4,24.9,18.9,49.8,28.4,74.8c2.9,7.6,5.8,15.3,8.7,23c-3.9,1.9-7.6,3.5-11.1,5.3
			c-6.5,3.4-13.5,5.5-20.8,5.3C215.2,556.5,210.6,559.1,208,565.2z"/>
		<path d="M221.8,556.6c7.3,0.1,14.3-2,20.8-5.3c3.5-1.8,7.2-3.4,11.1-5.3c-2.9-7.7-5.8-15.3-8.7-23c-9.5-24.9-19-49.8-28.4-74.8
			c-7.2-19.1,1.5-36.1,21.4-41.3c6.7-1.8,13.5-3.6,20.3-5.2c2.7-0.6,3.8-1.7,3.7-4.7c-0.1-24.1-0.1-48.2-0.1-72.2
			c0-17.8,14.4-32.2,32.2-32.3c16.2,0,32.4,0,49.2,0c0-1.5,0-2.8,0-4.1c0-8.2-0.1-16.5,0-24.7c0.3-22.3,15.8-40,38-41.6
			c14.1-1,28.6-1.1,42.5,1.2c18.6,3,31.5,20.2,31.9,39.1c0.2,9.8,0,19.7,0,30c1.6,0.1,2.9,0.2,4.2,0.2c15.2,0,30.4,0,45.7,0
			c19.1,0,31.6,12.6,31.6,31.7c0,24,0.1,47.9-0.1,71.9c0,3.8,1.2,5.1,4.7,5.8c6.9,1.5,13.8,3.4,20.6,5.3c17.7,4.9,26.8,23,20.4,40.2
			c-8.8,23.3-17.7,46.5-26.5,69.8c-3.6,9.5-7.2,19.1-10.8,28.6c11.3,5.6,22.1,11.4,35.1,11.1c6.2-0.1,10.7,5.3,10.6,11.3
			c-0.1,6.2-5.2,11-11.8,11c-11.4-0.1-22.3-2.3-32.4-7.7c-9.5-5.2-19.5-7.8-30.5-7.2c-8.2,0.4-15.6,3-22.7,6.8
			c-13,6.8-26.8,8.9-41.3,7.8c-11.1-0.8-21-4.9-30.8-9.7c-12.5-6.2-25.5-6.4-38.6-2.4c-3.5,1.1-6.9,2.9-10.2,4.6
			c-22.2,10.7-44.6,11.1-66.6,0c-12.1-6.1-24.4-8.8-37.6-6c-5.4,1.1-10.6,3.5-15.6,5.9c-9.6,4.7-19.5,7.5-30.1,7.9
			c-4.7,0.2-7.7-0.2-10.1-1.9c-6.9-5-6-15.9,1.8-19.4C216.8,557,219.1,556.6,221.8,556.6z M276.3,541.9c13.3-0.7,25.7,1.9,37.3,8.1
			c17.3,9.2,34.4,8.9,51.9,0.1c22.7-11.5,45.7-11.5,68.4,0c16.3,8.2,35.5,8.6,51.7,0.1c10.5-5.5,22.2-8.7,34.1-8.2
			c2.7,0.1,3.8-0.7,4.7-3.1c12.5-33.1,25.1-66.1,37.7-99.2c2.1-5.6,0.3-9.1-5.6-10.7c-51.2-13.4-102.4-26.8-153.6-40.2
			c-1.8-0.5-4-0.5-5.8-0.1c-51.2,13.3-102.4,26.7-153.6,40.1c-6.6,1.7-8.2,5-5.8,11.4c8.5,22.5,17.1,44.9,25.6,67.4
			C267.6,519,271.9,530.4,276.3,541.9z M514.9,394.8c0-1.7,0-2.9,0-4.1c0-22,0-43.9,0-65.9c0-7.5-2.4-9.8-9.9-9.8
			c-70.2,0-140.5,0-210.7,0c-7.6,0-9.9,2.3-9.9,9.8c0,22,0,43.9,0,65.9c0,1.2,0,2.4,0,4c1.6-0.4,2.8-0.6,4-0.9
			c35.3-9.2,70.6-18.5,105.9-27.6c3.5-0.9,7.2-0.9,10.7,0c28,7.1,55.9,14.5,83.8,21.8C497.4,390.2,505.9,392.4,514.9,394.8z
			 M433.1,292.3c0.2-0.5,0.4-0.8,0.4-1.2c0-9.1,0.1-18.2,0-27.3c-0.1-11.2-8-19.4-19.2-19.7c-9.7-0.3-19.4-0.2-29.2,0
			c-9.5,0.2-18,6.7-18.7,15.6c-0.9,10.7-0.2,21.6-0.2,32.6C388.5,292.3,410.8,292.3,433.1,292.3z"/>
		<path class="st0" d="M276.3,541.9c-4.4-11.6-8.7-23-13-34.4c-8.5-22.5-17.1-44.9-25.6-67.4c-2.4-6.4-0.8-9.7,5.8-11.4
			c51.2-13.4,102.4-26.8,153.6-40.1c1.8-0.5,4-0.4,5.8,0.1c51.2,13.3,102.4,26.7,153.6,40.2c5.8,1.5,7.7,5.1,5.6,10.7
			c-12.6,33.1-25.2,66.1-37.7,99.2c-0.9,2.4-2,3.2-4.5,3.1c-12.1-0.4-23.5,2.5-34.1,8.2c-17.3,9.2-34.4,8.8-51.9,0
			c-22.6-11.4-45.6-11.4-68.3,0.1c-17.4,8.8-34.6,9.1-51.9-0.1C302,543.8,289.6,541.2,276.3,541.9z M511.9,456.4
			c0-5.8-3.6-9.8-10.7-11.6c-30.8-8.1-61.7-16-92.5-24.2c-6.1-1.6-11.8-1.6-17.9,0c-31.4,8.4-62.9,16.6-94.3,24.8
			c-4.1,1.1-6.9,3.4-8.3,7.3c-1.5,4.1-0.6,7.9,2.2,11.1c3.5,3.9,7.9,4.3,12.7,3c31.4-8.2,62.9-16.4,94.4-24.6c1.5-0.4,3.2-0.4,4.7,0
			c21.7,5.6,43.4,11.3,65.1,16.9c10.4,2.7,20.7,5.6,31.1,8C505.5,468.7,511.9,463.4,511.9,456.4z"/>
		<path class="st0" d="M514.9,394.8c-9-2.4-17.5-4.6-26.1-6.8c-28-7.3-55.9-14.7-83.9-21.8c-3.3-0.8-7.3-0.8-10.6,0
			c-35.3,9.1-70.6,18.4-105.9,27.6c-1.2,0.3-2.4,0.6-4,0.9c0-1.6,0-2.8,0-4c0-22,0-43.9,0-65.9c0-7.5,2.3-9.8,9.9-9.8
			c70.2,0,140.5,0,210.7,0c7.5,0,9.9,2.3,9.9,9.8c0,22,0,43.9,0,65.9C514.9,391.9,514.9,393.1,514.9,394.8z"/>
		<path class="st0" d="M433.1,292.3c-22.3,0-44.5,0-66.9,0c0-11-0.7-21.9,0.2-32.6c0.8-9,9.2-15.4,18.7-15.6
			c9.7-0.2,19.4-0.2,29.2,0c11.2,0.3,19.1,8.5,19.2,19.7c0.1,9.1,0,18.2,0,27.3C433.4,291.5,433.2,291.8,433.1,292.3z"/>
		<path d="M511.9,456.4c0,7-6.4,12.4-13.5,10.7c-10.4-2.4-20.8-5.3-31.1-8c-21.7-5.6-43.4-11.3-65.1-16.9c-1.5-0.4-3.2-0.4-4.7,0
			c-31.5,8.1-62.9,16.3-94.4,24.6c-4.8,1.3-9.2,0.9-12.7-3c-2.9-3.2-3.7-7-2.2-11.1c1.4-3.9,4.3-6.3,8.3-7.3
			c31.5-8.2,62.9-16.3,94.3-24.8c6.1-1.6,11.8-1.7,17.9,0c30.8,8.3,61.7,16.2,92.5,24.2C508.3,446.6,511.9,450.6,511.9,456.4z"/>
	</g>
</g>
</svg>
