<?xml version="1.0" encoding="utf-8"?>
<!-- Generator: Adobe Illustrator 25.2.1, SVG Export Plug-In . SVG Version: 6.00 Build 0)  -->
<svg version="1.1" id="Layer_1" xmlns="http://www.w3.org/2000/svg" xmlns:xlink="http://www.w3.org/1999/xlink" x="0px" y="0px"
	 viewBox="0 0 800 800" style="enable-background:new 0 0 800 800;" xml:space="preserve">
<style type="text/css">
	.st0{fill:#FEFEFE;}
	.st1{fill:#030303;}
	.st2{fill:#FCFCFC;}
</style>
<g>
	<g>
		<path class="st0" d="M579.4,466.9c0,37.5,0,75,0,112.5c-119.4,0-238.9,0-358.4,0c0-119.4,0-238.8,0-358.4c119.4,0,238.9,0,358.4,0
			c0,60,0,120.1,0,180.2c-2.8-9-9.4-13.8-17.8-16.9c-5.3-1.9-10.5-4.3-15.6-6.8c-1.8-0.9-3.6-2.5-4.5-4.3
			c-6.3-11.9-12.4-23.9-18.5-35.9c-4.3-8.5-10.6-14.8-19.9-17.3c-4.4-1.2-9.1-1.6-13.8-1.7c-10.6-0.2-21.1-0.1-32-0.1
			c0-3.1,0-5.8,0-8.6c-0.2-20.4-13.8-34.4-34.1-34.4c-55.8-0.1-111.5-0.1-167.3,0.1c-5.2,0-10.8,1.1-15.5,3.3
			c-12.8,6.1-18.6,17-18.6,31c-0.1,50.5,0,101.1,0,151.6c0,1.2,0,2.3,0.2,3.5c1.2,8.3,5.6,14.2,13.7,16.8c3.2,1,6.8,1.2,10.3,1.7
			c3.7,27,17.6,41.7,40.3,42.5c10,0.3,19.1-2.6,26.9-8.9c10.8-8.7,15.9-20.3,15.8-34.1c45.9,0,91.5,0,137.4,0
			c0,10.9,3.2,20.7,10.4,28.9c7.3,8.2,16.4,12.9,27.3,13.9c10.2,0.9,19.6-1.5,28-7.7c11.8-8.7,17.2-20.6,17.3-35.3
			c3.4,0,6.4,0,9.4,0c8.7-0.1,15.1-3.9,19-11.8C578.1,469.5,578.7,468.2,579.4,466.9z"/>
		<path class="st1" d="M579.4,466.9c-0.6,1.3-1.3,2.6-1.9,3.9c-3.9,7.9-10.4,11.6-19,11.8c-3,0.1-6,0-9.4,0
			c-0.1,14.7-5.5,26.7-17.3,35.3c-8.3,6.1-17.7,8.5-28,7.7c-10.9-1-20-5.7-27.3-13.9c-7.3-8.2-10.4-18-10.4-28.9
			c-45.8,0-91.5,0-137.4,0c0.1,13.8-4.9,25.4-15.8,34.1c-7.8,6.3-16.8,9.2-26.9,8.9c-22.7-0.8-36.6-15.5-40.3-42.5
			c-3.5-0.5-7-0.7-10.3-1.7c-8.1-2.6-12.5-8.5-13.7-16.8c-0.2-1.1-0.2-2.3-0.2-3.5c0-50.5,0-101.1,0-151.6c0-14,5.8-24.9,18.6-31
			c4.6-2.2,10.3-3.3,15.5-3.3c55.8-0.2,111.5-0.2,167.3-0.1c20.3,0,33.9,14,34.1,34.4c0,2.8,0,5.5,0,8.6c10.9,0,21.5-0.2,32,0.1
			c4.6,0.1,9.3,0.5,13.8,1.7c9.3,2.5,15.6,8.9,19.9,17.3c6.1,12,12.2,24,18.5,35.9c0.9,1.8,2.7,3.4,4.5,4.3
			c5.1,2.5,10.3,4.9,15.6,6.8c8.5,3.1,15.1,7.9,17.8,16.9C579.4,423.1,579.4,445,579.4,466.9z M237.7,405.1c68.1,0,135.8,0,203.5,0
			c0-31.9,0-63.6,0-95.2c0-12-6.7-18.7-18.9-18.7c-55.3,0-110.6,0.1-165.9-0.1c-13.1-0.1-19,9.6-18.9,18.9
			c0.3,30.9,0.1,61.7,0.1,92.6C237.7,403.4,237.7,404.2,237.7,405.1z M441,466.9c0-15.4,0-30.3,0-45.2c-67.9,0-135.6,0-203.3,0
			c0,13.5,0,26.8,0,40.1c0,3.7,1.4,5.1,5,5.2c1.4,0,2.8-0.1,4.2,0c2.3,0.3,3.4-0.7,4.6-2.6c7.9-13.9,20.1-21.1,36-21.1
			c15.8,0,27.8,7.2,35.8,20.9c1.2,2.1,2.4,2.9,4.8,2.8c36.7-0.1,73.4-0.1,110-0.1C439,466.9,439.9,466.9,441,466.9z M457.4,466.9
			c3.4,0,6.5-0.2,9.6,0c2.4,0.2,3.7-0.7,4.9-2.8c14.7-25.7,49.8-28.4,68.2-5.4c3.1,8.7,10,8.9,17.6,8.2c4.5-0.4,5.8-1.3,5.8-5.9
			c0-18,0-36.1,0.1-54.1c0-3.3-1.3-5.2-4.2-6.4c-7-3-14-6.2-21.1-9.1c-1.9-0.8-4-1.2-6-1.2c-23.7-0.1-47.5-0.1-71.2-0.1
			c-1.1,0-2.3,0-3.6,0C457.4,415.8,457.4,441.1,457.4,466.9z M524.1,374.2c-5.9-11.1-11.2-21.7-16.9-32c-2.6-4.6-6.9-7.4-12.2-7.5
			c-12.3-0.3-24.7-0.3-37-0.3c-0.2,0-0.4,0.2-0.5,0.3c0,13.1,0,26.2,0,39.5c21.1,0,41.9,0,62.7,0
			C521.2,374.2,522.2,374.2,524.1,374.2z M312.7,484.5c0-13.9-11.4-25.3-25.3-25.3c-14,0-25.5,11.5-25.4,25.6
			c0.1,13.9,11.7,25.4,25.4,25.2C301.5,509.7,312.7,498.3,312.7,484.5z M507.6,459.2c-13.9,0.1-25.3,11.5-25.3,25.4
			c0,13.8,11.5,25.3,25.3,25.4c13.8,0.1,25.7-11.9,25.5-25.6C532.8,470.4,521.4,459.1,507.6,459.2z"/>
		<path class="st0" d="M237.7,405.1c0-1,0-1.8,0-2.6c0-30.9,0.2-61.7-0.1-92.6c-0.1-9.3,5.8-18.9,18.9-18.9
			c55.3,0.2,110.6,0.1,165.9,0.1c12.1,0,18.9,6.6,18.9,18.7c0,31.7,0,63.3,0,95.2C373.4,405.1,305.8,405.1,237.7,405.1z"/>
		<path class="st0" d="M441,466.9c-1.1,0-2,0-3,0c-36.7,0-73.4,0-110,0.1c-2.4,0-3.6-0.8-4.8-2.8c-7.9-13.7-20-20.9-35.8-20.9
			c-15.9,0-28.1,7.2-36,21.1c-1.1,2-2.3,3-4.6,2.6c-1.4-0.2-2.8,0-4.2,0c-3.6-0.1-5-1.5-5-5.2c0-13.3,0-26.5,0-40.1
			c67.8,0,135.4,0,203.3,0C441,436.6,441,451.5,441,466.9z"/>
		<path class="st2" d="M457.4,466.9c0-25.8,0-51.1,0-76.7c1.3,0,2.4,0,3.6,0c23.7,0,47.5,0,71.2,0.1c2,0,4.2,0.5,6,1.2
			c7.1,2.9,14,6.2,21.1,9.1c2.9,1.2,4.3,3.1,4.2,6.4c-0.1,18,0,36.1-0.1,54.1c0,4.6-1.3,5.5-5.8,5.9c-7.6,0.7-14.5,0.5-17.6-8.2
			c-18.4-23-53.5-20.3-68.2,5.4c-1.2,2.1-2.5,2.9-4.9,2.8C463.9,466.7,460.7,466.9,457.4,466.9z"/>
		<path class="st2" d="M524.1,374.2c-1.9,0-2.9,0-3.9,0c-20.8,0-41.7,0-62.7,0c0-13.3,0-26.4,0-39.5c0.1-0.1,0.3-0.3,0.5-0.3
			c12.3,0.1,24.7,0,37,0.3c5.4,0.1,9.7,2.9,12.2,7.5C512.9,352.5,518.2,363.1,524.1,374.2z"/>
		<path class="st2" d="M312.7,484.5c0,13.8-11.2,25.2-25.2,25.4c-13.7,0.2-25.3-11.3-25.4-25.2c-0.1-14,11.3-25.6,25.4-25.6
			C301.3,459.2,312.6,470.6,312.7,484.5z"/>
		<path class="st2" d="M507.6,459.2c13.8-0.1,25.2,11.2,25.5,25.2c0.3,13.7-11.6,25.7-25.5,25.6c-13.8-0.1-25.3-11.6-25.3-25.4
			C482.3,470.7,493.7,459.2,507.6,459.2z"/>
	</g>
</g>
</svg>
