<?xml version="1.0" encoding="utf-8"?>
<!-- Generator: Adobe Illustrator 25.2.1, SVG Export Plug-In . SVG Version: 6.00 Build 0)  -->
<svg version="1.1" id="Layer_1" xmlns="http://www.w3.org/2000/svg" xmlns:xlink="http://www.w3.org/1999/xlink" x="0px" y="0px"
	 viewBox="0 0 800 800" style="enable-background:new 0 0 800 800;" xml:space="preserve">
<style type="text/css">
	.st0{fill:#FFFFFF;}
</style>
<g>
	<g>
		<path d="M212,550.8V246.8c0-1.3,0.1-2.6,0.3-3.9l0.3-2.2c1.4-8.6,5.6-15.6,12.3-21.2c2.6-2.2,5.4-3.7,8.4-4.9
			c4.8-1.9,9.9-2.7,15-2.7h305.1c1,0,2,0.1,2.9,0.3l1,0.2c17.7,3,29.3,16.5,29.3,34.6c0.1,101.5,0.1,203-0.1,304.5
			c0,5.2-1.2,10.8-3.4,15.5c-6.3,13.5-17.7,19.6-32.4,19.6c-50.4,0-100.8,0-151.2,0c-50.5,0-101,0-151.5,0c-12.1,0-22.1-4.3-29.5-14
			c-1.8-2.4-3.2-5-4.2-7.8C212.7,560.3,212,555.6,212,550.8z M229.2,297.4c-0.1,1.4-0.2,2.6-0.2,3.8v249.2
			c0,10.7,8.7,19.4,19.4,19.4h301.7c12.9,0,19.7-6.8,19.7-19.6c0-83,0-165.9,0-248.9c0-1.3-0.1-2.6-0.2-3.9
			C455.9,297.4,342.7,297.4,229.2,297.4z M569.7,280c0-11.8,0.4-23.3-0.1-34.7c-0.5-10.2-7.7-16.2-18.5-16.2
			c-101.1,0-202.2,0-303.4,0c-11.7,0-18.6,7-18.7,18.7c-0.1,7.7,0,15.4,0,23.1c0,3,0,6,0,9.2C342.7,280,456,280,569.7,280z"/>
		<path class="st0" d="M212,556c1.2,6,2.9,11.8,6.7,16.7c7.4,9.8,17.4,14,29.5,14c50.5,0,101,0,151.5,0c50.4,0,100.8,0,151.2,0
			c14.7,0,26.1-6.2,32.4-19.6c2.2-4.7,3.4-10.3,3.4-15.5c0.2-101.5,0.2-203,0.1-304.5c0-18.2-11.6-31.6-29.3-34.6
			c-0.5-0.1-0.9-0.3-1.4-0.5c10.5,0,21,0,31.5,0c0,125.2,0,250.3,0,375.5c-125.2,0-250.3,0-375.5,0C212,577,212,566.5,212,556z"/>
		<path class="st0" d="M242.7,212c-6.5,1.3-12.6,3.2-17.8,7.6c-6.7,5.6-10.9,12.5-12.3,21.2c-0.1,0.7-0.4,1.3-0.6,2
			c0-10.2,0-20.5,0-30.7C222.2,212,232.5,212,242.7,212z"/>
		<path class="st0" d="M229.2,297.4c113.5,0,226.8,0,340.5,0c0.1,1.4,0.2,2.7,0.2,3.9c0,83,0,165.9,0,248.9
			c0,12.8-6.8,19.6-19.7,19.6c-100.5,0-201,0-301.6,0c-12.6,0-19.5-6.8-19.5-19.4c0-83.1,0-166.2,0-249.2
			C229,300,229.1,298.8,229.2,297.4z M356.8,331.3c-27.6,0-55.1,0-82.7,0c-8,0-11,2.9-11,11.1c0,43.7,0,87.3,0,131
			c0,8.4,2.8,11.2,11.2,11.2c55,0,110,0,165,0c8.2,0,11.2-3,11.2-11.2c0-43.5,0-87.1,0-130.6c0-8.5-3-11.4-11.4-11.4
			C411.7,331.3,384.2,331.3,356.8,331.3z M399,535.6c41.6,0,83.2,0,124.8,0c1.7,0,3.4,0,5.1-0.3c3.9-0.7,6.6-4.2,6.7-8.1
			c0-3.7-2.4-7.1-6.1-8.1c-1.5-0.4-3.1-0.5-4.7-0.5c-83.6,0-167.1,0-250.7,0c-1.5,0-2.9,0-4.4,0.4c-3.9,0.9-6.5,4.3-6.5,8.2
			c0,4,2.9,7.5,7,8.2c1.6,0.3,3.2,0.2,4.7,0.2C316.3,535.6,357.7,535.6,399,535.6z M501.5,382.4c8.2,0,16.3,0.1,24.5,0
			c5.8-0.1,9.5-3.5,9.6-8.4s-3.6-8.3-9.4-8.6c-0.7,0-1.5,0-2.2,0c-15,0-30,0-45,0c-1.6,0-3.2,0.1-4.7,0.4c-3.2,0.6-5.2,2.5-6.2,5.5
			c-1.9,5.9,2.2,11,9.2,11.1C485.4,382.5,493.4,382.4,501.5,382.4z M501.5,433.5c8.2,0,16.3,0.1,24.5,0c5.9-0.1,9.5-3.5,9.6-8.4
			s-3.7-8.6-9.4-8.6c-16.5-0.1-32.9-0.1-49.4,0c-4.6,0-7.6,2.3-8.7,5.9c-1.9,6,2.1,10.9,9.3,11.1
			C485.4,433.6,493.5,433.5,501.5,433.5z M501.5,484.5c8.3,0,16.6,0.1,24.9,0c5.6-0.1,9.1-3.5,9.2-8.3c0.1-4.8-3.6-8.5-9-8.6
			c-16.7-0.1-33.4-0.1-50.1,0c-3.8,0-6.8,1.8-8.3,5.5c-2.2,5.7,1.8,11.2,8.4,11.4C484.9,484.6,493.2,484.5,501.5,484.5z"/>
		<path class="st0" d="M569.7,280c-113.7,0-227,0-340.7,0c0-3.2,0-6.2,0-9.2c0-7.7,0-15.4,0-23.1c0.1-11.7,7-18.7,18.7-18.7
			c101.1,0,202.2,0,303.4,0c10.7,0,18,6,18.5,16.2C570.1,256.6,569.7,268.1,569.7,280z M297,254.7c0.1-4.7-3.5-8.4-8.2-8.5
			s-8.7,3.8-8.7,8.4c0,4.4,4,8.4,8.4,8.4C293.1,263.1,297,259.3,297,254.7z M314.4,254.5c0,4.6,3.6,8.4,8.2,8.5
			c4.5,0.1,8.7-4,8.6-8.6c-0.1-4.5-3.9-8.3-8.5-8.3C318.1,246.2,314.4,249.9,314.4,254.5z M254.5,246.2c-4.7,0.1-8.3,3.7-8.3,8.4
			c0,4.6,3.7,8.4,8.3,8.4c4.5,0.1,8.7-4.1,8.5-8.6C262.9,249.8,259.1,246.2,254.5,246.2z"/>
		<path d="M356.8,331.3c27.4,0,54.9,0,82.3,0c8.5,0,11.4,3,11.4,11.4c0,43.5,0,87.1,0,130.6c0,8.2-3,11.2-11.2,11.2
			c-55,0-110,0-165,0c-8.4,0-11.2-2.8-11.2-11.2c0-43.7,0-87.3,0-131c0-8.1,2.9-11.1,11-11.1C301.7,331.3,329.2,331.3,356.8,331.3z
			 M433.2,348.5c-51.1,0-102,0-152.9,0c0,39.8,0,79.2,0,118.8c51,0,101.9,0,152.9,0C433.2,427.6,433.2,388.1,433.2,348.5z"/>
		<path d="M399,535.6c-41.3,0-82.7,0-124,0c-1.6,0-3.2,0-4.7-0.2c-4.1-0.7-7-4.1-7-8.2c0-3.9,2.6-7.3,6.5-8.2
			c1.4-0.3,2.9-0.4,4.4-0.4c83.6,0,167.1,0,250.7,0c1.6,0,3.2,0.1,4.7,0.5c3.7,1,6.2,4.4,6.1,8.1c-0.1,3.9-2.8,7.3-6.7,8.1
			c-1.7,0.3-3.4,0.3-5.1,0.3C482.2,535.6,440.6,535.6,399,535.6z"/>
		<path d="M501.5,382.4c-8,0-16.1,0.1-24.1,0c-7-0.1-11.2-5.2-9.2-11.1c1-3,3-5,6.2-5.5c1.5-0.3,3.1-0.4,4.7-0.4c15,0,30,0,45,0
			c0.7,0,1.5,0,2.2,0c5.8,0.3,9.4,3.7,9.4,8.6c-0.1,4.9-3.8,8.3-9.6,8.4C517.8,382.5,509.7,382.4,501.5,382.4z"/>
		<path d="M501.5,433.5c-8,0-16.1,0.1-24.1,0c-7.2-0.1-11.2-5.1-9.3-11.1c1.1-3.6,4.1-5.9,8.7-5.9c16.5-0.1,32.9-0.1,49.4,0
			c5.7,0,9.4,3.7,9.4,8.6c-0.1,4.9-3.7,8.3-9.6,8.4C517.8,433.6,509.7,433.5,501.5,433.5z"/>
		<path d="M501.5,484.5c-8.3,0-16.6,0.1-24.9,0c-6.7-0.2-10.6-5.6-8.4-11.4c1.4-3.7,4.4-5.5,8.3-5.5c16.7-0.1,33.4-0.1,50.1,0
			c5.4,0,9.1,3.8,9,8.6c-0.1,4.9-3.6,8.2-9.2,8.3C518.1,484.6,509.8,484.5,501.5,484.5z"/>
		<path d="M297,254.7c-0.1,4.5-3.9,8.4-8.4,8.3c-4.4,0-8.4-4-8.4-8.4c0-4.6,4-8.5,8.7-8.4C293.5,246.4,297.1,250.1,297,254.7z"/>
		<path d="M314.4,254.5c0-4.7,3.7-8.3,8.4-8.3c4.6,0,8.4,3.7,8.5,8.3c0.1,4.5-4.1,8.7-8.6,8.6C318,262.9,314.3,259.1,314.4,254.5z"
			/>
		<path d="M254.5,246.2c4.6,0,8.4,3.6,8.5,8.2c0.1,4.5-4,8.7-8.5,8.6s-8.3-3.9-8.3-8.4C246.2,249.9,249.8,246.3,254.5,246.2z"/>
		<path class="st0" d="M433.2,348.5c0,39.5,0,79.1,0,118.8c-51,0-101.8,0-152.9,0c0-39.6,0-79,0-118.8
			C331.2,348.5,382.1,348.5,433.2,348.5z M365.3,407.9c0,10.7-0.1,21.5,0,32.2c0.1,7.2,3.3,10.4,10.6,10.4c4.8,0,9.5,0.1,14.3,0
			c14-0.4,25.4-10,25.9-22.9c0.5-13.1,0.5-26.3,0-39.5c-0.4-11.5-10.8-21.7-22.2-22.5c-5.8-0.4-11.7-0.4-17.5-0.4
			c-8,0-11,3.1-11,11.1C365.3,386.9,365.3,397.4,365.3,407.9z M331.3,433.7c0,2.8-0.1,5.5,0,8.1c0.3,5.1,4,8.8,8.6,8.6
			c4.6-0.1,8-3.6,8.3-8.6c0.1-2.3,0.1-4.6,0-6.9c0-15.4,0.3-30.7-0.2-46.1c-0.4-13.1-11.6-23.1-24.9-23.5
			c-13-0.3-24.9,9.6-25.5,22.7c-0.7,17.8-0.4,35.6-0.5,53.4c0,1.5,0.5,3.2,1.2,4.5c1.6,3.2,5.2,4.9,8.5,4.3c4.2-0.7,6.7-3.3,7.2-8
			c0.3-2.8,0.1-5.7,0.1-8.6C320.2,433.7,325.5,433.7,331.3,433.7z"/>
		<path d="M365.3,407.9c0-10.5,0-21,0-31.5c0-8.1,3-11.1,11-11.1c5.8,0,11.7,0,17.5,0.4c11.4,0.8,21.8,10.9,22.2,22.5
			c0.5,13.1,0.5,26.3,0,39.5c-0.5,12.9-11.9,22.5-25.9,22.9c-4.8,0.1-9.5,0.1-14.3,0c-7.3-0.1-10.5-3.2-10.6-10.4
			C365.2,429.4,365.3,418.6,365.3,407.9z M382.6,382.7c0,17,0,33.7,0,50.8c2.1,0,4,0,5.9,0c7.8-0.1,10.9-3.1,10.9-10.8
			c0-8.5-0.3-17.1,0.1-25.6c0.6-14-4.3-15.1-15.2-14.6C383.8,382.5,383.3,382.6,382.6,382.7z"/>
		<path d="M331.3,433.7c-5.8,0-11.1,0-17.2,0c0,2.9,0.2,5.7-0.1,8.6c-0.5,4.6-3,7.2-7.2,8c-3.4,0.6-6.9-1.1-8.5-4.3
			c-0.7-1.4-1.2-3-1.2-4.5c0-17.8-0.3-35.6,0.5-53.4c0.5-13.1,12.5-23,25.5-22.7c13.3,0.4,24.4,10.4,24.9,23.5
			c0.5,15.3,0.2,30.7,0.2,46.1c0,2.3,0.1,4.6,0,6.9c-0.3,5-3.7,8.4-8.3,8.6c-4.6,0.1-8.3-3.5-8.6-8.6
			C331.2,439.2,331.3,436.5,331.3,433.7z M331.3,416.2c0-7.9,0-15.4,0-23c0-1.7-0.2-3.4-0.6-5c-1-3.5-4.3-5.8-8-5.7
			c-3.8,0.1-7.7,2.6-7.9,6.3c-0.4,9.1-0.1,18.2-0.1,27.4C320.1,416.2,325.4,416.2,331.3,416.2z"/>
		<path class="st0" d="M382.6,382.7c0.8-0.1,1.2-0.2,1.7-0.2c10.9-0.5,15.8,0.5,15.2,14.6c-0.3,8.5,0,17.1-0.1,25.6
			c0,7.7-3.1,10.8-10.9,10.8c-1.9,0-3.8,0-5.9,0C382.6,416.3,382.6,399.7,382.6,382.7z"/>
		<path class="st0" d="M331.3,416.2c-5.8,0-11.2,0-16.7,0c0-9.2-0.3-18.3,0.1-27.4c0.2-3.7,4.1-6.3,7.9-6.3c3.7-0.1,7,2.2,8,5.7
			c0.5,1.6,0.6,3.4,0.6,5C331.3,400.8,331.3,408.3,331.3,416.2z"/>
	</g>
</g>
</svg>
