<?xml version="1.0" encoding="utf-8"?>
<!-- Generator: Adobe Illustrator 25.2.1, SVG Export Plug-In . SVG Version: 6.00 Build 0)  -->
<svg version="1.1" id="Layer_1" xmlns="http://www.w3.org/2000/svg" xmlns:xlink="http://www.w3.org/1999/xlink" x="0px" y="0px"
	 viewBox="0 0 800 785.1" style="enable-background:new 0 0 800 785.1;" xml:space="preserve">
<style type="text/css">
	.st0{fill:#FEFEFE;}
	.st1{fill:#010101;}
	.st2{fill:#22d16b;}
	.st3{fill:#FDFDFD;}
	.st4{fill:#FCFCFC;}
	.st5{fill:#0C0C0C;}
	.st6{fill:#020202;}
</style>
<g>
	<g>
		<path class="st0" d="M169.4,162.2c-10.9,0-20.9,0-31,0c-40.9,0-65.9,25-65.9,65.9c0,136.8,0,273.5,0,410.3c0,2.7,0,5.4,0,8.5
			c-5.3,0-9.8-0.2-14.3,0c-17.6,0.9-32.8,15.3-33.8,32.8c-0.4,7.4,0.4,15.2,2.1,22.5c9.3,39.3,42.6,65.7,83.4,65.7
			c193.3,0.1,386.6,0.1,579.9,0c1.3,0,2.5,0,3.8-0.1c44.6-1.5,81-38.5,81.7-83.1c0.3-21.4-15.3-37.6-36.6-37.9
			c-3.9-0.1-7.8,0-11.4,0c0-122.4,0-243.7,0-365.1c1.4,0.2,2.4,0.2,3.4,0.4c23.2,5.1,44.5-11.1,44.6-34.6
			c0.3-65.1,0.2-130.2,0-195.3c-0.1-17.6-13.3-32.2-30.7-35.1c-16.9-2.8-33.8,7.7-40,24.3c-1.2,3.3-3.5,6.7-6.3,8.7
			c-37,26.4-78.4,39.4-123.9,39.4c-121.6,0-243.3,0-364.9,0c-25.1,0-39.8,14.8-39.8,40.1C169.3,140.1,169.4,150.7,169.4,162.2z"/>
		<path class="st1" d="M169.4,162.2c0-11.5,0-22.1,0-32.6c0-25.2,14.8-40,39.8-40.1c121.6,0,243.3,0,364.9,0
			c45.5,0,86.8-13,123.9-39.4c2.8-2,5.1-5.4,6.3-8.7c6.2-16.6,23.1-27.1,40-24.3c17.5,2.9,30.7,17.5,30.7,35.1
			c0.2,65.1,0.3,130.2,0,195.3c-0.1,23.5-21.4,39.6-44.6,34.6c-1-0.2-2-0.3-3.4-0.4c0,121.5,0,242.7,0,365.1c3.6,0,7.5-0.1,11.4,0
			c21.3,0.4,36.9,16.6,36.6,37.9c-0.7,44.6-37.1,81.7-81.7,83.1c-1.3,0-2.5,0.1-3.8,0.1c-193.3,0-386.6,0.1-579.9,0
			c-40.8,0-74.1-26.4-83.4-65.7c-1.7-7.3-2.5-15-2.1-22.5c1-17.6,16.2-31.9,33.8-32.8c4.5-0.2,9,0,14.3,0c0-3.1,0-5.8,0-8.5
			c0-136.8,0-273.5,0-410.3c0-40.9,25-65.9,65.9-65.9C148.4,162.2,158.5,162.2,169.4,162.2z M678.3,237.9
			c-14.7-9.5-30.9-15.3-48.6-20.2c0,3.4,0,6.1,0,8.8c0,102,0,203.9,0,305.9c0,27.4-14.1,41.7-41.3,41.7c-125.9,0-251.9,0-377.8,0
			c-26.8,0-41.3-14.3-41.3-41c0-96.2,0-192.3,0-288.5c0-11.4-0.2-22.7-0.2-34.1c0-8,0-15.9,0-24.2c-10.7,0-20.8,0-30.8,0
			c-27.4,0-41.6,14.1-41.6,41.3c0,137.1,0,274.1,0,411.2c0,2.5,0,4.9,0,7.6c202.2,0,403.7,0,605.8,0c0-3,0-5.7,0-8.4
			c0-120.6,0-241.3,0-361.9c0-6.3,0.3-12.6-0.1-18.9c-0.1-2.1-1.3-5-3-6.1C692.5,246.4,685.3,242.3,678.3,237.9z M193.6,210.9
			c0,108,0,215.3,0,322.5c0,12.7,3.8,16.4,16.8,16.4c126.2,0,252.3,0,378.5,0c12.8,0,16.6-3.8,16.6-16.7c0-68.9,0-137.8,0-206.7
			c0-2.2-0.2-4.4-0.4-7.1c-15.5,0-30.6,0-45.7,0c-8.1-36.5-16.1-72.5-24.2-108.5C421.2,210.9,307.7,210.9,193.6,210.9z M508.6,671.1
			c0,4.5,0.1,8.5,0,12.5c-0.5,19.8-15.8,35.8-35.6,35.9c-49,0.3-97.9,0.3-146.9,0c-19.7-0.1-35.1-16-35.6-35.9c-0.1-4,0-7.9,0-12.5
			c-2.8,0-5,0-7.2,0c-72.7,0-145.4,0-218,0c-14,0-18.6,5.4-16.7,19.2c4.3,31.1,29.2,53.4,60.7,53.4c193.6,0.1,387.1,0.1,580.7,0
			c31.4,0,56.3-22.3,60.7-53.4c1.9-13.8-2.7-19.2-16.7-19.2c-72.7,0-145.4,0-218,0C513.6,671.1,511.4,671.1,508.6,671.1z
			 M496.5,113.7c-2.2,0-3.5,0-4.7,0c-94.3,0-188.7,0-283,0c-1.5,0-3.1-0.1-4.5,0.1c-5.9,1-10.3,4.5-10.4,10.4
			c-0.4,20.6-0.2,41.2-0.2,61.7c101.1,0,201.5,0,302.4,0C480.5,161.9,480.4,138.4,496.5,113.7z M581.6,113.7c0,24.4,0,48.5,0,72.9
			c43.4,1.5,83.3,13.5,120.5,36.8c0-49.1,0-97.3,0-146.5C665,100.2,625,112.1,581.6,113.7z M726.7,150c0,28.2,0,56.5,0,84.7
			c0,3.5-0.1,7.1,0,10.6c0.2,8.3,4.8,13.6,11.9,13.8c7.4,0.1,12.2-5.3,12.3-14c0-1.3,0-2.5,0-3.8c0-60.8,0-121.5,0-182.3
			c0-2.5,0.3-5.1-0.2-7.5c-1.3-6.5-5.4-10.4-12.1-10.3c-6.7,0.1-10.6,4.1-11.8,10.6c-0.4,2.2-0.2,4.5-0.2,6.8
			C726.7,89,726.7,119.5,726.7,150z M314.8,671.3c0,4-0.1,7.3,0,10.6c0.3,8.5,4.6,13.3,13,13.4c47.9,0.1,95.7,0.1,143.6,0
			c8,0,12.6-4.7,13-12.6c0.2-3.7,0-7.4,0-11.3C427.6,671.3,371.5,671.3,314.8,671.3z M605.2,211.8c-15.4,0-30.1,0-45,0
			c6.2,27.7,12.4,55.6,18.6,83.4c9.1,0,17.6,0,26.4,0C605.2,267.7,605.2,240.6,605.2,211.8z M556.6,186.1c0-24.4,0-48.2,0-72
			c-29.4-1.8-47.8,12-48,35.6C508.4,173.7,527,187.9,556.6,186.1z"/>
		<path class="st0" d="M193.6,210.9c114.1,0,227.6,0,341.7,0c8,36,16,72,24.2,108.5c15.2,0,30.2,0,45.7,0c0.1,2.7,0.4,4.9,0.4,7.1
			c0,68.9,0,137.8,0,206.7c0,12.9-3.8,16.7-16.6,16.7c-126.2,0-252.3,0-378.5,0c-13,0-16.8-3.7-16.8-16.4
			C193.6,426.2,193.6,319,193.6,210.9z M302.6,453c0,5,0.2,9.5,0,14c-0.6,13.5,4.4,24.3,16.4,30.8c11.9,6.4,23.2,4.1,34.1-3.3
			c19.2-13,38.5-25.8,57.9-38.4c2.7-1.8,6.4-2.9,9.7-3c24.5-0.2,48.9-0.1,73.4-0.1c23.5-0.1,38.7-15.3,38.7-38.9
			c0.1-46.7,0-93.3,0-140c0-24.1-15.1-39.1-39.2-39.1c-79,0-157.9,0-236.9,0c-23.6,0-38.9,15.2-38.9,38.7
			c-0.1,46.9-0.1,93.8,0,140.8c0,23.5,15.3,38.6,39,38.6C271.9,453,286.9,453,302.6,453z"/>
		<path class="st2" d="M169.1,210.6c0.1,11.4,0.2,22.7,0.2,34.1c0,96.2,0,192.3,0,288.5c0,26.7,14.4,41,41.3,41
			c125.9,0,251.9,0,377.8,0c27.2,0,41.3-14.3,41.3-41.7c0-102,0-203.9,0-305.9c0-2.7,0-5.4,0-8.8c17.6,4.9,33.8,10.7,48.6,20.2
			c0,118.9-0.1,237.7-0.1,356.6c0,18.8-9.2,28.1-27.7,28.1c-167.3,0-334.6,0-501.9,0c-18.5,0-27.7-9.3-27.7-28.1
			c0-37.1,0-74.2,0-111.3c0-82,0-164,0-246c0-16.6,9.8-26.4,26.2-26.5C154.5,210.6,161.8,210.6,169.1,210.6z"/>
		<path class="st3" d="M508.6,671.1c2.8,0,5,0,7.2,0c72.7,0,145.4,0,218,0c13.9,0,18.6,5.4,16.7,19.2c-4.3,31.1-29.3,53.4-60.7,53.4
			c-193.6,0.1-387.1,0.1-580.7,0c-31.4,0-56.4-22.4-60.7-53.4c-1.9-13.8,2.8-19.2,16.7-19.2c72.7,0,145.4,0,218,0c2.2,0,4.4,0,7.2,0
			c0,4.6-0.1,8.5,0,12.5c0.5,19.8,15.9,35.8,35.6,35.9c49,0.3,97.9,0.3,146.9,0c19.7-0.1,35.1-16.1,35.6-35.9
			C508.7,679.6,508.6,675.6,508.6,671.1z M605.5,707.4c0-6.6-5.4-12-11.9-12.1c-6.6-0.1-12.1,5.2-12.3,11.7
			c-0.2,6.9,5.4,12.6,12.3,12.5C600.2,719.4,605.5,713.9,605.5,707.4z M654,707.6c0.1-6.6-5.1-12.1-11.7-12.4
			c-6.6-0.2-12.2,4.9-12.5,11.5c-0.4,6.8,5.2,12.7,12,12.7C648.3,719.5,653.8,714.2,654,707.6z M690,695.3
			c-6.6,0.2-11.9,5.6-11.8,12.2c0.1,6.6,5.4,12,12,12c6.8,0.1,12.5-5.8,12.2-12.6C702.2,700.4,696.6,695.1,690,695.3z"/>
		<path class="st0" d="M169.1,210.6c-7.3,0-14.6,0-22,0c-16.5,0.1-26.2,9.9-26.2,26.5c0,82,0,164,0,246c0,37.1,0,74.2,0,111.3
			c0,18.8,9.2,28.1,27.7,28.1c167.3,0,334.6,0,501.9,0c18.5,0,27.7-9.3,27.7-28.1c0-118.9,0.1-237.7,0.1-356.6
			c7,4.3,14.2,8.5,21,13.2c1.7,1.1,2.9,4,3,6.1c0.4,6.3,0.1,12.6,0.1,18.9c0,120.6,0,241.3,0,361.9c0,2.7,0,5.4,0,8.4
			c-202.1,0-403.6,0-605.8,0c0-2.7,0-5.2,0-7.6c0-137.1,0-274.1,0-411.2c0-27.2,14.2-41.3,41.6-41.3c10.1,0,20.1,0,30.8,0
			C169.1,194.7,169.1,202.7,169.1,210.6z"/>
		<path class="st0" d="M496.5,113.7c-16,24.6-16,48.2-0.3,72.2c-100.9,0-201.4,0-302.4,0c0-20.5-0.3-41.1,0.2-61.7
			c0.1-5.8,4.5-9.3,10.4-10.4c1.5-0.3,3-0.1,4.5-0.1c94.3,0,188.7,0,283,0C493,113.7,494.2,113.7,496.5,113.7z M218.2,138.2
			c0,8.2,0,15.9,0,23.6c8.1,0,15.7,0,23.5,0c0-8.1,0-15.7,0-23.6C233.8,138.2,226.3,138.2,218.2,138.2z M266.5,161.8
			c8.4,0,16,0,23.6,0c0-8.1,0-15.8,0-23.4c-8.1,0-15.8,0-23.6,0C266.5,146.3,266.5,153.8,266.5,161.8z M338.7,138.3
			c-8.1,0-15.8,0-23.6,0c0,8,0,15.7,0,23.5c8,0,15.7,0,23.6,0C338.7,154,338.7,146.5,338.7,138.3z"/>
		<path class="st3" d="M581.6,113.7c43.3-1.6,83.3-13.5,120.5-36.9c0,49.2,0,97.4,0,146.5C664.9,200,625,188,581.6,186.5
			C581.6,162.1,581.6,138,581.6,113.7z"/>
		<path class="st3" d="M726.7,150c0-30.5,0-61,0-91.5c0-2.3-0.2-4.6,0.2-6.8c1.2-6.5,5.1-10.5,11.8-10.6c6.7-0.1,10.8,3.8,12.1,10.3
			c0.5,2.4,0.2,5,0.2,7.5c0,60.8,0,121.5,0,182.3c0,1.3,0,2.5,0,3.8c-0.2,8.8-5,14.2-12.3,14c-7.1-0.1-11.7-5.4-11.9-13.8
			c-0.1-3.5,0-7.1,0-10.6C726.7,206.5,726.7,178.3,726.7,150z"/>
		<path class="st3" d="M314.8,671.3c56.8,0,112.8,0,169.6,0c0,3.9,0.1,7.6,0,11.3c-0.4,7.9-4.9,12.6-13,12.6
			c-47.9,0.1-95.7,0.1-143.6,0c-8.3,0-12.7-4.8-13-13.4C314.7,678.6,314.8,675.3,314.8,671.3z"/>
		<path class="st4" d="M605.2,211.8c0,28.8,0,55.9,0,83.4c-8.8,0-17.2,0-26.4,0c-6.2-27.8-12.4-55.7-18.6-83.4
			C575.1,211.8,589.8,211.8,605.2,211.8z"/>
		<path class="st4" d="M556.6,186.1c-29.7,1.8-48.2-12.4-48-36.4c0.2-23.6,18.7-37.4,48-35.6C556.6,137.9,556.6,161.7,556.6,186.1z"
			/>
		<path class="st1" d="M302.6,453c-15.7,0-30.8,0-45.8,0c-23.6-0.1-38.9-15.2-39-38.6c-0.1-46.9-0.1-93.8,0-140.8
			c0-23.5,15.3-38.7,38.9-38.7c79,0,157.9,0,236.9,0c24.1,0,39.2,15.1,39.2,39.1c0,46.7,0,93.3,0,140c0,23.6-15.2,38.9-38.7,38.9
			c-24.5,0.1-48.9-0.1-73.4,0.1c-3.3,0-6.9,1.2-9.7,3c-19.4,12.6-38.7,25.4-57.9,38.4c-10.9,7.4-22.2,9.7-34.1,3.3
			c-12.1-6.5-17-17.3-16.4-30.8C302.8,462.5,302.6,458,302.6,453z M326.9,428.7c0,13.1-0.3,25.4,0.2,37.8c0.1,3.3,1.6,7.8,4,9.4
			c1.8,1.2,6.6-0.4,9.2-2.1c21.1-13.8,41.9-27.9,63-41.7c2.9-1.9,6.9-3.1,10.4-3.2c26.5-0.3,53-0.1,79.5-0.2
			c11.3,0,15.5-4.1,15.5-15.5c0-46.2,0-92.3,0-138.5c0-11.4-4.1-15.6-15.4-15.6c-78.5,0-156.9,0-235.4,0c-11.8,0-15.8,4-15.8,16
			c0,45.9,0,91.8,0,137.7c0,11.9,4,15.9,15.8,15.9C280.6,428.8,303.3,428.7,326.9,428.7z"/>
		<path class="st5" d="M605.5,707.4c0,6.5-5.4,12-11.9,12.1c-6.9,0.1-12.5-5.6-12.3-12.5c0.2-6.6,5.7-11.8,12.3-11.7
			C600.1,695.4,605.5,700.8,605.5,707.4z"/>
		<path class="st5" d="M654,707.6c-0.1,6.5-5.6,11.9-12.2,11.9c-6.9,0-12.4-5.9-12-12.7c0.3-6.6,6-11.7,12.5-11.5
			C648.9,695.5,654.1,701.1,654,707.6z"/>
		<path class="st5" d="M690,695.3c6.6-0.2,12.1,5.1,12.4,11.6c0.3,6.8-5.4,12.6-12.2,12.6c-6.6-0.1-11.9-5.5-12-12
			C678.2,700.9,683.5,695.5,690,695.3z"/>
		<path d="M218.2,138.2c8.1,0,15.6,0,23.5,0c0,7.9,0,15.6,0,23.6c-7.7,0-15.4,0-23.5,0C218.2,154.1,218.2,146.4,218.2,138.2z"/>
		<path d="M266.5,161.8c0-8,0-15.5,0-23.4c7.8,0,15.5,0,23.6,0c0,7.6,0,15.3,0,23.4C282.5,161.8,274.8,161.8,266.5,161.8z"/>
		<path d="M338.7,138.3c0,8.2,0,15.7,0,23.5c-7.9,0-15.6,0-23.6,0c0-7.8,0-15.5,0-23.5C322.9,138.3,330.6,138.3,338.7,138.3z"/>
		<path class="st3" d="M326.9,428.7c-23.6,0-46.3,0-69,0c-11.8,0-15.8-4-15.8-15.9c0-45.9,0-91.8,0-137.7c0-11.9,4-15.9,15.8-16
			c78.5,0,156.9,0,235.4,0c11.3,0,15.4,4.2,15.4,15.6c0,46.2,0,92.3,0,138.5c0,11.4-4.1,15.5-15.5,15.5c-26.5,0-53-0.1-79.5,0.2
			c-3.5,0-7.4,1.3-10.4,3.2c-21.1,13.8-41.9,27.9-63,41.7c-2.6,1.7-7.4,3.4-9.2,2.1c-2.4-1.6-3.9-6.1-4-9.4
			C326.6,454.2,326.9,441.9,326.9,428.7z M290.5,380.7c16.6,0,32.4,0,48.7,0c0,8.1,0,15.7,0,23.5c8.3,0,15.9,0,23.9,0
			c0-25.8,0.8-51.2-0.2-76.6c-0.9-23.3-21-42.4-44.2-44.1c-24.2-1.8-46.5,14.1-50.8,37.9c-2.1,11.5-1.3,23.6-1.5,35.4
			c-0.2,15.8-0.1,31.6-0.1,47.3c8.5,0,16.2,0,24.2,0C290.5,396.2,290.5,388.7,290.5,380.7z M387.9,284.5c0,39.7,0,79.7,0,119.9
			c12.7,0,25.1,0.2,37.4,0c30.7-0.7,56.3-24.7,58.9-55.2c2.7-30.9-18.4-59.7-49.3-64.3C419.7,282.7,403.8,284.5,387.9,284.5z"/>
		<path class="st1" d="M290.5,380.7c0,8.1,0,15.6,0,23.4c-8,0-15.7,0-24.2,0c0-15.8-0.2-31.5,0.1-47.3c0.2-11.8-0.6-23.9,1.5-35.4
			c4.3-23.8,26.6-39.8,50.8-37.9c23.2,1.7,43.3,20.8,44.2,44.1c1,25.4,0.2,50.8,0.2,76.6c-8,0-15.7,0-23.9,0c0-7.7,0-15.4,0-23.5
			C322.8,380.7,307.1,380.7,290.5,380.7z M339,355.8c0-8.6,0.2-16.4,0-24.2c-0.3-12.6-9.8-22.8-21.9-23.9
			c-12-1.1-23.8,6.5-25.6,18.6c-1.5,9.7-0.3,19.8-0.3,29.5C307.2,355.8,322.7,355.8,339,355.8z"/>
		<path class="st6" d="M387.9,284.5c16,0,31.8-1.9,47,0.4c30.9,4.6,52,33.4,49.3,64.3c-2.7,30.5-28.2,54.6-58.9,55.2
			c-12.3,0.3-24.6,0-37.4,0C387.9,364.2,387.9,324.2,387.9,284.5z M411.9,379.9c17.9,1.9,33.4-1.3,43.1-17.6
			c7.8-13.1,7.2-26.6-1.5-39.2c-10.1-14.6-25-17.1-41.6-15.1C411.9,332,411.9,355.7,411.9,379.9z"/>
		<path class="st4" d="M339,355.8c-16.2,0-31.8,0-47.8,0c0-9.7-1.2-19.8,0.3-29.5c1.8-12,13.7-19.7,25.6-18.6
			c12.1,1.1,21.5,11.3,21.9,23.9C339.1,339.4,339,347.2,339,355.8z"/>
		<path class="st4" d="M411.9,379.9c0-24.2,0-47.9,0-71.9c16.6-2,31.5,0.5,41.6,15.1c8.7,12.5,9.3,26,1.5,39.2
			C445.3,378.6,429.8,381.8,411.9,379.9z"/>
	</g>
</g>
</svg>
