<?xml version="1.0" encoding="utf-8"?>
<!-- Generator: Adobe Illustrator 25.2.1, SVG Export Plug-In . SVG Version: 6.00 Build 0)  -->
<svg version="1.1" id="Layer_1" xmlns="http://www.w3.org/2000/svg" xmlns:xlink="http://www.w3.org/1999/xlink" x="0px" y="0px"
	 viewBox="0 0 800 800" style="enable-background:new 0 0 800 800;" xml:space="preserve">
<style type="text/css">
	.st0{fill:#060606;}
	.st1{fill:#FDFDFD;}
	.st2{fill:#FCFCFC;}
	.st3{fill:#FEFEFE;}
	.st4{fill:#22d16b;}
	.st5{fill:#040404;}
	.st6{fill:#030303;}
	.st7{fill:#F7F7F7;}
	.st8{fill:#F5F5F5;}
</style>
<g>
	<g>
		<path class="st0" d="M779.7,20.1h0.2v262.1c-5.6,3-10.9,6.8-16.8,8.9c-19.9,7.1-40.1,13.5-60,20.4c-6.9,2.4-13.3,3.4-18.8-2.8
			c-18.3,21.9-39.6,39-63.7,53.6c2.3,0,4.7,0,7,0c29.8,0,59.7-0.2,89.5,0.1c30.3,0.3,53.1,18.1,61.1,47.3l0,0
			c0.9,3.1,1.6,8.2,1.6,11.4v298.1c0,4.1-1,10.5-2.3,14.4l0,0c-9.2,28.3-31.2,44.6-60.8,44.6c-210.8,0-421.6,0.1-632.4,0
			c-36.1,0-62.6-26.6-62.7-62.6c-0.1-96.8-0.1-193.6,0.1-290.4c0-5,0.5-10,1.6-14.9c6.7-29.6,31.1-48,63-48
			c81.5-0.1,162.9,0,244.4,0c2.9,0,5.7,0,8,0c1.3-24.9,2.6-48.8,3.8-72.5h-76.3c0,5.9,0,11.3,0,16.7c-0.1,14.3-6.5,24.5-18.4,29.2
			c-12.7,5-23.6,1.9-33.1-7.6c-11.2-11.2-22.5-22.2-33.4-33.6c-3.9-4.1-8-5.5-13.6-5.5c-35.3,0.2-70.6,0.1-105.9,0.1
			c-24.9,0-40.2-15.2-40.2-40c0-63.2,0-126.4,0-189.6c0-3.4,0.2-6.9,0.8-10.3c1.9-9.1,6.2-15.7,12.4-20.7c7-5.7,16-8.6,25-8.6h336.6
			c9,0,17.9,2.4,25.4,7.2c12.2,7.8,15.7,18.1,15.7,38.5c0,40.7,0,81.4,0,122.1c0,2.7,0,5.4,0,6.7c15.9-1.1,31.3-2.6,46.7-3.1
			c15-0.5,30.1,0,45.1-0.1c26.7-0.2,50.7-8.2,71.5-25c-6.3-12.5-6.1-16.5,1.6-22.4c49.4-38,98.8-76,148.2-114
			C759.1,23.6,769.2,20.1,779.7,20.1z M364.2,519.8c-17-7.4-24.9-20.3-24.6-39c0.4-26.6,0.1-53.3,0.1-79.9c0-4.4,0-8.7,0-13.3
			c-2.7-0.1-4.7-0.3-6.6-0.3c-82.4,0-164.8,0-247.2,0c-25.1,0-39.7,14.8-39.7,40.2c-0.1,79,0,157.9,0,236.9
			c0,26.1,14.6,40.6,40.9,40.7c209.2,0,418.5,0,627.7,0c26.1,0,40.6-14.7,40.6-40.9c0-78.7,0-157.4,0-236.1
			c0-22.5-18.3-40.7-40.7-40.7c-90.6,0-181.1,0-271.7,0c-2.1,0-4.3,0.2-6.6,0.4c-2.1,22.8-4.2,45.1-6,67.5
			c-1.6,19.3-2.5,38.7-18.6,52.8C397.9,519.7,382.2,524.3,364.2,519.8z M388.8,221.3c6.8-4.4,12.4-8.5,18.4-11.7
			c4.2-2.2,5.8-4.7,5.7-9.7c-0.2-46.1-0.1-92.3-0.1-138.4c0-13.2-3.5-16.8-16.5-16.8c-111.3,0-222.6,0-333.9,0
			c-12.5,0-16.3,3.8-16.3,16.4c0,62.4,0,124.9,0,187.3c0,12.5,3.8,16.3,16.4,16.3c39,0,77.9-0.1,116.9,0.2c3.3,0,7.9,1.9,10.2,4.1
			c13.7,13.1,26.9,26.8,40.5,40.1c2,2,5.3,2.8,8,4.1c1.2-2.9,3.5-5.8,3.6-8.8c0.4-13,0.2-26,0.2-39.6c3.2,0,5.6,0,8,0
			c32.8,0,65.6,0,98.5-0.1c2.4,0,6-0.4,7.1-2c4.9-6.9,9.1-14.3,14.1-22.4H217.6V118.3h73.3v96.9h24.5V69.6h73.3V221.3z M613.7,187.6
			c-27.3,20.2-57.1,29.1-90,28.2c-15.5-0.4-31.1-0.1-46.6-0.1c-64.8,0.1-113,48.2-113.1,113.2c-0.1,39.5,0,79,0,118.4
			c0,11.6-0.1,23.2,0,34.8c0.1,11.3,6.9,16.7,17.9,14.4c11.9-2.5,20.6-11.8,21.9-23.9c1.7-16.2,3-32.4,4.5-48.6
			c1.1-12.2,2.2-24.4,3.4-36.4c-19.5-6.4-25.1-15.3-22.6-34.7c3.9-30.5,27-56.7,57.5-61.7c17.4-2.8,35.4-2.6,53.1-1.8
			c20.4,1,37.5-3.5,50.4-20.2c0.2-0.3,0.8-0.3,0.6-0.2c5.9,5.6,11.6,11,17.1,16.2c-16,20.8-36.8,29.9-62.7,28.3
			c-14.5-0.9-29.1-0.4-43.7-0.1c-27,0.7-47.2,20.9-48.2,48.3c1.7,0.2,3.3,0.4,5,0.4c35,0,70.1,0.8,105.1-0.2
			c59.1-1.7,107.1-26.8,144.8-72c2.5-3,2.6-5.1,0.6-8.4c-7.7-12.9-15.2-25.9-22.8-38.9C635.3,224.7,624.7,206.4,613.7,187.6z
			 M624.7,157.8c25.4,43.4,50.3,86.2,75.2,128.8c16.9-5.6,32.7-11.2,48.7-16.1c5.6-1.7,6.9-4.3,6.9-9.8
			c-0.2-64.9-0.1-129.8-0.1-194.7c0-2.4,0-4.7,0-8.7C711.1,91.3,668.3,124.3,624.7,157.8z M754.4,717.6c-14.4,10.9-30.8,12-47.9,12
			c-200.1-0.2-400.2-0.1-600.3-0.1c-20.5,0-41.4,2.2-59.3-12.2c-0.3,1.7-0.5,2.2-0.5,2.6c1.3,20.6,17.1,33.8,40.7,33.8
			c209,0,417.9,0,626.9,0c3.7,0,7.4-0.1,11.1-0.6C742.2,750.7,755.7,734.5,754.4,717.6z M363.7,94h-23.5v121.3h23.5V94z
			 M265.9,142.9h-23.6v72.3h23.6V142.9z"/>
		<path class="st1" d="M763.6,20.1c-53.7,41.3-107.4,82.5-161,123.8c-7.7,6-7.9,9.9-1.6,22.4c-20.8,16.8-44.8,24.9-71.5,25
			c-15,0.1-30.1-0.4-45.1,0.1c-15.4,0.5-30.8,2-46.7,3.1c0-1.3,0-4,0-6.7c0-40.7,0-81.4,0-122.1c0-27.2-6.2-36.4-30.9-45.7
			C525.6,20.1,644.6,20.1,763.6,20.1z"/>
		<path class="st1" d="M51.2,20.1c-14.5,4.9-25.5,13.4-28.8,29.3c-0.7,3.3-0.8,6.8-0.8,10.3c0,63.2-0.1,126.4,0,189.6
			c0,24.8,15.2,40,40.2,40c35.3,0,70.6,0.1,105.9-0.1c5.6,0,9.6,1.3,13.6,5.5c10.9,11.4,22.2,22.4,33.4,33.6
			c9.4,9.4,20.4,12.5,33.1,7.6c11.9-4.7,18.3-15,18.4-29.2c0-5.4,0-10.8,0-16.7c26.1,0,51.9,0,76.3,0c-1.2,23.8-2.5,47.7-3.8,72.5
			c-2.3,0-5.1,0-8,0c-81.5,0-162.9,0-244.4,0c-30.8,0-54.5,17.1-62.2,44.8c-1.6,5.6-2.4,11.6-2.4,17.5c-0.1,97-0.2,194-0.1,291
			c0,36.1,26.6,62.6,62.7,62.6c210.8,0.1,421.6,0.1,632.4,0c29.7,0,51.6-16.3,60.8-44.6c0.5-1.5,1.5-2.8,2.3-4.2
			c0,16.8,0,33.6,0,50.4c-253.2,0-506.5,0-759.7,0c0-253.2,0-506.5,0-759.7C30.5,20.1,40.9,20.1,51.2,20.1z"/>
		<path class="st1" d="M779.9,412.6c-0.5-1-1.3-1.8-1.6-2.9c-8.1-29.2-30.8-47-61.1-47.3c-29.8-0.3-59.7-0.1-89.5-0.1
			c-2.3,0-4.7,0-7,0c24-14.6,45.3-31.7,63.7-53.6c5.5,6.2,11.9,5.2,18.8,2.8c20-6.9,40.1-13.3,60-20.4c5.9-2.1,11.2-5.9,16.8-8.9
			C779.9,325.7,779.9,369.1,779.9,412.6z"/>
		<path class="st1" d="M411.8,507.9c16.1-14.1,17-33.6,18.6-52.8c1.9-22.3,4-44.7,6-67.5c2.3-0.1,4.4-0.4,6.6-0.4
			c90.6,0,181.1,0,271.7,0c26.2,0,40.7,14.4,40.7,40.7c0,78.7,0,157.4,0,236.1c0,26.3-14.5,40.9-40.6,40.9c-209.2,0-418.5,0-627.7,0
			c-26.2,0-40.9-14.6-40.9-40.7c0-79,0-157.9,0-236.9c0-25.4,14.6-40.2,39.7-40.2c82.4-0.1,164.8,0,247.2,0c1.9,0,3.9,0.2,6.6,0.3
			c0,4.6,0,9,0,13.3c0,26.6,0.3,53.3-0.1,79.9c-0.3,18.7,7.6,31.6,24.6,39c0,20.8,0,41.7,0,62.5c24.8,0,48.8,0,72.8,0
			c0-24.5,0-48.5,0-72.5C428.3,509.1,420,508.5,411.8,507.9z M71,411.7c0,89.8,0,179.2,0,268.5c49,0,97.4,0,145.9,0
			c0-89.7,0-178.9,0-268.5C168.3,411.7,120,411.7,71,411.7z M730.7,411.7c-1.9-0.2-3.1-0.4-4.2-0.4c-53.5,0-107,0-160.5-0.1
			c-5.5,0-6.6,2.2-6.5,7c0.2,18.5,0.1,37,0.1,55.5c0,3.6,0,7.2,0,10.8c57.7,0,114.3,0,171.2,0C730.7,460.2,730.7,436.3,730.7,411.7z
			 M462.1,484.6c24.4,0,48.4,0,72.9,0c0-24.4,0-48.4,0-72.9c-24.4,0-48.4,0-72.9,0C462.1,436.2,462.1,460.2,462.1,484.6z
			 M461.7,582.2c25,0,49.2,0,73.1,0c0-24.7,0-48.6,0-73.1c-23,0-45.4,0.1-67.8-0.1c-4.4,0-5.4,2.1-5.3,5.9c0.1,14.3,0,28.6,0,42.9
			C461.7,565.9,461.7,573.9,461.7,582.2z M559.4,582.2c25,0,49.2,0,73.1,0c0-24.6,0-48.6,0-73.1c-23.3,0-45.9-0.1-68.5,0.2
			c-1.6,0-4.3,3.6-4.4,5.6c-0.5,9.3-0.2,18.7-0.2,28.1C559.4,556,559.4,568.9,559.4,582.2z M730.7,509.1c-23.5,0-46.1,0-68.7,0
			c-4.9,0-4.7,3.1-4.7,6.5c0,20.9,0,41.9,0.1,62.8c0,1.4,0.6,2.7,0.8,3.9c24.4,0,48.4,0,72.6,0C730.7,557.8,730.7,534,730.7,509.1z
			 M535,607c-23.5,0-46.6-0.1-69.6,0.3c-1.3,0-3.5,3.7-3.5,5.7c-0.3,12.8-0.2,25.6-0.2,38.4c0,9.5,0,19.1,0,28.9c25,0,48.9,0,73.3,0
			C535,655.8,535,631.8,535,607z M559.4,680c25.3,0,49.3,0,73.1,0c0-24.6,0-48.6,0-73.1c-23.2,0-45.9-0.1-68.5,0.2
			c-1.6,0-4.3,3.5-4.4,5.5c-0.5,7.8-0.2,15.7-0.2,23.6C559.4,650.8,559.4,665.2,559.4,680z M730.7,606.9c-23.4,0-46.1,0-68.7,0
			c-5.5,0-4.8,3.7-4.8,7.1c0,19.9,0,39.9,0,59.8c0,2.1,0.3,4.2,0.5,6.2c24.7,0,48.7,0,73,0C730.7,655.7,730.7,631.8,730.7,606.9z
			 M437.6,680.3c0-23.5,0.1-46.4-0.2-69.3c0-1.4-3.5-3.9-5.4-3.9c-20.7-0.3-41.4-0.1-62.2-0.2c-4.5,0-6.1,1.5-6,6
			c0.2,14.1,0.1,28.1,0.1,42.2c0,8.3,0,16.6,0,25.2C388.7,680.3,412.6,680.3,437.6,680.3z M315,643.8c0-20.3-16.5-36.7-36.6-36.7
			c-20.2,0-36.5,16.5-36.5,36.8c0,20.3,16.5,36.7,36.6,36.7C298.7,680.5,315,664.1,315,643.8z M315,448.3
			c0-20.3-16.3-36.8-36.4-36.9c-20.1-0.1-36.6,16.4-36.6,36.7c-0.1,20.3,16.3,36.8,36.4,36.9C298.5,485,315,468.5,315,448.3z
			 M315,546.3c0.1-20.4-16-36.9-36.2-37.1c-20.1-0.3-36.7,16.2-36.9,36.5c-0.1,20.3,16.1,36.9,36.2,37.1
			C298.3,583,314.9,566.5,315,546.3z"/>
		<path class="st1" d="M388.8,221.3c0-50.8,0-101,0-151.7c-24.6,0-48.6,0-73.3,0c0,48.2,0,96.7,0,145.7c-8.3,0-16.1,0-24.5,0
			c0-32.1,0-64.3,0-96.9c-24.7,0-48.8,0-73.3,0c0,40.4,0,80.7,0,121.8c50.3,0,100.7,0,151.9,0c-5,8.1-9.2,15.5-14.1,22.4
			c-1.1,1.6-4.7,2-7.1,2c-32.8,0.1-65.6,0.1-98.5,0.1c-2.4,0-4.8,0-8,0c0,13.6,0.2,26.6-0.2,39.6c-0.1,3-2.3,5.9-3.6,8.8
			c-2.7-1.3-5.9-2.1-8-4.1c-13.6-13.3-26.8-26.9-40.5-40.1c-2.5-2.4-6.7-4.1-10.1-4.1c-39-0.3-78-0.2-117-0.2
			c-12.6,0-16.4-3.7-16.4-16.3c0-62.4,0-124.9,0-187.3c0-12.6,3.8-16.4,16.3-16.4c111.3,0,222.6,0,333.9,0
			c13.1,0,16.5,3.6,16.5,16.8c0,46.1-0.1,92.3,0.1,138.4c0,4.9-1.5,7.4-5.7,9.7C401.2,212.8,395.6,216.9,388.8,221.3z M107.4,240
			c8.5,0,16.1,0,24.3,0c0-8.2,0-16,0-23.6c1.1-0.4,1.5-0.6,2-0.7c21.9-2.6,35.8-18.5,34.6-39.4c-1.1-19.5-17.3-33.6-38.7-33.8
			c-7.6-0.1-15.3,0.3-22.9-0.3c-7.4-0.5-11.8-6-11.4-12.9c0.4-6.5,5.1-11.1,12.2-11.4c5.7-0.3,11.4,0.2,17-0.1
			c9.7-0.6,17.9,0.8,19.8,11.9c8.4,0,16,0,25.6,0c-3-7.5-4.7-14.4-8.3-20.2c-6.7-10.7-17.4-15.4-30.4-16.2c0-8.5,0-16.2,0-23.9
			c-8.3,0-15.8,0-24.1,0c0,8.1,0,15.9,0,23.7c-1.6,0.3-2.5,0.6-3.4,0.7c-20.4,2.8-34.2,18.7-33.2,38.4c1,19.5,16.9,34.2,37.3,34.6
			c7.4,0.1,14.8-0.1,22.2,0.1c8.3,0.1,13.8,5.1,13.8,12.3c0,7.2-5.3,12-13.8,12.2c-7.2,0.2-14.3,0.1-21.5,0
			c-6.2-0.1-10.8-2.6-13-8.9c-0.5-1.3-1.9-3.3-3-3.4c-7.2-0.3-14.5-0.2-24.3-0.2c3.8,8.7,5.9,16,9.9,22.2c6.6,10,17.2,14,29.2,15.1
			C107.4,224.4,107.4,232,107.4,240z"/>
		<path class="st2" d="M613.7,187.6c10.9,18.7,21.6,37,32.3,55.3c7.6,13,15,26,22.8,38.9c2,3.3,1.8,5.4-0.6,8.4
			c-37.7,45.2-85.7,70.3-144.8,72c-35,1-70.1,0.2-105.1,0.2c-1.7,0-3.4-0.3-5-0.4c1-27.4,21.2-47.6,48.2-48.3
			c14.5-0.4,29.2-0.8,43.7,0.1c26,1.6,46.7-7.5,62.7-28.3c-5.4-5.2-11.1-10.6-17.1-16.2c0.2-0.1-0.4-0.1-0.6,0.2
			c-12.9,16.6-30,21.2-50.4,20.2c-17.7-0.9-35.7-1.1-53.1,1.8c-30.5,4.9-53.6,31.2-57.5,61.7c-2.5,19.4,3.1,28.3,22.6,34.7
			c-1.1,12-2.2,24.2-3.4,36.4c-1.5,16.2-2.8,32.4-4.5,48.6c-1.3,12.1-10.1,21.4-21.9,23.9c-10.9,2.3-17.8-3.1-17.9-14.4
			c-0.1-11.6,0-23.2,0-34.8c0-39.5-0.1-79,0-118.4c0.1-64.9,48.3-113.1,113.1-113.2c15.5,0,31.1-0.4,46.6,0.1
			C556.6,216.7,586.4,207.8,613.7,187.6z"/>
		<path class="st1" d="M624.7,157.8c43.6-33.5,86.5-66.5,130.7-100.5c0,4,0,6.4,0,8.7c0,64.9-0.1,129.8,0.1,194.7
			c0,5.5-1.3,8.2-6.9,9.8c-16,4.8-31.8,10.4-48.7,16.1C675,244.1,650,201.3,624.7,157.8z"/>
		<path class="st3" d="M754.4,717.6c1.3,16.9-12.2,33.1-29.3,35.6c-3.6,0.5-7.4,0.6-11.1,0.6c-209,0-417.9,0-626.9,0
			c-23.6,0-39.4-13.2-40.7-33.8c0-0.5,0.2-0.9,0.5-2.6c17.9,14.4,38.8,12.2,59.3,12.2c200.1,0,400.2-0.1,600.3,0.1
			C723.6,729.6,740,728.5,754.4,717.6z"/>
		<path class="st4" d="M411.8,507.9c8.2,0.6,16.5,1.3,25.3,1.9c0,23.9,0,47.9,0,72.5c-24.1,0-48,0-72.8,0c0-20.8,0-41.7,0-62.5
			C382.2,524.3,397.9,519.7,411.8,507.9z"/>
		<path class="st3" d="M363.7,94c0,40.5,0,80.7,0,121.3c-7.7,0-15.4,0-23.5,0c0-40.3,0-80.6,0-121.3C347.8,94,355.4,94,363.7,94z"/>
		<path class="st3" d="M265.9,142.9c0,24.3,0,48.1,0,72.3c-7.8,0-15.5,0-23.6,0c0-24.1,0-48,0-72.3
			C250.1,142.9,257.6,142.9,265.9,142.9z"/>
		<path class="st5" d="M71,411.7c49,0,97.3,0,145.9,0c0,89.6,0,178.8,0,268.5c-48.5,0-97,0-145.9,0C71,590.9,71,501.5,71,411.7z
			 M95.4,436.3c0,73.4,0,146.2,0,219.2c32.5,0,64.7,0,97,0c0-73.3,0-146.2,0-219.2C159.9,436.3,127.9,436.3,95.4,436.3z"/>
		<path class="st4" d="M730.7,411.7c0,24.6,0,48.4,0,72.8c-56.9,0-113.5,0-171.2,0c0-3.6,0-7.2,0-10.8c0-18.5,0.1-37-0.1-55.5
			c-0.1-4.8,1-7.1,6.5-7c53.5,0.2,107,0.1,160.5,0.1C727.6,411.3,728.8,411.5,730.7,411.7z"/>
		<path class="st4" d="M462.1,484.6c0-24.4,0-48.4,0-72.9c24.4,0,48.4,0,72.9,0c0,24.4,0,48.4,0,72.9
			C510.5,484.6,486.5,484.6,462.1,484.6z"/>
		<path class="st4" d="M461.7,582.2c0-8.2,0-16.3,0-24.4c0-14.3,0.1-28.6,0-42.9c0-3.8,0.9-6,5.3-5.9c22.4,0.1,44.8,0.1,67.8,0.1
			c0,24.4,0,48.4,0,73.1C510.9,582.2,486.7,582.2,461.7,582.2z"/>
		<path class="st4" d="M559.4,582.2c0-13.2,0-26.2,0-39.2c0-9.4-0.3-18.7,0.2-28.1c0.1-2,2.8-5.5,4.4-5.6
			c22.6-0.4,45.3-0.2,68.5-0.2c0,24.5,0,48.5,0,73.1C608.6,582.2,584.5,582.2,559.4,582.2z"/>
		<path class="st4" d="M730.7,509.1c0,24.9,0,48.7,0,73.1c-24.1,0-48.1,0-72.6,0c-0.3-1.1-0.8-2.5-0.8-3.9
			c-0.1-20.9,0-41.9-0.1-62.8c0-3.3-0.1-6.5,4.7-6.5C684.6,509.1,707.2,509.1,730.7,509.1z"/>
		<path class="st4" d="M535,607c0,24.8,0,48.8,0,73.2c-24.4,0-48.4,0-73.3,0c0-9.8,0-19.3,0-28.9c0-12.8-0.2-25.6,0.2-38.4
			c0.1-2,2.3-5.7,3.5-5.7C488.4,606.9,511.5,607,535,607z"/>
		<path class="st4" d="M559.4,680c0-14.8,0-29.2,0-43.7c0-7.9-0.3-15.8,0.2-23.6c0.1-2,2.9-5.5,4.4-5.5c22.6-0.4,45.2-0.2,68.5-0.2
			c0,24.5,0,48.5,0,73.1C608.8,680,584.8,680,559.4,680z"/>
		<path class="st4" d="M730.7,606.9c0,24.9,0,48.8,0,73.2c-24.2,0-48.2,0-73,0c-0.2-2-0.5-4.1-0.5-6.2c0-19.9,0-39.9,0-59.8
			c0-3.4-0.7-7.2,4.8-7.1C684.7,606.9,707.3,606.9,730.7,606.9z"/>
		<path class="st4" d="M437.6,680.3c-25,0-48.9,0-73.7,0c0-8.6,0-16.9,0-25.2c0-14.1,0.1-28.1-0.1-42.2c-0.1-4.5,1.6-6.1,6-6
			c20.7,0.1,41.4,0,62.2,0.2c1.9,0,5.3,2.5,5.4,3.9C437.7,633.8,437.6,656.7,437.6,680.3z"/>
		<path class="st5" d="M315,643.8c0,20.3-16.3,36.8-36.5,36.8c-20.1,0-36.6-16.4-36.6-36.7c0-20.3,16.3-36.8,36.5-36.8
			C298.6,607,315,623.5,315,643.8z M290.7,643.5c-0.2-6.6-6-12-12.6-11.8c-6.6,0.2-12.1,6-11.9,12.5c0.2,6.7,5.9,11.9,12.6,11.7
			C285.5,655.7,290.9,650,290.7,643.5z"/>
		<path class="st5" d="M315,448.3c0,20.2-16.5,36.7-36.7,36.7c-20.1-0.1-36.5-16.6-36.4-36.9c0.1-20.3,16.6-36.8,36.6-36.7
			C298.7,411.5,315,428,315,448.3z M290.7,447.8c-0.2-6.6-5.9-11.9-12.7-11.7c-6.7,0.2-12.1,5.8-11.9,12.4
			c0.2,6.7,5.8,11.9,12.6,11.7C285.5,460.1,290.9,454.4,290.7,447.8z"/>
		<path class="st5" d="M315,546.3c-0.1,20.2-16.8,36.6-36.9,36.4c-20.1-0.2-36.3-16.8-36.2-37.1c0.1-20.3,16.8-36.7,36.9-36.5
			C299,509.5,315.1,526,315,546.3z M278.3,558.1c6.8,0.1,12.3-5.3,12.4-12c0.1-6.6-5.5-12.2-12.2-12.2c-6.7,0-12.3,5.4-12.4,12
			C266.1,552.6,271.6,558,278.3,558.1z"/>
		<path class="st6" d="M107.4,240c0-8,0-15.6,0-23.8c-11.9-1.1-22.6-5-29.2-15.1c-4-6.1-6.2-13.5-9.9-22.2c9.8,0,17-0.1,24.3,0.2
			c1.1,0,2.5,2,3,3.4c2.2,6.3,6.8,8.8,13,8.9c7.2,0.1,14.3,0.2,21.5,0c8.5-0.2,13.8-5,13.8-12.2c0-7.1-5.5-12.1-13.8-12.3
			c-7.4-0.1-14.8,0.1-22.2-0.1c-20.4-0.3-36.3-15.1-37.3-34.6c-1-19.7,12.8-35.7,33.2-38.4c0.9-0.1,1.9-0.4,3.4-0.7
			c0-7.9,0-15.6,0-23.7c8.2,0,15.8,0,24.1,0c0,7.7,0,15.4,0,23.9c13,0.8,23.7,5.5,30.4,16.2c3.6,5.8,5.3,12.8,8.3,20.2
			c-9.7,0-17.2,0-25.6,0c-1.9-11-10.2-12.4-19.8-11.9c-5.7,0.3-11.4-0.1-17,0.1c-7.1,0.3-11.8,4.9-12.2,11.4
			c-0.4,6.9,3.9,12.4,11.4,12.9c7.6,0.6,15.3,0.2,22.9,0.3c21.4,0.2,37.6,14.3,38.7,33.8c1.2,20.9-12.7,36.8-34.6,39.4
			c-0.5,0.1-0.9,0.3-2,0.7c0,7.6,0,15.4,0,23.6C123.5,240,116,240,107.4,240z"/>
		<path class="st1" d="M95.4,436.3c32.5,0,64.5,0,97,0c0,73,0,145.9,0,219.2c-32.3,0-64.5,0-97,0C95.4,582.5,95.4,509.8,95.4,436.3z
			"/>
		<path class="st7" d="M290.7,643.5c0.2,6.6-5.2,12.2-11.9,12.4c-6.8,0.2-12.4-5-12.6-11.7c-0.2-6.5,5.3-12.3,11.9-12.5
			C284.7,631.5,290.5,636.9,290.7,643.5z"/>
		<path class="st8" d="M290.7,447.8c0.2,6.6-5.2,12.3-11.9,12.4c-6.8,0.2-12.4-5-12.6-11.7c-0.2-6.6,5.2-12.2,11.9-12.4
			C284.8,435.9,290.5,441.2,290.7,447.8z"/>
		<path class="st8" d="M278.3,558.1c-6.8-0.1-12.2-5.5-12.2-12.2c0.1-6.6,5.6-12,12.4-12c6.7,0,12.2,5.6,12.2,12.2
			C290.7,552.7,285.1,558.1,278.3,558.1z"/>
	</g>
</g>
</svg>
