<?xml version="1.0" encoding="utf-8"?>
<!-- Generator: Adobe Illustrator 25.2.1, SVG Export Plug-In . SVG Version: 6.00 Build 0)  -->
<svg version="1.1" id="Layer_1" xmlns="http://www.w3.org/2000/svg" xmlns:xlink="http://www.w3.org/1999/xlink" x="0px" y="0px"
	 viewBox="0 0 800 800" style="enable-background:new 0 0 800 800;" xml:space="preserve">
<style type="text/css">
	.st0{fill:#FEFEFE;}
	.st1{fill:#22d16b;}
	.st2{fill:#FDFDFD;}
	.st3{fill:#FBFBFB;}
	.st4{fill:#030301;}
	.st5{fill:#ffffff;}
	.st6{fill:#030201;}
</style>
<g>
	<g>
		<path class="st0" d="M683.6,387.1c-57.9,0-114.9,0-172.5,0c0,16.4,0,32.4,0,49c-8.4,0-16.2,0-24.7,0c0,43.4,0,86.3,0,129.6
			c-3.9-1.1-7.1-2.4-10.3-2.7c-10.6-0.8-15.8-5.8-19.9-16.3c-9.5-24.5-34.1-38.7-59-36.9c-26.7,1.9-47.5,18.7-55.4,44.6
			c-0.7,2.1-2.2,5.1-3.9,5.6c-7.5,2.2-15.3,3.5-23.6,5.4c0-43.4,0-86.4,0-129.9c-8.4,0-16.2,0-24.6,0c0-16.6,0-32.6,0-48.5
			c-57.6,0-114.6,0-172.2,0c0,16.4,0,32.4,0,49c-8.4,0-16.2,0-24.6,0c0,106.8,0,212.9,0,319.7c-8.4,0-16.2,0-23.9,0
			c0,8.4,0,16.2,0,23.9c221.4,0,442.4,0,663.3,0c0-8.2,0-16,0-24.4c-8.2,0-16,0-24.4,0c0-106.8,0-212.9,0-319.7
			c-8.4,0-16.2,0-24.3,0C683.6,419.2,683.6,403.3,683.6,387.1z M585.2,205.2c-0.1-27.6-4.7-53.8-16.3-78.1
			c-28.3-59.4-74.6-95.6-139.8-106.7c-42.5-7.2-82.7,0.4-119.8,22c-51.3,29.9-82,74.7-91,133.4c-7.4,48.2,1.7,93.9,30.5,133.5
			c39,53.6,79.9,105.8,120.2,158.4c3.1,4,6.8,7.8,10.9,10.7c17.5,12.3,38.7,7.4,53.6-12.1c36.2-47.4,72.2-95,108.7-142.1
			C569.7,288.8,585,249.4,585.2,205.2z M19.7,755.9c0,8.1,0,15.9,0,24c8.1,0,15.9,0,24,0c0-8.1,0-15.9,0-24
			C35.6,755.9,27.8,755.9,19.7,755.9z M757.7,779.9c8.1,0,15.9,0,24,0c0-8.1,0-15.9,0-24c-8.1,0-15.9,0-24,0
			C757.7,764,757.7,771.7,757.7,779.9z"/>
		<path d="M683.6,387.1c0,16.3,0,32.1,0,48.5c8.1,0,15.9,0,24.3,0c0,106.8,0,212.9,0,319.7c8.4,0,16.2,0,24.4,0c0,8.4,0,16.2,0,24.4
			c-220.9,0-441.9,0-663.3,0c0-7.7,0-15.5,0-23.9c7.6,0,15.5,0,23.9,0c0-106.8,0-212.9,0-319.7c8.4,0,16.2,0,24.6,0
			c0-16.6,0-32.6,0-49c57.6,0,114.6,0,172.2,0c0,15.9,0,31.9,0,48.5c8.4,0,16.2,0,24.6,0c0,43.5,0,86.4,0,129.9
			c8.3-1.8,16.1-3.2,23.6-5.4c1.7-0.5,3.3-3.5,3.9-5.6c7.9-25.9,28.7-42.7,55.4-44.6c24.9-1.8,49.5,12.4,59,36.9
			c4.1,10.6,9.3,15.5,19.9,16.3c3.2,0.2,6.4,1.6,10.3,2.7c0-43.4,0-86.2,0-129.6c8.4,0,16.3,0,24.7,0c0-16.6,0-32.6,0-49
			C568.7,387.1,625.7,387.1,683.6,387.1z M289.7,485c0-8.1,0-16.2,0-24.1c-57.6,0-114.6,0-171.7,0c0,8.3,0,16.2,0,24.1
			c0,41,0,82,0,123c0,49.1,0,98.1,0,147.1c33,0,65.4,0,98.4,0c0-41,0-81.6,0-122.5c8.3,0,15.9,0.1,23.6-0.1c1.8,0,4.5-0.5,5.2-1.8
			c4.3-7.3,8.2-14.9,12.5-23c-6.2,0-11.6,0-17,0c0-8,0-16.1,0-23.8c8.8,0,16.6,0,24.9,0c0,5,0,9.4,0,14.1
			c7.5-6.1,14.6-11.8,21.4-17.8c1.5-1.3,2.7-3.7,2.7-5.7C289.9,544.7,289.8,514.9,289.7,485z M683.3,485c0-8.1,0-16.2,0-24.1
			c-57.6,0-114.6,0-171.7,0c0,8.3,0,16.2,0,24.1c-0.1,29.9-0.2,59.7-0.2,89.6c0,1.6,0.5,3.8,1.5,4.7c7.4,6.3,15,12.4,23.3,19.1
			c0-5.5,0-10,0-14.6c8.3,0,16,0,24.3,0c0,8.3,0,16.1,0,24c-5.5,0-11,0-17.1,0c4.1,7.5,7.9,13.8,11,20.4c1.7,3.6,3.8,4.7,7.6,4.5
			c7.6-0.3,15.2-0.1,23.4-0.1c0,41.4,0,82,0,122.5c33,0,65.4,0,97.9,0c0-49.3,0-98.2,0-147.1C683.3,567,683.3,526,683.3,485z
			 M265.3,682.2c25.1,0,49.3,0,74.1,0c0,24.6,0,48.8,0,72.9c8.4,0,16.2,0,24.6,0c0-24.6,0-48.8,0-72.9c24.8,0,49,0,73.8,0
			c0,24.6,0,48.8,0,72.9c8.4,0,16.2,0,24.6,0c0-24.6,0-48.8,0-72.9c24.8,0,49,0,73.8,0c0,24.6,0,48.8,0,72.9c8.4,0,16.2,0,23.9,0
			c0-32.8,0-65.2,0-97.5c-106.6,0-212.8,0-318.9,0c0,32.8,0,65.2,0,97.5c8.2,0,16,0,24.1,0C265.3,730.7,265.3,706.7,265.3,682.2z
			 M272.6,631.9c85.8,0,170.7,0,256.5,0c-20.1-31.7-47.9-48.1-84.6-48.5c-29.2-0.3-58.4-0.1-87.6,0c-5.9,0-11.8,0.5-17.6,1.5
			C310.1,590.3,288.1,606,272.6,631.9z M265.2,411.7c-41.3,0-81.9,0-122.4,0c0,8.2,0,16,0,23.7c41,0,81.6,0,122.4,0
			C265.2,427.3,265.2,419.7,265.2,411.7z M658.7,411.8c-41.1,0-81.8,0-122.2,0c0,8.4,0,16.2,0,23.5c41.1,0,81.7,0,122.2,0
			C658.7,427.1,658.7,419.5,658.7,411.8z M434.7,558.7c-6.1-16.3-20.4-25.5-36.7-24.3c-14.7,1.1-28.2,11.7-30.7,24.3
			C389.6,558.7,411.8,558.7,434.7,558.7z M314.1,755.4c0-16.7,0-32.7,0-48.6c-8.2,0-16,0-23.7,0c0,16.4,0,32.4,0,48.6
			C298.4,755.4,306.1,755.4,314.1,755.4z M412.8,706.8c-8.5,0-16.3,0-23.9,0c0,16.5,0,32.5,0,48.3c8.3,0,16.1,0,23.9,0
			C412.8,738.8,412.8,723,412.8,706.8z M486.9,755.1c8.5,0,16.3,0,24,0c0-16.4,0-32.4,0-48.3c-8.2,0-16,0-24,0
			C486.9,723.1,486.9,738.9,486.9,755.1z"/>
		<path class="st1" d="M585.2,205.2c-0.2,44.3-15.5,83.7-43,119c-36.6,47.1-72.5,94.7-108.7,142.1c-14.9,19.4-36.1,24.4-53.6,12.1
			c-4.1-2.9-7.9-6.7-10.9-10.7c-40.2-52.7-81.2-104.9-120.2-158.4C220,269.6,211,224,218.3,175.7c9-58.7,39.7-103.5,91-133.4
			c37.1-21.6,77.3-29.2,119.8-22C494.3,31.4,540.6,67.7,568.9,127C580.5,151.4,585.1,177.5,585.2,205.2z M536,202.5
			c0.3-74.3-60.7-135.5-135.1-135.6c-74.1-0.1-134.9,60.2-135.5,134.5c-0.6,74.2,60.2,135.6,134.7,136
			C474.4,337.9,535.7,277.1,536,202.5z"/>
		<path d="M19.7,755.9c8.1,0,15.9,0,24,0c0,8.1,0,15.9,0,24c-8.1,0-15.9,0-24,0C19.7,771.7,19.7,764,19.7,755.9z"/>
		<path d="M757.7,779.9c0-8.1,0-15.9,0-24c8.1,0,15.9,0,24,0c0,8.1,0,15.9,0,24C773.5,779.9,765.8,779.9,757.7,779.9z"/>
		<path class="st0" d="M240.8,607.8c5.4,0,10.7,0,17,0c-4.4,8.1-8.2,15.7-12.5,23c-0.7,1.2-3.4,1.7-5.2,1.8
			c-7.7,0.2-15.3,0.1-23.6,0.1c0,40.9,0,81.5,0,122.5c-33,0-65.4,0-98.4,0c0-48.9,0-98,0-147.1c8.1-0.1,16.3-0.2,24.4-0.2
			c8.2,0,16.3,0,24.5,0c8.2,0,16.5,0,24.7,0c8.2,0,16.3,0,24.5,0C224.3,607.8,232.6,607.8,240.8,607.8z"/>
		<path class="st0" d="M683.3,608c0,48.9,0,97.8,0,147.1c-32.5,0-64.9,0-97.9,0c0-40.5,0-81.1,0-122.5c-8.2,0-15.8-0.2-23.4,0.1
			c-3.8,0.2-5.9-0.9-7.6-4.5c-3.2-6.6-6.9-12.9-11-20.4c6.1,0,11.6,0,17.1,0c8.2,0,16.5,0,24.7,0c8.2,0,16.3,0,24.5,0
			c8.2,0,16.5,0,24.7,0c8.2,0,16.3,0,24.5,0C667,607.9,675.2,607.9,683.3,608z"/>
		<path class="st1" d="M585.2,607.8c-8.2,0-16.5,0-24.7,0c0-7.9,0-15.7,0-24c-8.3,0-16,0-24.3,0c0,4.6,0,9.2,0,14.6
			c-8.3-6.7-15.9-12.8-23.3-19.1c-1.1-0.9-1.5-3.1-1.5-4.7c0-29.9,0.1-59.7,0.2-89.6c8.1,0.1,16.3,0.2,24.4,0.2c0,8,0,16,0,23.9
			c8.7,0,16.4,0,24.5,0c0-8.3,0-16.1,0-23.9c8.2,0,16.5,0,24.7,0c0,8,0,16,0,23.9c8.7,0,16.4,0,24.5,0c0-8.3,0-16.1,0-23.9
			c8.2,0,16.5,0,24.7,0c0,8,0,16,0,23.9c8.7,0,16.4,0,24.5,0c0-8.3,0-16.1,0-23.9c8.1-0.1,16.3-0.2,24.4-0.2c0,41,0,82,0,123
			c-8.1-0.1-16.3-0.2-24.4-0.2c0-8,0-16,0-23.9c-8.7,0-16.4,0-24.5,0c0,8.3,0,16.1,0,23.9c-8.2,0-16.5,0-24.7,0c0-8,0-16,0-23.9
			c-8.7,0-16.4,0-24.5,0C585.2,592.1,585.2,600,585.2,607.8z M560.1,558.6c0-8.3,0-16.1,0-23.9c-8.2,0-15.9,0-23.8,0
			c0,8.2,0,15.9,0,23.9C544.4,558.6,551.9,558.6,560.1,558.6z M585.4,558.3c8.5,0,16.2,0,23.9,0c0-8.2,0-16,0-23.7
			c-8.2,0-16,0-23.9,0C585.4,542.7,585.4,550.3,585.4,558.3z M658.5,558.6c0-8.5,0-16.3,0-23.9c-8.2,0-16,0-23.6,0
			c0,8.2,0,16,0,23.9C642.9,558.6,650.5,558.6,658.5,558.6z"/>
		<path class="st1" d="M142.4,607.8c-8.1,0.1-16.3,0.2-24.4,0.2c0-41,0-82,0-123c8.1,0.1,16.3,0.2,24.4,0.2c0,8,0,16,0,23.9
			c8.7,0,16.4,0,24.5,0c0-8.3,0-16.1,0-23.9c8.2,0,16.5,0,24.7,0c0,8,0,16,0,23.9c8.7,0,16.4,0,24.5,0c0-8.3,0-16.1,0-23.9
			c8.2,0,16.5,0,24.7,0c0,8,0,16,0,23.9c8.7,0,16.4,0,24.5,0c0-8.3,0-16.1,0-23.9c8.1-0.1,16.3-0.2,24.4-0.2
			c0.1,29.9,0.2,59.7,0.1,89.6c0,1.9-1.2,4.4-2.7,5.7c-6.8,6-14,11.6-21.4,17.8c0-4.6,0-9.1,0-14.1c-8.3,0-16.1,0-24.9,0
			c0,7.7,0,15.8,0,23.8c-8.2,0-16.5,0-24.7,0c0-8,0-16,0-23.9c-8.7,0-16.4,0-24.5,0c0,8.3,0,16.1,0,23.9c-8.2,0-16.5,0-24.7,0
			c0-8,0-16,0-23.9c-8.7,0-16.4,0-24.5,0C142.4,592.1,142.4,600,142.4,607.8z M166.7,534.8c-8.6,0-16.4,0-23.7,0
			c0,8.3,0,16.1,0,23.5c8.3,0,16.1,0,23.7,0C166.7,550.1,166.7,542.5,166.7,534.8z M192.2,534.6c0,7.7,0,15.7,0,23.9
			c7.8,0,15.6,0,23.7,0c0-8.1,0-15.8,0-23.9C207.9,534.6,200.4,534.6,192.2,534.6z M265.1,534.7c-8.5,0-16.3,0-23.8,0
			c0,8.3,0,16,0,23.6c8.3,0,16,0,23.8,0C265.1,550.2,265.1,542.7,265.1,534.7z"/>
		<path class="st0" d="M265.3,682.2c0,24.5,0,48.5,0,72.9c-8.1,0-15.9,0-24.1,0c0-32.3,0-64.7,0-97.5c106.1,0,212.3,0,318.9,0
			c0,32.3,0,64.7,0,97.5c-7.7,0-15.5,0-23.9,0c0-24.1,0-48.3,0-72.9c-24.8,0-49,0-73.8,0c0,24.1,0,48.3,0,72.9c-8.4,0-16.2,0-24.6,0
			c0-24.1,0-48.3,0-72.9c-24.8,0-49,0-73.8,0c0,24.1,0,48.3,0,72.9c-8.4,0-16.2,0-24.6,0c0-24.1,0-48.3,0-72.9
			C314.6,682.2,290.4,682.2,265.3,682.2z"/>
		<path class="st2" d="M272.6,631.9c15.5-25.9,37.5-41.6,66.8-46.9c5.8-1.1,11.7-1.5,17.6-1.5c29.2-0.2,58.4-0.3,87.6,0
			c36.7,0.4,64.5,16.8,84.6,48.5C443.3,631.9,358.4,631.9,272.6,631.9z"/>
		<path class="st0" d="M240.8,485.3c-8.2,0-16.5,0-24.7,0c-8.2,0-16.3,0-24.5,0c-8.2,0-16.5,0-24.7,0c-8.2,0-16.3,0-24.5,0
			c-8.1-0.1-16.3-0.2-24.4-0.2c0-7.9,0-15.8,0-24.1c57.1,0,114.1,0,171.7,0c0,8,0,16,0,24.1c-8.1,0.1-16.3,0.2-24.4,0.2
			C257.1,485.3,249,485.3,240.8,485.3z"/>
		<path class="st0" d="M634.4,485.3c-8.2,0-16.5,0-24.7,0c-8.2,0-16.3,0-24.5,0c-8.2,0-16.5,0-24.7,0c-8.2,0-16.3,0-24.5,0
			c-8.1-0.1-16.3-0.2-24.4-0.2c0-7.9,0-15.8,0-24.1c57.1,0,114.1,0,171.7,0c0,8,0,16,0,24.1c-8.1,0.1-16.3,0.2-24.4,0.2
			C650.7,485.3,642.6,485.3,634.4,485.3z"/>
		<path class="st0" d="M265.2,411.7c0,8.1,0,15.7,0,23.7c-40.8,0-81.3,0-122.4,0c0-7.7,0-15.5,0-23.7
			C183.3,411.7,223.9,411.7,265.2,411.7z"/>
		<path class="st0" d="M658.7,411.8c0,7.7,0,15.3,0,23.5c-40.4,0-81,0-122.2,0c0-7.3,0-15.1,0-23.5
			C576.9,411.8,617.6,411.8,658.7,411.8z"/>
		<path class="st3" d="M434.7,558.7c-22.8,0-45.1,0-67.4,0c2.5-12.6,16-23.3,30.7-24.3C414.2,533.2,428.6,542.4,434.7,558.7z"/>
		<path class="st0" d="M314.1,755.4c-8.1,0-15.7,0-23.7,0c0-16.2,0-32.1,0-48.6c7.7,0,15.5,0,23.7,0
			C314.1,722.7,314.1,738.7,314.1,755.4z"/>
		<path class="st0" d="M412.8,706.8c0,16.2,0,32,0,48.3c-7.9,0-15.7,0-23.9,0c0-15.8,0-31.8,0-48.3
			C396.4,706.8,404.2,706.8,412.8,706.8z"/>
		<path class="st0" d="M486.9,755.1c0-16.3,0-32.1,0-48.3c8,0,15.8,0,24,0c0,15.9,0,31.9,0,48.3
			C503.2,755.1,495.4,755.1,486.9,755.1z"/>
		<path class="st4" d="M536,202.5c-0.3,74.5-61.6,135.4-135.8,134.9c-74.6-0.4-135.3-61.8-134.7-136
			c0.6-74.3,61.4-134.7,135.5-134.5C475.3,67.1,536.2,128.2,536,202.5z M511.3,202.5c0.2-60.6-49.3-110.5-110-111
			c-60.9-0.4-111.2,49.4-111.4,110.4c-0.2,60.6,49.3,110.5,110,111C460.9,313.3,511.1,263.5,511.3,202.5z"/>
		<path d="M142.4,607.8c0-7.8,0-15.6,0-23.9c8.1,0,15.8,0,24.5,0c0,7.9,0,15.9,0,23.9C158.8,607.8,150.6,607.8,142.4,607.8z"/>
		<path d="M191.6,607.8c0-7.8,0-15.6,0-23.9c8.1,0,15.8,0,24.5,0c0,7.9,0,15.9,0,23.9C207.9,607.8,199.8,607.8,191.6,607.8z"/>
		<path d="M585.2,607.8c0-7.8,0-15.6,0-23.9c8.1,0,15.8,0,24.5,0c0,7.9,0,15.9,0,23.9C601.5,607.8,593.4,607.8,585.2,607.8z"/>
		<path d="M634.4,607.8c0-7.8,0-15.6,0-23.9c8.1,0,15.8,0,24.5,0c0,7.9,0,15.9,0,23.9C650.7,607.8,642.6,607.8,634.4,607.8z"/>
		<path d="M560.1,558.6c-8.2,0-15.8,0-23.8,0c0-8,0-15.7,0-23.9c7.8,0,15.6,0,23.8,0C560.1,542.5,560.1,550.2,560.1,558.6z"/>
		<path d="M585.4,558.3c0-8.1,0-15.6,0-23.7c8,0,15.7,0,23.9,0c0,7.7,0,15.4,0,23.7C601.6,558.3,593.8,558.3,585.4,558.3z"/>
		<path d="M658.5,558.6c-8,0-15.6,0-23.6,0c0-7.9,0-15.7,0-23.9c7.6,0,15.4,0,23.6,0C658.5,542.3,658.5,550.1,658.5,558.6z"/>
		<path d="M536,485.3c8.2,0,16.3,0,24.5,0c0,7.8,0,15.6,0,23.9c-8.1,0-15.8,0-24.5,0C536,501.3,536,493.3,536,485.3z"/>
		<path d="M585.2,485.3c8.2,0,16.3,0,24.5,0c0,7.8,0,15.6,0,23.9c-8.1,0-15.8,0-24.5,0C585.2,501.3,585.2,493.3,585.2,485.3z"/>
		<path d="M634.4,485.3c8.2,0,16.3,0,24.5,0c0,7.8,0,15.6,0,23.9c-8.1,0-15.8,0-24.5,0C634.4,501.3,634.4,493.3,634.4,485.3z"/>
		<path d="M142.4,485.3c8.2,0,16.3,0,24.5,0c0,7.8,0,15.6,0,23.9c-8.1,0-15.8,0-24.5,0C142.4,501.3,142.4,493.3,142.4,485.3z"/>
		<path d="M191.6,485.3c8.2,0,16.3,0,24.5,0c0,7.8,0,15.6,0,23.9c-8.1,0-15.8,0-24.5,0C191.6,501.3,191.6,493.3,191.6,485.3z"/>
		<path d="M240.8,485.3c8.2,0,16.3,0,24.5,0c0,7.8,0,15.6,0,23.9c-8.1,0-15.8,0-24.5,0C240.8,501.3,240.8,493.3,240.8,485.3z"/>
		<path d="M166.7,534.8c0,7.8,0,15.3,0,23.5c-7.7,0-15.4,0-23.7,0c0-7.4,0-15.1,0-23.5C150.3,534.8,158.1,534.8,166.7,534.8z"/>
		<path d="M192.2,534.6c8.2,0,15.8,0,23.7,0c0,8.1,0,15.8,0,23.9c-8.1,0-15.8,0-23.7,0C192.2,550.2,192.2,542.3,192.2,534.6z"/>
		<path d="M265.1,534.7c0,7.9,0,15.5,0,23.6c-7.8,0-15.6,0-23.8,0c0-7.6,0-15.3,0-23.6C248.8,534.7,256.6,534.7,265.1,534.7z"/>
		<path class="st5" d="M511.3,202.5c-0.2,61-50.5,110.8-111.4,110.4c-60.7-0.4-110.2-50.3-110-111c0.2-61,50.5-110.8,111.4-110.4
			C462.1,92,511.5,141.9,511.3,202.5z M363.8,227.1c0.9,14.5,7.2,25.3,19.8,31.9c3.8,2,5.1,4,4.9,8.2c-0.3,6.8-0.1,13.7-0.1,20.7
			c8.5,0,16.3,0,24.6,0c0-7.3-0.4-14.2,0.2-21c0.2-2.6,2.2-6.1,4.4-7.4c14.8-8.7,22.4-23.7,19.4-39.2c-3.3-16.7-16.1-28.3-33.4-30.2
			c-9.9-1.1-15-5-15-12.1c0-6.4,3.4-10.6,9.6-12.2c6.6-1.7,11.6,2.1,15.4,11.5c7.9,0,15.8,0,24,0c-0.9-14.5-7.2-25.3-19.8-31.9
			c-3.8-2-5.1-4-4.9-8.2c0.3-6.8,0.1-13.7,0.1-20.7c-8.5,0-16.3,0-24.6,0c0,7.3,0.4,14.2-0.2,21c-0.2,2.6-2.2,6.1-4.4,7.4
			c-14.8,8.7-22.4,23.7-19.4,39.2c3.3,16.7,16.1,28.3,33.4,30.2c9.9,1.1,15,5,15,12.1c0,6.4-3.4,10.6-9.6,12.2
			c-6.6,1.7-11.6-2.1-15.4-11.5C379.9,227.1,372,227.1,363.8,227.1z"/>
		<path class="st6" d="M363.8,227.1c8.2,0,16.1,0,24,0c3.8,9.4,8.8,13.2,15.4,11.5c6.2-1.6,9.6-5.8,9.6-12.2c0-7.1-5.1-11-15-12.1
			c-17.2-1.9-30.1-13.5-33.4-30.2c-3.1-15.5,4.6-30.5,19.4-39.2c2.2-1.3,4.1-4.8,4.4-7.4c0.6-6.8,0.2-13.7,0.2-21
			c8.3,0,16.1,0,24.6,0c0,7,0.2,13.9-0.1,20.7c-0.2,4.1,1.1,6.2,4.9,8.2c12.5,6.6,18.9,17.3,19.8,31.9c-8.2,0-16.1,0-24,0
			c-3.8-9.4-8.8-13.2-15.4-11.5c-6.2,1.6-9.6,5.8-9.6,12.2c0,7.1,5.1,11,15,12.1c17.2,1.9,30.1,13.5,33.4,30.2
			c3.1,15.5-4.6,30.5-19.4,39.2c-2.2,1.3-4.1,4.8-4.4,7.4c-0.6,6.8-0.2,13.7-0.2,21c-8.3,0-16.1,0-24.6,0c0-7-0.2-13.9,0.1-20.7
			c0.2-4.1-1.1-6.2-4.9-8.2C371,252.4,364.6,241.7,363.8,227.1z"/>
	</g>
</g>
</svg>
