<?xml version="1.0" encoding="utf-8"?>
<!-- Generator: Adobe Illustrator 25.2.1, SVG Export Plug-In . SVG Version: 6.00 Build 0)  -->
<svg version="1.1" id="Layer_1" xmlns="http://www.w3.org/2000/svg" xmlns:xlink="http://www.w3.org/1999/xlink" x="0px" y="0px"
	 viewBox="0 0 800 800" style="enable-background:new 0 0 800 800;" xml:space="preserve">
<style type="text/css">
	.st0{fill:#FFFFFF;}
	path{
		fill:#FFFFFF;
	}
</style>
<g>
	<g>
		<path class="st0" d="M357.4,464.9c-0.9,0.5-1.8,1-2.7,1.5c-1.6-2.2-2.9-4.6-4.8-6.5c-29.3-29.4-58.6-58.9-88.2-88.2
			c-18.9-18.6-47.7-16.9-63.6,3.4c-13.4,17.2-11.3,40.4,5.7,57.3c54,54.1,108.2,108.2,162.3,162.3c21.4,21.4,45.1,21.4,66.5,0.1
			c23-22.9,45.9-45.9,68.9-68.9c31.1-31.1,62.2-62.3,93.4-93.4c11.5-11.4,16.8-24.9,13.3-40.8c-3.5-15.9-13.4-26.7-29.2-31.2
			c-16-4.5-30.2-0.7-42,11.1c-29.6,29.5-59.2,59.1-88.7,88.8c-1.8,1.8-5.5,5.4-6.7,7.9c-1.1-0.9,0.7-2.4-0.4-3.3c0-2.9,0-5.7,0-8.6
			c0-127.9,0-255.8,0-383.7c0-3.9,0.1-7.9-0.3-11.8c-1.7-16.7-10.5-28.5-25.8-34.8c-15.7-6.5-30.5-3.8-43.4,7.2
			c-11.2,9.5-14.5,22.1-14.4,36.3c0.1,128.9,0.1,257.8,0.1,386.7C357.4,459.2,357.4,462,357.4,464.9z"/>
		<path d="M21.4,567.9c0-4.4,0.8-8.8,2.3-12.9l0-0.1c7.2-19.5,25.9-30.8,45.9-27.7c20.5,3.2,35.2,19.8,35.7,40.7
			c0.3,13.5,0,27.1,0.1,40.6c0.2,49.5,36.1,85.8,85.6,85.9c138.7,0.2,277.4,0.2,416.2,0c49.9-0.1,85.7-36.4,85.9-86.3
			c0.1-13-0.1-26.1,0.1-39.1c0.3-23.8,18.9-42.5,42.1-42.5c23.2,0,42,18.7,41.9,42.5c-0.1,26.5,1.8,53-4.2,79.3
			c-15.3,67.9-73.7,120.7-143,128.8c0,0,0,0,0,0c-5.7,0.7-11.4,1.3-17.1,1.3H191.2c-6.2,0-16.3-0.6-22.5-1.3l0,0
			c-66.6-7.7-123.7-57-141.2-122c-0.3-1-0.5-2.1-0.8-3.1c-3.6-14.8-5.2-29.9-5.2-45.1C21.4,593.9,21.4,580.9,21.4,567.9z"/>
		<path d="M356,464.6c0-131.8,0.1-263.5-0.1-395.3c0-14.3,3.3-26.9,14.4-36.3c12.9-11,27.7-13.7,43.4-7.2
			c15.3,6.3,24.1,18.2,25.8,34.8c0.4,3.9,0.3,7.9,0.3,11.8c0,127.9,0,255.8,0,383.7l-0.8,14.2c5.7-6,8.1-9.1,12.1-12.7
			c29.5-29.7,54.8-56.7,84.4-86.2c11.8-11.8,26-15.6,42-11.1c15.8,4.5,25.7,15.3,29.2,31.2c3.5,16-1.8,29.4-13.3,40.8
			c-31.2,31-62.3,62.2-93.4,93.4c-23,23-45.9,46-68.9,68.9c-21.4,21.3-45.1,21.3-66.5-0.1c-54.1-54.1-108.2-108.1-162.3-162.3
			c-16.9-17-19.1-40.1-5.7-57.3c15.8-20.3,44.7-22.1,63.6-3.4c29.6,29.2,58.9,58.7,88.2,88.2c1.9,1.9,5.4,6.9,7.7,8.5L356,464.6z"/>
	</g>
</g>
</svg>
