<?xml version="1.0" encoding="utf-8"?>
<!-- Generator: Adobe Illustrator 25.2.1, SVG Export Plug-In . SVG Version: 6.00 Build 0)  -->
<svg version="1.1" id="Layer_1" xmlns="http://www.w3.org/2000/svg" xmlns:xlink="http://www.w3.org/1999/xlink" x="0px" y="0px"
	 viewBox="0 0 800 800" style="enable-background:new 0 0 800 800;" xml:space="preserve">
<style type="text/css">
	.st0{fill:#FFFFFF;}
</style>
<g>
	<g>
		<path class="st0" d="M711.1,592.8c0-50.6,0.2-101.3-0.2-151.9c-0.1-7.7,2.5-11.3,9.3-14.7c38.5-19.7,59.4-51.4,59.2-94.9
			c-0.2-43.1-21.3-74.3-59.3-93.8c-6.9-3.5-9.2-7.1-9.2-14.7c0.4-45.6,0.2-91.3,0.2-136.9c0-11.1,0.4-22.3-0.6-33.3
			c-1.7-18.2-16.6-31.5-34.7-32.1C653,19.7,637.6,35.7,637.5,61c-0.2,53.7-0.2,107.4,0.1,161.1c0,7.8-2.1,11.9-9.5,15.7
			c-38,19.6-58.8,50.9-58.9,94c0,42.6,20.5,73.9,57.8,93.6c8,4.2,10.7,8.5,10.7,17.4c-0.3,97-0.2,194.1-0.2,291.1
			c0,5.7,0,11.6,1,17.2c2.7,16.5,16.8,28.8,33.4,29.7c22.9,1.2,39.1-14.6,39.2-39.5C711.3,691.8,711.1,642.3,711.1,592.8z
			 M87.6,591.2c0,11.5,0,23,0,34.5c0,39.1-0.3,78.2,0.2,117.4c0.2,22.3,15.6,37.7,36.4,37.8c20.8,0.1,35.9-15.1,37-37.3
			c0.2-3.8,0.1-7.7,0.1-11.5c0-96.3,0.1-192.5-0.2-288.8c0-8.5,1.9-13.3,10.2-17.7c37.6-19.4,58-50.7,58.2-93.3
			c0.2-43.1-20.6-74.6-58.5-94.3c-7.8-4.1-10-8.3-10-16.6c0.3-51.8,0.2-103.6,0.1-155.3c0-5.4-0.1-10.8-1-16
			c-2.8-16.5-16.9-28.7-33.5-29.6c-23.1-1.2-39,14.5-39.1,39.6c-0.2,54.1-0.2,108.2,0,162.2c0,7.3-1.6,11.4-8.7,15
			c-38.5,19.6-59.8,51-59.7,94.6c0.1,43.6,21.3,75,59.9,94.5c6.6,3.3,8.6,6.9,8.6,14C87.4,490.7,87.6,541,87.6,591.2z M436.2,221
			c0-54.1,0.1-108.2-0.1-162.2c-0.1-23.5-16.8-39.5-39.3-38.3c-20.3,1.1-34.2,17.1-34.3,39.9c-0.1,107.4-0.1,214.8,0.1,322.1
			c0,6.9-0.8,11.4-8.3,15.1c-38.8,19.2-60.2,51.1-60.3,94.3c-0.1,43.3,21,75.2,59.7,94.7c7,3.5,9,7.4,8.9,14.8
			c-0.3,46.4-0.6,92.8,0.2,139.2c0.2,9,3.4,19,8.4,26.5c8.7,13.1,25.5,16.9,40,11.8c15-5.3,24.7-18.4,24.7-35.2
			c0.2-47.6,0.2-95.1-0.1-142.7c0-6.8,1.3-10.7,8.2-14.1c38.9-19.2,60.2-51,60.4-94.3c0.2-43.2-20.8-75.3-59.5-94.8
			c-6.8-3.5-9.2-7.1-9.1-14.7C436.3,329.2,436.2,275.1,436.2,221z"/>
		<path d="M711.1,592.8c0,49.5,0.2,99-0.1,148.4c-0.1,24.9-16.3,40.8-39.2,39.5c-16.6-0.9-30.7-13.2-33.4-29.7
			c-0.9-5.6-1-11.5-1-17.2c-0.1-97-0.2-194.1,0.2-291.1c0-8.9-2.6-13.1-10.7-17.4c-37.3-19.7-57.8-51-57.8-93.6
			c0-43.1,20.9-74.5,58.9-94c7.5-3.8,9.6-7.9,9.5-15.7c-0.3-53.7-0.3-107.4-0.1-161.1c0.1-25.4,15.4-41.3,38.3-40.6
			c18.1,0.5,33,13.9,34.7,32.1c1,11,0.6,22.2,0.6,33.3c0.1,45.6,0.2,91.3-0.2,136.9c-0.1,7.6,2.3,11.2,9.2,14.7
			c38,19.5,59.1,50.7,59.3,93.8c0.2,43.5-20.7,75.2-59.2,94.9c-6.7,3.4-9.3,7-9.3,14.7C711.3,491.5,711.1,542.2,711.1,592.8z"/>
		<path d="M87.6,591.2c0-50.2-0.1-100.5,0.1-150.7c0-7-2-10.6-8.6-14c-38.6-19.5-59.8-51-59.9-94.5c-0.1-43.6,21.2-75.1,59.7-94.6
			c7.1-3.6,8.8-7.8,8.7-15c-0.2-54.1-0.3-108.2,0-162.2c0.1-25.1,16-40.8,39.1-39.6c16.6,0.8,30.7,13.1,33.5,29.6
			c0.9,5.3,1,10.7,1,16c0.1,51.8,0.2,103.6-0.1,155.3c-0.1,8.3,2.1,12.5,10,16.6c37.9,19.7,58.6,51.2,58.5,94.3
			c-0.2,42.5-20.6,73.9-58.2,93.3c-8.4,4.3-10.2,9.1-10.2,17.7c0.3,96.3,0.2,192.5,0.2,288.8c0,3.8,0.1,7.7-0.1,11.5
			c-1.1,22.3-16.2,37.4-37,37.3c-20.8-0.1-36.2-15.5-36.4-37.8c-0.4-39.1-0.1-78.2-0.2-117.4C87.6,614.2,87.6,602.7,87.6,591.2z"/>
		<path d="M436.2,221c0,54.1,0.2,108.2-0.2,162.2c-0.1,7.6,2.3,11.2,9.1,14.7c38.7,19.6,59.7,51.6,59.5,94.8
			c-0.2,43.2-21.5,75.1-60.4,94.3c-6.9,3.4-8.2,7.3-8.2,14.1c0.2,47.6,0.3,95.1,0.1,142.7c-0.1,16.8-9.7,29.9-24.7,35.2
			c-14.5,5.1-31.3,1.3-40-11.8c-5-7.5-8.3-17.5-8.4-26.5c-0.8-46.4-0.5-92.8-0.2-139.2c0.1-7.4-1.9-11.2-8.9-14.8
			c-38.7-19.5-59.8-51.4-59.7-94.7c0.1-43.3,21.5-75.1,60.3-94.3c7.5-3.7,8.3-8.2,8.3-15.1c-0.1-107.4-0.1-214.8-0.1-322.1
			c0-22.8,13.9-38.8,34.3-39.9c22.5-1.2,39.2,14.8,39.3,38.3C436.3,112.9,436.2,166.9,436.2,221z"/>
	</g>
</g>
</svg>
