<?xml version="1.0" encoding="utf-8"?>
<!-- Generator: Adobe Illustrator 25.2.1, SVG Export Plug-In . SVG Version: 6.00 Build 0)  -->
<svg version="1.1" id="Layer_1" xmlns="http://www.w3.org/2000/svg" xmlns:xlink="http://www.w3.org/1999/xlink" x="0px" y="0px"
	 viewBox="0 0 800 767.7" style="enable-background:new 0 0 800 767.7;" xml:space="preserve">
<style type="text/css">
	.st0{fill:#FFFFFF;}
</style>
<g>
	<g>
		<path d="M779.4,288.3c-1.9,10.9-3.4,21.8-5.7,32.7c-9.1,43.6-30.2,80.8-60.7,113c-96.5,101.8-193,203.5-289.4,305.4
			c-8.6,9.1-18.3,14.6-30.8,10.2c-4.9-1.7-9.7-5-13.3-8.8C281.2,637.3,182.6,534.1,85,430.1C18.1,358.9,2.4,256.9,46.2,169.3
			C86,89.6,151.6,46.9,241.7,47.8c58.7,0.6,108.1,25.3,148.1,68.2c3.4,3.6,6.7,7.2,10.9,11.6c3.1-3.3,6.2-6.4,9.1-9.5
			c35.5-38.7,78.9-62.5,131.1-69c45.7-5.7,89.2,2.8,128.6,26.6c64.7,39.1,99.3,97.8,108.6,172.2c0.3,2.6,0.9,5.3,1.3,7.9
			C779.4,266.6,779.4,277.5,779.4,288.3z M400.7,684.5c1.5-1.4,2.2-2,2.9-2.7C495,585.4,586.5,489,677.7,392.4
			c8.7-9.2,16.8-19.6,23.2-30.5c39.5-67.4,32.4-145.9-17.9-205.7c-53.7-63.8-148.4-73.3-212.8-20.4c-17,14-31.5,31.1-47.1,46.9
			c-14.2,14.4-30.4,14.6-44.4,0.1c-12.3-12.8-24-26.3-36.9-38.3c-41.1-38.3-89.6-51.3-144.2-37.9c-70.1,17.1-115.4,83-120.7,149.2
			c-4.4,54.7,13.5,101.6,51.2,141.3c83.6,87.9,166.9,176,250.3,264C385.7,668.8,393,676.4,400.7,684.5z"/>
		<path class="st0" d="M400.7,684.5c-7.7-8.1-15-15.7-22.3-23.4c-83.4-88-166.8-176.1-250.3-264c-37.8-39.7-55.6-86.6-51.2-141.3
			c5.3-66.3,50.6-132.1,120.7-149.2c54.5-13.3,103-0.4,144.2,37.9c13,12.1,24.6,25.6,36.9,38.3c14,14.5,30.3,14.3,44.4-0.1
			c15.5-15.8,30-32.9,47.1-46.9c64.4-53,159.1-43.4,212.8,20.4c50.3,59.8,57.4,138.3,17.9,205.7c-6.4,11-14.5,21.3-23.2,30.5
			C586.5,489,495,585.4,403.6,681.8C402.9,682.5,402.2,683.1,400.7,684.5z"/>
	</g>
</g>
</svg>
