<?xml version="1.0" encoding="utf-8"?>
<!-- Generator: Adobe Illustrator 25.2.1, SVG Export Plug-In . SVG Version: 6.00 Build 0)  -->
<svg width="100" height="100" version="1.1" id="Layer_1" xmlns="http://www.w3.org/2000/svg" xmlns:xlink="http://www.w3.org/1999/xlink" x="0px" y="0px"
	 viewBox="0 0 783.2 808.3" style="enable-background:new 0 0 783.2 808.3;" xml:space="preserve">
<style type="text/css">
	.st0{fill:#FFFFFF;}
</style>
<g>
	<g>
		<path class="st0" d="M423,13.3c121.1,0,242.3,0,363.4,0c0,261.1,0,522.2,0,783.4c-261.1,0-522.2,0-783.4,0
			c0-261.1,0-522.2,0-783.4c131.8,0,263.7,0,395.5,0c-1.1,0.5-2.2,1.2-3.4,1.4c-46.2,7.8-78.3,46.8-77.6,94.3
			c0.7,46.6,34.4,84.7,80.7,90.9c43,5.8,83.5-17.1,99.8-56.6c16.6-40.1,3.7-85.6-31.1-111.9C453.7,21.5,438.7,16.8,423,13.3z
			 M106.4,200.7c-0.2,47.8,37.5,85.8,85.2,86.1c48.3,0.2,86.4-37.4,86.5-85.6c0.1-47.9-37.2-85.7-85.2-86.1
			C144.8,114.7,106.6,152.5,106.4,200.7z M98.5,497.9c43.3-0.1,78.3-35.2,78.1-78.1c-0.3-43.3-35.2-78.1-78.3-78
			C55.2,341.8,20.1,377,20.2,420C20.3,463.2,55.3,498,98.5,497.9z M191.9,568.6c-39.3,0.4-70.1,31.4-69.9,70.5
			c0.2,39,31.8,70.5,70.4,70.1c38.7-0.4,70.4-32.3,70.1-70.6C262.3,599.8,230.4,568.3,191.9,568.6z M473.5,732.4
			c-0.2-34.5-28.7-62.7-62.9-62.3c-34.2,0.5-61.9,28.3-62.1,62.4c-0.2,34.2,28.3,62.7,62.6,62.6
			C445.7,795.1,473.7,766.9,473.5,732.4z M684.6,638.9c0-30-24.1-54.4-54.1-54.6c-30.3-0.2-54.9,24.2-55,54.5
			c0,30,24,54.3,54.1,54.6C659.9,693.6,684.5,669.2,684.6,638.9z M723.9,466.8c25.9-0.1,47.1-21.4,46.9-47.1
			c-0.3-26.2-21.2-46.7-47.4-46.4c-25.9,0.3-46.3,20.7-46.4,46.6C676.8,445.6,698.1,466.9,723.9,466.8z M669,201.5
			c0.2-21.7-17.2-39.5-38.8-39.6c-21.1-0.1-38.9,17.4-39.2,38.6c-0.3,21.6,17.2,39.3,38.9,39.4C651.4,239.9,668.8,222.9,669,201.5z"
			/>
		<path d="M409,13.3c13.4,0,26.7,2.4,39,7.5c6.6,2.7,12.9,6.1,18.8,10.6c34.9,26.4,47.7,71.8,31.1,111.9
			c-16.3,39.5-56.8,62.4-99.8,56.6c-46.2-6.2-80-44.3-80.7-90.9c-0.7-47.5,31.4-86.5,77.6-94.3c0,0,0,0,0,0c4-0.7,8-1.4,12-1.4H409z
			"/>
		<path d="M106.4,200.7c0.2-48.2,38.4-86.1,86.5-85.6c48,0.5,85.3,38.2,85.2,86.1c-0.1,48.2-38.1,85.8-86.5,85.6
			C143.8,286.6,106.2,248.6,106.4,200.7z"/>
		<path d="M98.5,497.9C55.3,498,20.3,463.2,20.2,420c-0.1-43,35-78.2,78.1-78.3c43.1-0.1,78,34.7,78.3,78
			C176.9,462.7,141.8,497.8,98.5,497.9z"/>
		<path d="M191.9,568.6c38.5-0.3,70.4,31.2,70.7,69.9c0.2,38.4-31.4,70.3-70.1,70.6c-38.6,0.4-70.2-31.1-70.4-70.1
			C121.8,600,152.6,569,191.9,568.6z"/>
		<path d="M473.5,732.4c0.2,34.6-27.8,62.8-62.3,62.8c-34.3,0-62.8-28.4-62.6-62.6c0.2-34.1,27.9-62,62.1-62.4
			C444.9,669.6,473.4,697.9,473.5,732.4z"/>
		<path d="M684.6,638.9c0,30.3-24.7,54.8-55,54.5c-30.1-0.3-54.1-24.6-54.1-54.6c0-30.3,24.7-54.7,55-54.5
			C660.5,584.5,684.6,608.9,684.6,638.9z"/>
		<path d="M723.9,466.8c-25.9,0.1-47.1-21.2-46.9-47c0.2-25.9,20.5-46.3,46.4-46.6c26.1-0.3,47.1,20.3,47.4,46.4
			C771.1,445.4,749.9,466.7,723.9,466.8z"/>
		<path d="M669,201.5c-0.2,21.4-17.5,38.5-39,38.4c-21.7-0.1-39.2-17.8-38.9-39.4c0.3-21.2,18.1-38.7,39.2-38.6
			C651.7,162,669.1,179.8,669,201.5z"/>
	</g>
</g>
</svg>
