<?xml version="1.0" encoding="utf-8"?>
<!-- Generator: Adobe Illustrator 25.2.1, SVG Export Plug-In . SVG Version: 6.00 Build 0)  -->
<svg version="1.1" id="Layer_1" xmlns="http://www.w3.org/2000/svg" xmlns:xlink="http://www.w3.org/1999/xlink" x="0px" y="0px"
	 viewBox="0 0 800 800" style="enable-background:new 0 0 800 800;" xml:space="preserve">
<style type="text/css">
	.st0{fill:#FFFFFF;}
</style>
<g>
	<g>
		<path d="M597.3,782.9c-4.5,0-9-0.3-13.4-1c-8.6-1.3-17.1-2.6-25.6-4.2c-41.6-7.8-80.5-23.4-118.3-42
			c-61.9-30.4-119.5-67.6-171.1-113.3C165.5,530.7,83.6,423.7,37.6,291.9C26.2,259.3,19.4,225.8,20.2,191
			c0.8-33.5,11.6-62.9,35.3-86.9c20.9-21.3,41.2-43.3,63.7-62.9C155.5,9.6,193,10,227.8,42.9c35.2,33.3,69.2,68,102.4,103.3
			c27.2,29,27.1,68.4,0.5,97.9c-18.6,20.7-38.8,39.9-58.7,59.4c-3.9,3.9-4.3,6.6-2,11.4c19.7,41.4,48.4,76.3,79.3,109.5
			c31.5,33.8,66.2,63.9,105.2,88.8c10.2,6.5,21.3,11.7,31.8,17.9c4.2,2.5,6.7,2,10.1-1.4c16.5-16.9,33.3-33.6,50.1-50.2
			c13.1-13,27.7-23.5,46.5-26.6c25.3-4.2,46.7,4,64.6,21.6c32.5,31.9,64.6,64.2,96.7,96.4c34.5,34.7,37.3,74,5.4,110.8
			c-22.1,25.5-46.6,49-71.1,72.3c-16.9,16-38.2,24.1-61.3,27.1c-1.7,0.2-3.4,0.6-5.1,1c-1.9,0.4-3.8,0.7-5.8,0.7H597.3z M58.9,194.3
			c0.1,32.2,8.2,67.3,21.9,103.2c34.5,90.7,88.9,168.5,154.4,239c63.8,68.6,138.1,123.5,222.3,164.8c41.9,20.6,85.1,37.2,132,42.1
			c28.6,3,55.7-0.4,77.2-21c22.1-21.2,43.4-43.2,64.1-65.7c16.7-18.1,16.4-36.7-0.8-54.3c-33.2-34-66.9-67.5-100.8-100.7
			c-13.7-13.5-31.4-13.6-46.7-1.8c-3.5,2.7-6.8,5.9-9.9,9c-18.5,18.4-36.9,37-55.5,55.3c-12.1,12-25.1,14-40.2,6.4
			c-10.9-5.5-21.7-11.1-32.1-17.3c-49.3-29.5-92-66.9-130.5-109.3c-32.1-35.3-61.3-72.5-81.1-116.4c-10.2-22.6-8.2-32.5,9.6-49.6
			c19.3-18.7,38.7-37.3,57-56.9c15.7-16.7,15.5-34.4-0.4-51.1c-24.4-25.6-49.5-50.4-74.5-75.4c-9.1-9.2-18.2-18.4-27.9-27
			c-15-13.4-32.3-13.6-48.1-1.1c-4,3.2-7.8,6.7-11.3,10.4c-15.8,16.5-32,32.6-48.5,48.4C68.2,145.1,58.1,169.1,58.9,194.3z"/>
		<path class="st0" d="M58.9,194.3c-0.8-24.8,9-48.6,29.2-68.2c17.5-17,34.5-34.4,51.8-51.6c2.8-2.8,5.8-5.5,8.9-7.9
			c15.8-12.4,33.1-12.2,48.1,1.1c9.7,8.6,18.8,17.8,27.9,27c24.9,25,50.1,49.8,74.5,75.4c15.9,16.7,16.1,34.4,0.4,51.1
			c-18.4,19.6-37.7,38.3-57,56.9c-17.8,17.2-19.8,27-9.6,49.6c19.8,43.8,49.1,81.1,81.1,116.4c38.5,42.4,81.3,79.8,130.5,109.3
			c10.4,6.3,21.3,11.8,32.1,17.3c15.1,7.6,28.1,5.6,40.2-6.4c18.6-18.4,37-36.9,55.5-55.3c3.2-3.2,6.4-6.3,9.9-9
			c15.3-11.8,33-11.7,46.7,1.8c33.9,33.3,67.7,66.7,100.8,100.7c17.2,17.6,17.5,36.2,0.8,54.3c-20.7,22.5-42,44.5-64.1,65.7
			c-21.6,20.7-48.7,24-77.2,21c-47-4.9-90.1-21.6-132-42.1c-84.2-41.3-158.5-96.1-222.3-164.8c-65.5-70.5-120-148.3-154.4-239
			C67.2,261.6,59.1,226.6,58.9,194.3z"/>
	</g>
</g>
</svg>
