<?xml version="1.0" encoding="utf-8"?>
<!-- Generator: Adobe Illustrator 25.2.1, SVG Export Plug-In . SVG Version: 6.00 Build 0)  -->
<svg version="1.1" id="Layer_1" xmlns="http://www.w3.org/2000/svg" xmlns:xlink="http://www.w3.org/1999/xlink" x="0px" y="0px"
	 viewBox="0 0 800 800" style="enable-background:new 0 0 800 800;" xml:space="preserve">
<style type="text/css">
	.st0{fill:#FFFFFF;}
</style>
<g>
	<g>
		<path class="st0" d="M570.2,621.4c1.9,2.7,3.3,5.3,5.3,7.4c40.9,40.9,81.8,81.8,122.7,122.7c3.5,3.5,6.8,7.1,10.6,10.3
			c21.7,18.5,54.6,7.5,60.5-20.4c3-14.2-2-26-12.2-36.1c-42.8-42.6-85.5-85.5-128.3-128.1c-2.4-2.4-5.5-4.8-8.5-6.8
			c58.5-76,82.9-158.3,71.1-250.7c-11.9-92.8-56.2-168-130.8-224.4C425.3-6.9,238,9.6,119,133.3C4,252.8-2.6,441.6,103.4,572.4
			C213.3,708.1,420.7,740.6,570.2,621.4z"/>
		<path d="M570.2,621.4c-149.5,119.2-356.9,86.7-466.8-49C-2.6,441.6,4,252.8,119,133.3C238,9.6,425.3-6.9,560.5,95.3
			c74.6,56.4,119,131.5,130.8,224.4c11.8,92.4-12.6,174.8-71.1,250.7c0,0,0,0,0,0c6,5.4,10.6,8.9,15.4,13.7
			c40.5,40.4,80.9,80.8,121.4,121.2c10.2,10.1,15.2,21.9,12.2,36.1c-5.9,27.9-38.8,38.9-60.5,20.4c-3.7-3.2-7.1-6.8-10.6-10.3
			c-40.9-40.9-81.8-81.8-122.7-122.7C572.8,626.2,572.1,624.1,570.2,621.4z M620.3,362c0.6-142.8-114.7-258.6-258-259.3
			C218.8,102,102.6,217.1,102,360.6c-0.6,143.6,115.1,260.1,258.8,260.5C503.8,621.5,619.7,505.7,620.3,362z"/>
		<path class="st0" d="M620.3,362c-0.6,143.7-116.5,259.4-259.5,259C217.1,620.7,101.3,504.2,102,360.6
			c0.6-143.5,116.8-258.6,260.3-257.9C505.6,103.4,620.9,219.3,620.3,362z"/>
	</g>
</g>
</svg>
