<?xml version="1.0" encoding="utf-8"?>
<!-- Generator: Adobe Illustrator 25.2.1, SVG Export Plug-In . SVG Version: 6.00 Build 0)  -->
<svg version="1.1" id="Layer_1" xmlns="http://www.w3.org/2000/svg" xmlns:xlink="http://www.w3.org/1999/xlink" x="0px" y="0px"
	 viewBox="0 0 800 800" style="enable-background:new 0 0 800 800;" xml:space="preserve">
<style type="text/css">
	.st0{fill:#ffffff;}
	path{
		fill:#ffffff;
	}
</style>
<g>
	<g>
		<path class="st0" d="M36.4,770.1c-6.1-6.7-7.1-14.9-4.2-27.9c12.3-55.3,24.9-110.6,37.3-166c8-35.7,16.2-71.3,23.9-107.1
			c1.1-5.1,3.3-6.8,8-7.5c55.2-9.4,110.4-18.9,165.5-28.5c60.2-10.4,120.5-20.8,180.7-31.3c0.4-0.1,0.8-0.5,2.4-1.6
			c-10.2-1.9-19.4-3.6-28.6-5.2c-96.3-16.7-192.6-33.4-288.9-50c-10.6-1.8-21.3-3.7-32-5.4c-4.1-0.6-6.1-2.2-7.1-6.6
			C73.2,242,52.7,151,32.3,60c-0.1-0.5-0.2-1-0.3-1.4c-2.3-11.6-2.5-23,8-30.9c10.7-8,21.6-5,32.5,0.6
			c225.6,115.7,451.3,231.4,676.9,347c7.7,3.9,14.4,8.5,17.1,17.2c4.1,13.1-1.1,25.3-14.1,32c-38,19.6-76,39.1-114,58.6
			C449.7,579.8,261,676.5,72.2,773.3c-1.6,0.8-3.2,1.6-4.8,2.4C57,780.7,44.2,778.6,36.4,770.1z"/>
	</g>
</g>
</svg>
