<?xml version="1.0" encoding="utf-8"?>
<!-- Generator: Adobe Illustrator 25.2.1, SVG Export Plug-In . SVG Version: 6.00 Build 0)  -->
<svg version="1.1" id="Layer_1" xmlns="http://www.w3.org/2000/svg" xmlns:xlink="http://www.w3.org/1999/xlink" x="0px" y="0px"
	 viewBox="0 0 800 800" style="enable-background:new 0 0 800 800;" xml:space="preserve">
<style type="text/css">
	.st0{fill:#FFFFFF;}
</style>
<g>
	<g>
		<path class="st0" d="M362.5,772.3c69.1,0,138.2,0,207.3-0.1c7.8,0,15.8,0.1,23.4-1.2c61.4-10.3,102.9-59.2,103.3-121.5
			c0.2-38,0-76.1,0-114.1c0-48.8,0-97.6,0-146.3c0-17.2-6.5-30.6-22.8-37.7c-25-10.9-51.6,7.3-51.6,35.6
			c-0.1,87.4,0,174.8-0.1,262.2c0,29-19.5,48.9-48.5,49c-141.1,0.2-282.2,0.2-423.3,0c-28.6,0-48.4-19.7-48.5-48.2
			c-0.2-141.4-0.2-282.8,0-424.2c0-28.5,20.2-47.8,48.7-47.9c25.5-0.1,51.1,0,76.6,0c50.2,0,100.4,0.1,150.7,0
			c17.7,0,31.7-9.7,36.9-25.2c8.4-25.1-9.8-49.1-37.8-49.2c-76.1-0.2-152.1-0.1-228.2,0c-7.5,0-15.1,0.8-22.5,2.2
			c-58.8,11.8-98.3,59.7-98.4,120c-0.2,141.4-0.1,282.8,0,424.2c0,6.7,0.1,13.4,1.3,20C39.5,731,87.8,772,150,772.2
			C220.8,772.5,291.6,772.3,362.5,772.3z M693.2,156.5c1.1,0.7,2.2,1.5,3.2,2.2c0,3.1,0,6.2,0,9.4c0,39.2-0.3,78.4,0.2,117.6
			c0.1,7.5,1.8,15.8,5.2,22.4c7.6,14.7,25.2,21.3,41,17.1c16.6-4.4,27.5-18.5,27.5-36.8c0.2-72.9,0.1-145.7,0-218.6
			c0-25.8-14.7-40.4-40.5-40.5c-37.4-0.1-74.9,0-112.3,0c-35.1,0-70.3,0.1-105.4,0c-11.7,0-21.8,3.6-29.4,12.4
			c-10,11.6-12.2,25-6.4,39c6,14.4,17.5,22.4,33.3,22.5c40.9,0.3,81.9,0.1,122.8,0.1c3,0,6,0,9,0c0.6,1.1,1.3,2.2,1.9,3.3
			c-2.9,2-6.2,3.5-8.6,5.9c-98.2,98.1-196.3,196.2-294.4,294.3c-2.5,2.5-5,4.9-7.3,7.5c-17.9,21.5-7.5,53.2,19.6,60
			c15.5,3.9,27.6-2.2,38.3-13c98.7-98.8,197.4-197.5,296.1-296.3C689.6,162.6,691.2,159.4,693.2,156.5z"/>
		<path d="M362.5,772.3c-70.8,0-141.7,0.2-212.5-0.1C87.8,772,39.5,731,28.9,669.8c-1.1-6.5-1.3-13.3-1.3-20
			c-0.1-141.4-0.2-282.8,0-424.2c0.1-60.4,39.6-108.3,98.4-120c7.4-1.5,15-2.2,22.5-2.2c76.1-0.2,152.1-0.2,228.2,0
			c28,0.1,46.2,24.1,37.8,49.2c-5.2,15.5-19.1,25.2-36.9,25.2c-50.2,0.1-100.4,0-150.7,0c-25.5,0-51.1-0.1-76.6,0
			c-28.5,0.1-48.6,19.4-48.7,47.9c-0.2,141.4-0.2,282.8,0,424.2c0,28.5,19.8,48.2,48.5,48.2c141.1,0.2,282.2,0.2,423.3,0
			c29.1,0,48.5-20,48.5-49c0.1-87.4,0-174.8,0.1-262.2c0-28.3,26.6-46.6,51.6-35.6c16.3,7.1,22.8,20.5,22.8,37.7
			c0,48.8,0,97.6,0,146.3c0,38,0.2,76.1,0,114.1c-0.3,62.3-41.9,111.2-103.3,121.5c-7.7,1.3-15.6,1.2-23.4,1.2
			C500.7,772.3,431.6,772.3,362.5,772.3z"/>
		<path d="M684.7,164.9C586,263.7,489.8,362.6,391.1,461.4c-10.8,10.8-22.8,16.8-38.3,13c-27.1-6.7-37.5-38.5-19.6-60
			c2.2-2.7,4.8-5.1,7.3-7.5c98.1-98.1,195.9-192.6,294-290.6c3.6-3.6,9.5-9,12.8-12.9c-4.9,0-9.8,0-14.7,0
			c-40.9,0-81.9,0.1-122.8-0.1c-15.8-0.1-27.2-8.1-33.3-22.5c-5.9-14-3.7-27.4,6.4-39c7.7-8.9,17.7-12.5,29.4-12.4
			c35.1,0.1,70.3,0,105.4,0c37.4,0,74.9-0.1,112.3,0c25.8,0.1,40.5,14.7,40.5,40.5c0.1,72.9,0.1,145.7,0,218.6
			c0,18.4-10.9,32.4-27.5,36.8c-15.9,4.2-33.4-2.4-41-17.1c-3.4-6.6-5.1-14.9-5.2-22.4c-0.5-39.2-0.2-78.4-0.2-117.6
			c0-5.1,0-10.2,0-15.3C692.6,156.1,688.3,161.3,684.7,164.9z"/>
	</g>
</g>
</svg>
