<?xml version="1.0" encoding="utf-8"?>
<!-- Generator: Adobe Illustrator 25.2.1, SVG Export Plug-In . SVG Version: 6.00 Build 0)  -->
<svg version="1.1" id="Layer_1" xmlns="http://www.w3.org/2000/svg" xmlns:xlink="http://www.w3.org/1999/xlink" x="0px" y="0px"
	 viewBox="0 0 800 800" style="enable-background:new 0 0 800 800;" xml:space="preserve">
<style type="text/css">
	.st0{fill:#FFFFFF;}
	path{
		fill:#b1b1b1;
	}
</style>
<g>
	<g>
		<path d="M18.9,397.2v-11.4c0-5.3,0.5-10.7,1.3-15.9c0,0,0,0,0-0.1c2.8-18.1,4.2-36.5,8.5-54.2C57.5,197.9,126.6,111.7,234.9,58
			c71.7-35.6,148.1-45.9,227-32.4c98.7,16.8,179.2,65.5,239.9,145c63.5,83.2,88,177.8,74.5,281.5c-9.9,76.4-41.4,143.7-92.7,201.1
			c-58.6,65.5-131.3,106.4-217.9,122.1c-13.5,2.4-27.2,3.9-40.8,5.7c-16.6,0.1-29.8,1.9-49.6,0.2c-9.2-1.1-18.3-2.1-27.5-3.4
			c-75.4-10.8-142.2-40.9-199.3-91.5C82.1,627.4,40.6,554.3,24.8,467c-0.5-2.8-1-5.6-1.4-8.5C20.3,438.2,18.9,417.7,18.9,397.2z
			 M399.4,67.8c-183.3-0.1-332.6,149-333,332.4C66,583.6,215.7,733.5,399.3,733.6c183.3,0.1,332.6-149,333-332.4
			C732.7,217.7,583,67.9,399.4,67.8z"/>
		<path class="st0" d="M423.1,781.1c14.2-1.9,28.4-3.4,42.5-5.9c86.6-15.7,159.3-56.6,217.9-122.1c51.4-57.4,82.8-124.7,92.7-201.1
			c13.5-103.7-11-198.3-74.5-281.5C641.1,91,560.6,42.3,461.9,25.5C383,12.1,306.6,22.4,234.9,58c-108.3,53.7-177.3,140-206.2,257.6
			c-4.3,17.7-5.7,36.1-8.5,54.2c-0.4,2.4-0.9,4.8-1.3,7.2c0-119.3,0-238.7,0-358.1c254,0,508.1,0,762.3,0c0,254.1,0,508.2,0,762.3
			C661.8,781.1,542.5,781.1,423.1,781.1z"/>
		<path class="st0" d="M18.9,424.5c1.9,14.2,3.4,28.4,5.9,42.5c15.9,87.3,57.3,160.4,123.7,219.2c57.1,50.5,123.8,80.6,199.3,91.5
			c9.3,1.3,18.6,2.3,27.8,3.5c-118.9,0-237.8,0-356.7,0C18.9,662.3,18.9,543.4,18.9,424.5z"/>
		<path class="st0" d="M399.4,67.8C583,67.9,732.7,217.7,732.3,401.1c-0.4,183.4-149.7,332.5-333,332.4
			C215.7,733.5,66,583.6,66.4,400.3C66.8,216.9,216.1,67.8,399.4,67.8z M381.5,602.9c56.2,0.3,93.1-7.8,128.2-23.9
			c36.6-16.8,67.7-40.7,93.4-71.7c12.1-14.7,4.7-36-13.6-39.2c-10.6-1.9-18.3,3.3-25.1,11.2c-40.1,46.2-90.8,72.3-151.8,75.7
			c-72,4-132-22.5-179.4-76.9c-10.5-12-24.6-13.9-35.3-4.7c-10.7,9.2-11.2,23.6-0.8,35.5C250.2,570.5,317.8,601.2,381.5,602.9z
			 M600.1,323.5c0.9-13-2.2-26.1-10.5-38c-19.3-27.7-58.8-38.3-92.5-24.9c-31.8,12.7-47.7,41.7-42.4,77.3
			c1.8,12.3,13,21.7,24.9,20.9c12.5-0.9,21.9-10.7,22.4-23.4c0.1-4.5,0-8.9,0.1-13.4c0.1-10.4,7.2-17.4,19.6-19.2
			c13.6-2,27.9,4.1,30.5,13c0.5,1.6,0.4,3.4,0.4,5.2c0.1,5-0.2,9.9,0.1,14.9c0.7,12.9,11.2,23,23.7,23c12.9,0.1,23.3-10.3,23.7-23.6
			C600.2,331.8,600.1,328.3,600.1,323.5z M198.6,325.1c0,3.2-0.1,6.4,0,9.7c0.3,13.4,10.4,23.8,23.3,24c12.7,0.2,23.4-10,24.1-23.3
			c0.2-4.2,0.4-8.4,0-12.6c-0.9-9.2,3.9-14.4,11.6-17.7c9.1-3.8,18.3-3.8,27.4,0.1c7.7,3.3,12.4,8.7,11.6,17.8
			c-0.3,3.9-0.1,7.9,0,11.9c0.4,13.4,10.6,23.8,23.5,23.9c12.5,0.1,23.1-9.8,24-22.7c0.3-4.9,0.1-9.9,0.1-14.8
			c0.2-21.7-8.6-39.1-26.2-51.4c-26.2-18.3-54.4-20.3-82.9-6.4C210,275.8,197.1,296.4,198.6,325.1z"/>
		<path d="M381.5,602.9c-63.6-1.7-131.3-32.4-184.4-94.1c-10.3-12-9.9-26.4,0.8-35.5c10.7-9.2,24.8-7.3,35.3,4.7
			c47.5,54.4,107.4,80.9,179.4,76.9c61-3.3,111.7-29.5,151.8-75.7c6.8-7.8,14.4-13,25.1-11.2c18.3,3.2,25.8,24.5,13.6,39.2
			c-25.6,31-56.8,55-93.4,71.7C474.5,595.1,437.6,603.2,381.5,602.9z"/>
		<path d="M600.1,323.5c0,4.8,0.1,8.3,0,11.7c-0.4,13.3-10.9,23.7-23.7,23.6c-12.5-0.1-22.9-10.1-23.7-23c-0.3-4.9,0-9.9-0.1-14.9
			c0-1.7,0.1-3.5-0.4-5.2c-2.5-8.9-16.9-15-30.5-13c-12.4,1.8-19.5,8.8-19.6,19.2c0,4.5,0.1,8.9-0.1,13.4
			c-0.4,12.7-9.9,22.6-22.4,23.4c-11.9,0.8-23.1-8.6-24.9-20.9c-5.3-35.6,10.6-64.6,42.4-77.3c33.8-13.5,73.2-2.8,92.5,24.9
			C597.9,297.3,601,310.5,600.1,323.5z"/>
		<path d="M198.6,325.1c-1.5-28.7,11.4-49.4,36.6-61.7c28.5-13.9,56.8-11.9,82.9,6.4c17.6,12.3,26.3,29.7,26.2,51.4
			c0,5,0.2,9.9-0.1,14.8c-0.9,12.9-11.5,22.9-24,22.7c-12.9-0.1-23.1-10.5-23.5-23.9c-0.1-4-0.3-7.9,0-11.9
			c0.8-9.1-3.9-14.5-11.6-17.8c-9.1-3.9-18.3-3.9-27.4-0.1c-7.8,3.3-12.5,8.5-11.6,17.7c0.4,4.2,0.2,8.4,0,12.6
			c-0.7,13.3-11.4,23.6-24.1,23.3c-12.9-0.2-23-10.6-23.3-24C198.5,331.6,198.6,328.4,198.6,325.1z"/>
	</g>
</g>
</svg>
