<?xml version="1.0" encoding="utf-8"?>
<!-- Generator: Adobe Illustrator 25.2.1, SVG Export Plug-In . SVG Version: 6.00 Build 0)  -->
<svg version="1.1" id="Layer_1" xmlns="http://www.w3.org/2000/svg" xmlns:xlink="http://www.w3.org/1999/xlink" x="0px" y="0px"
	 viewBox="0 0 800 774" style="enable-background:new 0 0 800 774;" xml:space="preserve">
<style type="text/css">
	<!-- .st0{fill:#f1c600;} -->
	<!-- path {
    background: linear-gradient(90deg, rgba(241,198,0,1) 50%, rgba(221,221,221,1) 50%);
	} -->
</style>
 <defs>
    <linearGradient id="grad1" x1="0%" y1="0%" x2="100%" y2="0%">
      <stop offset="50%" style="stop-color:rgb(241,198,0,1);stop-opacity:1" />
      <stop offset="50%" style="stop-color:rgb(221,221,221,1);stop-opacity:1" />
    </linearGradient>
  </defs>
<g>
	<g>
		<path fill="url(#grad1)" class="st0" d="M403.6,27.9c-27.9,0-48,12.6-59.1,34.8c-26,52.4-51.8,104.9-77.6,157.5c-2.9,5.9-6.6,8.9-13.3,9.8
			c-58.2,8.2-116.4,16.8-174.6,25.3c-18.9,2.8-33.7,12.3-43.7,28.6c-14.8,24.1-10.9,54.3,9.8,74.6c41.4,40.7,83,81.3,124.8,121.6
			c6.1,5.9,8,11.6,6.5,19.9c-9.2,51.5-18.2,103.1-26.7,154.8c-2,12.1-4.6,24.8-2.8,36.7c6.3,42.1,50.2,63.4,88.5,43.5
			c52-27,103.7-54.3,155.5-81.7c5.9-3.1,10.8-3.5,16.6-0.1c7.9,4.6,16.1,8.6,24.2,12.8c43.7,23,87.4,46,131.2,68.9
			c22.3,11.7,44.4,10.6,64.6-4.1c20.2-14.7,28.1-35.4,23.8-60.2c-9.6-56.4-19.1-112.8-29.2-169.1c-1.7-9.5,0.4-15.9,7.4-22.6
			c41.7-40,83.2-80.3,124.2-121c17.6-17.4,22.7-38.9,14.7-62.3c-7.9-23.1-24.8-36.6-48.9-40.3c-57.6-8.6-115.3-17.1-173-25.2
			c-8-1.1-12.3-4.3-15.7-11.3c-25.3-51.9-51-103.6-76.5-155.3C443,40.7,424.6,29,403.6,27.9z"/>
		<path fill="url(#grad1)" d="M403.6,27.9c21,1.1,39.4,12.8,50.7,35.6c25.5,51.8,51.2,103.5,76.5,155.3c3.4,7,7.8,10.2,15.7,11.3
			c57.7,8.1,115.4,16.6,173,25.2c24.2,3.6,41,17.2,48.9,40.3c8.1,23.5,2.9,44.9-14.7,62.3c-41.1,40.7-82.5,81-124.2,121
			c-7,6.8-9.1,13.1-7.4,22.6c10,56.3,19.6,112.7,29.2,169.1c4.2,24.8-3.6,45.5-23.8,60.2c-20.2,14.7-42.3,15.8-64.6,4.1
			C519.1,712,475.4,689,431.7,666c-8.1-4.2-16.3-8.2-24.2-12.8c-5.8-3.4-10.7-3-16.6,0.1c-51.7,27.4-103.5,54.7-155.5,81.7
			c-38.2,19.8-82.2-1.4-88.5-43.5c-1.8-11.8,0.8-24.6,2.8-36.7c8.6-51.7,17.5-103.2,26.7-154.8c1.5-8.3-0.4-14-6.5-19.9
			c-41.8-40.3-83.3-80.9-124.8-121.6c-20.7-20.4-24.6-50.5-9.8-74.6c10-16.3,24.7-25.8,43.7-28.6c58.2-8.5,116.4-17.1,174.6-25.3
			c6.7-1,10.4-4,13.3-9.8c25.7-52.6,51.6-105.1,77.6-157.5C355.6,40.5,375.7,27.9,403.6,27.9z M197.7,680.9c0,9.3,6.7,12.2,16.2,7.2
			c51.1-26.8,102.3-53.5,153.3-80.6c22-11.7,43.3-11.4,65.2,0.4C483,635,533.9,661.5,584.9,688c3.5,1.8,9.7,2.6,12.2,0.6
			c2.6-2,3.6-8.1,2.9-12c-9.1-54.6-17.8-109.2-28.2-163.5c-5.7-29.9,2.1-52.9,24.4-73.7c40.3-37.6,79.2-76.6,118.5-115.3
			c2.8-2.8,5.6-8.4,4.6-11.4c-1-3.1-6.6-6.1-10.5-6.7c-57.1-8.6-114.2-16.8-171.4-24.9c-23.3-3.3-40.5-14.6-50.9-36
			c-5.9-12.1-11.9-24.1-17.8-36.1c-20-40.4-39.8-80.9-60.1-121.2c-1.8-3.5-6.3-7.4-9.7-7.6c-2.8-0.2-6.7,4.3-8.9,7.6
			c-3.4,5.1-5.6,11-8.3,16.5c-22.9,46.5-46,92.8-68.7,139.4c-10.2,21-26.3,33.6-49.3,37c-34.5,5.1-69.1,10-103.7,15
			c-23.9,3.5-47.9,6.8-71.7,10.7c-3.4,0.6-8,3.5-9,6.3c-0.9,2.8,1.4,7.5,3.7,10.3c3.6,4.6,8.3,8.4,12.5,12.5
			c37.7,36.8,75.3,73.7,113.2,110.3c16.8,16.3,23.3,35.7,19.4,58.5c-7.1,41.8-14.4,83.6-21.6,125.4
			C203.4,647,200.5,664.2,197.7,680.9z"/>
		<path fill="url(#grad1)" class="st0" d="M197.7,680.9c2.8-16.7,5.7-33.9,8.7-51.1c7.2-41.8,14.5-83.6,21.6-125.4c3.9-22.9-2.6-42.3-19.4-58.5
			c-37.9-36.6-75.5-73.5-113.2-110.3c-4.2-4.1-8.9-7.9-12.5-12.5c-2.2-2.8-4.6-7.5-3.7-10.3c0.9-2.9,5.6-5.8,9-6.3
			c23.8-3.9,47.8-7.2,71.7-10.7c34.6-5,69.1-9.9,103.7-15c23-3.4,39.1-16,49.3-37c22.7-46.6,45.8-92.9,68.7-139.4
			c2.7-5.5,5-11.4,8.3-16.5c2.1-3.3,6.1-7.8,8.9-7.6c3.5,0.2,8,4.1,9.7,7.6c20.3,40.3,40.1,80.8,60.1,121.2c5.9,12,12,24,17.8,36.1
			c10.4,21.3,27.6,32.7,50.9,36c57.2,8.1,114.3,16.3,171.4,24.9c3.9,0.6,9.4,3.6,10.5,6.7c1,3-1.8,8.7-4.6,11.4
			c-39.2,38.7-78.2,77.7-118.5,115.3c-22.3,20.7-30.1,43.8-24.4,73.7c10.4,54.3,19.2,108.9,28.2,163.5c0.7,3.9-0.3,10-2.9,12
			c-2.5,1.9-8.7,1.1-12.2-0.6c-51-26.4-101.9-53-152.6-80.1c-22-11.7-43.2-12.1-65.2-0.4c-51,27.1-102.1,53.8-153.3,80.6
			C204.4,693.1,197.7,690.2,197.7,680.9z"/>
	</g>
</g>
</svg>
