<?xml version="1.0" encoding="utf-8"?>
<!-- Generator: Adobe Illustrator 25.2.1, SVG Export Plug-In . SVG Version: 6.00 Build 0)  -->
<svg version="1.1" id="Layer_1" fill="#b1b1b1" xmlns="http://www.w3.org/2000/svg" xmlns:xlink="http://www.w3.org/1999/xlink" x="0px" y="0px"
	 viewBox="0 0 800 759.4" style="enable-background:new 0 0 800 759.4;" xml:space="preserve">
<g>
	<g>
		<path d="M783.7,276.4c-2.3,13.5-3.9,27.1-6.9,40.4c-10.3,46.3-33.6,85.5-66.9,118.9C612.6,533.1,515,630.3,418,727.9
			c-20.2,20.4-48.6,14.1-58.6-6.1c-6.6-13.3-5.3-26.1,3.9-37.8c2.3-2.9,5-5.6,7.6-8.2c95.9-96,191.8-192,287.9-287.8
			c25.3-25.3,43.6-54.5,50.6-89.8C722,235,706,179.7,659.9,134.6c-38.1-37.3-85.1-52.8-138.1-48.1c-42.3,3.8-78.4,21.7-108.4,51.7
			C315.6,236.1,217.5,333.9,119.8,432c-57.1,57.3-35.7,150.9,40.3,175.5c37.6,12.2,71.8,4.2,101.9-21.3c2.7-2.3,5.1-4.7,7.6-7.2
			c88.5-88.5,177-177.1,265.7-265.6c10.7-10.7,16.4-22.5,12.1-37.7c-6.7-23.8-35-33.2-54.7-18.1c-3,2.3-5.6,4.9-8.3,7.6
			c-57,57-113.9,114-170.9,170.9c-15,15-34.2,16.7-49.1,4.6c-14.4-11.7-17.1-32.8-6-47.7c1.8-2.4,3.8-4.6,6-6.7
			C322.2,328.4,380,270.5,438,212.8c36.6-36.5,88.7-42.9,131.6-16.6c54.8,33.6,66,110.9,22.8,158.6c-2.8,3.1-5.8,6.2-8.8,9.2
			C496,451.6,408.2,539.2,320.7,627c-30.3,30.4-65.9,49.9-108.7,54.5c-49.4,5.2-94.4-7.3-132.1-39.9C29,597.5,9.5,541.3,20.7,475.1
			c6.1-36.1,23.8-66.8,49.7-92.7c97.9-97.9,195.8-195.8,293.7-293.6C399.8,53,442.2,29,492,20.4C581.4,4.9,658.2,30,720.3,96.6
			c37.3,40,57.3,88.1,62.3,142.5c0.2,2,0.7,3.9,1.1,5.8C783.7,255.5,783.7,265.9,783.7,276.4z"/>
	</g>
</g>
</svg>
