<?xml version="1.0" encoding="utf-8"?>
<!-- Generator: Adobe Illustrator 25.2.1, SVG Export Plug-In . SVG Version: 6.00 Build 0)  -->
<svg version="1.1" id="Layer_1" fill="#3f3f3f" xmlns="http://www.w3.org/2000/svg" xmlns:xlink="http://www.w3.org/1999/xlink" x="0px" y="0px"
	 viewBox="0 0 800 800" style="enable-background:new 0 0 800 800;" xml:space="preserve">
<style type="text/css">
	.st0{fill:#FFFFFF;}
</style>
<g>
	<g>
		<path class="st0" d="M208.1,415.8c-2.1,1.3-3.7,2.4-5.3,3.3c-44.7,26.3-82.8,60.1-113.5,102c-49.3,67.2-73.8,142.7-74.2,226
			c0,10.7,3.8,19.7,11.8,26.6c10.6,9,22.7,11.2,35.7,6c12.6-5.1,20-14.7,21.3-28.3c1.8-17.8,1.6-35.8,4.7-53.4
			C107.2,593,165,516.7,259.9,468.3c2.5-1.3,6.9-1.1,9.3,0.3c85.2,49,170.2,49,255.3-0.1c2.5-1.4,6.9-1.8,9.4-0.6
			c86.8,43.7,143.2,112.4,166.1,207c6,24.8,6.5,50.9,9.5,76.4c2.1,18.3,17.6,32,35.5,31.2c18.7-0.8,33.3-15.5,33.4-34.2
			c0.1-10.8-0.4-21.7-1.4-32.5c-8.6-99.1-49.8-182.6-123-249.5c-20.8-19-44.9-34.6-67.8-52c39.3-50.2,58.5-108.6,52.4-174.3
			c-6.1-66-34.8-120.8-85.2-163.5C463.1-0.1,331.8,0.3,240.8,75.7C148.8,151.8,117.2,303.8,208.1,415.8z"/>
		<path d="M208.1,415.8c-90.9-112-59.4-264,32.7-340.2c91-75.3,222.2-75.8,312.5,0.8c50.4,42.8,79.1,97.5,85.2,163.5
			c6.1,65.7-13.1,124-52.4,174.3c22.9,17.4,47,33,67.8,52c73.3,67,114.4,150.4,123,249.5c0.9,10.8,1.4,21.6,1.4,32.5
			c-0.1,18.7-14.7,33.4-33.4,34.2c-17.8,0.8-33.3-12.9-35.5-31.2c-3-25.5-3.5-51.6-9.5-76.4c-22.9-94.6-79.4-163.2-166.1-207
			c-2.5-1.2-6.9-0.9-9.4,0.6c-85.1,49.1-170.2,49.1-255.3,0.1c-2.4-1.4-6.9-1.5-9.3-0.3C165,516.7,107.2,593,88.7,698.1
			c-3.1,17.5-2.9,35.6-4.7,53.4c-1.3,13.6-8.7,23.2-21.3,28.3c-13,5.2-25.1,3-35.7-6c-8.1-6.8-11.9-15.9-11.8-26.6
			c0.4-83.3,24.9-158.8,74.2-226c30.7-41.9,68.7-75.7,113.5-102C204.5,418.2,206,417.2,208.1,415.8z M396.8,435.3
			c95.7,0,173.3-77.4,173.4-172.9c0.1-96-77.6-173.9-173.4-173.9c-95.5,0-173.2,77.5-173.4,173.1
			C223.2,357.5,300.8,435.3,396.8,435.3z"/>
		<path class="st0" d="M396.8,435.3c-96,0-173.6-77.7-173.4-173.8c0.2-95.5,77.8-173,173.4-173.1c95.8,0,173.6,77.9,173.4,173.9
			C570.1,357.9,492.5,435.3,396.8,435.3z"/>
	</g>
</g>
</svg>
