<?xml version="1.0" encoding="utf-8"?>
<!-- Generator: Adobe Illustrator 25.2.1, SVG Export Plug-In . SVG Version: 6.00 Build 0)  -->
<svg version="1.1" id="Layer_1" xmlns="http://www.w3.org/2000/svg" xmlns:xlink="http://www.w3.org/1999/xlink" x="0px" y="0px"
	 viewBox="0 0 800 526" style="enable-background:new 0 0 800 526;" xml:space="preserve">
<style type="text/css">
	.st0{fill:#FFFFFF;}
</style>
<g>
	<g>
		<path d="M17.1,105.4c0-11.5,2-23,6.2-33.6c2.6-6.6,6-12.9,10.7-18.7c17-21.2,39-31.9,66-31.9c133.1-0.1,266.2-0.3,399.3,0.1
			c47.9,0.1,81.9,34.7,82.7,82.6c0.3,15.7,0,31.3,0.1,47c0,2.4,0.2,4.8,0.4,8.4c3.2-1.6,5.5-2.8,7.8-4.1
			c53.4-29.2,106.9-58.3,160.3-87.5c1.5-0.8,3.1-1.7,4.6-2.5c14.4-7.5,26.2-0.4,26.2,15.8c0.1,53.2,0,106.5,0,159.7
			c0,66.9-0.5,133.9,0.3,200.8c0.2,19.1-14.1,26-29.6,17.2c-53.2-30-107.1-58.9-160.8-88.2c-2.6-1.4-5.2-2.7-8.9-4.7
			c-0.2,3.7-0.4,6.3-0.4,8.9c-0.2,17.7,0.4,35.4-0.5,53c-2,40.1-36.1,73.4-76.3,75c-7,0.3-13.9,0.2-20.9,0.2
			c-126.1,0-252.3-0.8-378.4,0.5c-46.3,0.5-82.9-30.7-88-69.5c0,0,0,0,0,0c-0.3-2.1-0.9-4.1-0.9-6.2
			C17.1,320.3,17.1,212.9,17.1,105.4z M299.5,470.4c65.2,0,130.4,0,195.5-0.1c5.7,0,11.6,0,17-1.4c24-5.8,37.8-24.7,37.8-51.3
			c0-103.8,0.1-207.5,0-311.3c0-32.6-20.6-52.8-53.4-52.8c-131.1,0-262.2,0-393.3,0c-33.5,0-53.4,19.9-53.5,53.3
			c0,103.5,0,207,0,310.5c0,5.2,0.2,10.5,1.4,15.5c5.8,23.8,24.2,37.4,50.6,37.5C167.7,470.5,233.6,470.4,299.5,470.4z M748.6,419.5
			V106.1c-1.9,0.9-3.3,1.4-4.5,2.1c-52.3,28.6-104.7,57.2-157.1,85.6c-3.9,2.1-5,4.7-5,8.8c0.1,39.8,0.2,79.6,0,119.4
			c0,4.9,1.5,7.5,5.9,9.8c21.3,11.3,42.3,23,63.5,34.6C683.4,383.9,715.4,401.4,748.6,419.5z"/>
		<path class="st0" d="M299.5,470.4c-65.9,0-131.9,0.1-197.8,0c-26.4,0-44.8-13.6-50.6-37.5c-1.2-5-1.4-10.3-1.4-15.5
			c-0.1-103.5-0.1-207,0-310.5c0-33.5,20-53.3,53.5-53.3c131.1,0,262.2,0,393.3,0c32.9,0,53.4,20.2,53.4,52.8
			c0.1,103.8,0.1,207.5,0,311.3c0,26.6-13.8,45.5-37.8,51.3c-5.5,1.3-11.3,1.4-17,1.4C429.9,470.5,364.7,470.4,299.5,470.4z"/>
		<path class="st0" d="M748.6,419.5c-33.1-18.1-65.2-35.5-97.2-53c-21.2-11.5-42.2-23.3-63.5-34.6c-4.4-2.3-5.9-4.9-5.9-9.8
			c0.2-39.8,0.2-79.6,0-119.4c0-4.2,1-6.7,5-8.8c52.4-28.4,104.7-57,157.1-85.6c1.2-0.7,2.6-1.2,4.5-2.1
			C748.6,210.7,748.6,314.5,748.6,419.5z"/>
	</g>
</g>
</svg>
